<?xml version="1.0" encoding="UTF-8"?>
<svg id="Layer_2" data-name="Layer 2" xmlns="http://www.w3.org/2000/svg" viewBox="0 0 150.32 99.99">
  <defs>
    <style>
      .cls-1 {
        fill: #ee2e43;
      }

      .cls-2 {
        fill: #cbcaca;
      }

      .cls-3 {
        fill: #efeae3;
      }

      .cls-4 {
        fill: #03623b;
      }

      .cls-5 {
        fill: #e17f35;
      }

      .cls-6 {
        fill: #ed3045;
      }

      .cls-7 {
        fill: #e91f30;
      }

      .cls-8 {
        fill: #125e5e;
      }

      .cls-9 {
        fill: #bdbdbd;
      }

      .cls-10 {
        fill: #0d563e;
      }

      .cls-11 {
        fill: #75c4e7;
      }

      .cls-12 {
        fill: #bce2f3;
      }

      .cls-13 {
        fill: #5cc5cd;
      }

      .cls-14 {
        fill: #047351;
      }

      .cls-15 {
        fill: #202020;
      }

      .cls-16 {
        fill: #1a664b;
      }

      .cls-17 {
        fill: #a75326;
      }

      .cls-18 {
        fill: #454545;
      }

      .cls-19 {
        fill: #036b4f;
      }

      .cls-20 {
        fill: #2d7959;
      }

      .cls-21 {
        fill: #f1c47c;
      }

      .cls-22 {
        fill: #888;
      }

      .cls-23 {
        fill: #006b4f;
      }

      .cls-24 {
        fill: #fefefe;
      }

      .cls-25 {
        fill: #027251;
      }
    </style>
  </defs>
  <g id="Layer_1-2" data-name="Layer 1">
    <g>
      <path class="cls-2" d="M44.29,92.32h.33c-.08,.25-.17,.51-.25,.78-.03-.26-.06-.51-.08-.78Z"/>
      <g>
        <path class="cls-14" d="M38.56,41.4l1.28,25.3,46.61-14.14s-3.36-27.42-3.25-27.95,.18-12.19-.2-12.3-33.2,7.36-33.2,7.36l-8.91,16.85-2.33,4.89Z"/>
        <path class="cls-19" d="M121.36,37.7c.33,4.05,.55,8.1-.16,12.13-.32,1.84-.92,3.59-1.7,5.29-.23,.5-.45,.48-.88,.31-.91-.36-1.83-.67-2.75-1.01-.27-.11-.53-.25-.8-.34-4.28-1.41-8.57-1.51-12.87-.12-3.76,1.21-7.56,1.13-11.4,.5,.13-.31,.68-.03,.69-.41,0-.37-.39-.48-.66-.65-1.61-.97-3-2.28-4.78-2.99-.14-.06-.32-.13-.29-.34,.03-.19,.18-.28,.34-.3,.23-.03,.46-.05,.69-.02,2.58,.35,5.18,.53,7.73,1.1,.79,.17,1.64,.31,2.5,.31-1.66-.87-3.27-1.75-4.98-2.45-1.7-.69-3.52-.99-5.19-1.74,.26-.47,.86-.42,1.19-.78,.03,.22,.13,.38,.37,.38,1.27-.01,2.42,.47,3.61,.81,3.94,1.12,7.95,1.51,12.04,1.39,1.98-.05,3.92-.3,5.73-1.09,.77-.34,1.79-.42,2.29-1.49-1,.13-1.87,.47-2.79,.38-.3-.03-.75,.18-.86-.24-.12-.47,.37-.54,.67-.7,1.37-.72,2.53-1.72,3.66-2.76,.14-.13,.35-.27,.22-.49-.11-.2-.35-.15-.53-.09-.53,.17-1.05,.38-1.59,.53-.72,.21-1.43,.48-2.2,.42,1.93-.94,3.86-1.86,5.82-3.25-.42-.04-.55-.09-.65-.06-2.98,.91-5.97,1.11-8.98,.19-.15-.05-.35-.08-.49-.02-1.15,.47-2.34,.5-3.55,.38-.19-.02-.42-.02-.49,.22-.07,.25,.13,.34,.29,.45,.57,.37,1.07,.87,1.81,.94,.2,.02,.52,.09,.48,.38-.03,.26-.33,.34-.54,.34-.72,.01-1.41,.25-2.14,.24-1.48-.01-2.93-.18-4.39-.35-.76-.09-1.56-.47-2.55-.08,2.94,1.3,5.85,2.05,8.86,2.53-1.45,.69-3.01,.67-4.66,.74,.45,.51,.99,.09,1.35,.58-3.41,.68-6.63,.02-9.83-.86,1.28-.96,2.07-2.41,3.35-3.36,.15,.18,.36,.32,.49,.04,.09-.19-.16-.2-.3-.23,.96-1.06,1.92-2.12,2.89-3.17,.81-.87,.84-1.24,.07-2.16,.24-.5,1.14-.77,.58-1.57,3.13,.51,6.24,1.09,9.39,1.53-2.72,.84-5.51,.54-8.26,.81,1.35,.37,2.75,.05,4.09,.32,0,.11,0,.21,0,.32h-4.25c.42,.5,.77,.36,1.06,.36,2.46,.01,4.91,.05,7.32-.56,.21-.05,.48-.1,.64,.12,.17,.24-.02,.43-.16,.61-.27,.36-.53,.73-.81,1.11,2.05,.25,9.88-4.35,11.04-6.46-.06-.02-.13-.07-.17-.06-2.65,.93-5.43,1.15-8.19,1.28-2.66,.12-5.33,.13-7.99-.02-1.29-.07-2.62,.05-3.89-.35,.17-.19,.34-.39,.51-.58,.23-.26,.61-.47,.4-.9-.17-.36-.54-.29-.86-.3-1.33-.06-2.47,.41-3.51,1.21-.14,.11-.24,.46-.53,.19,.01-.86,.34-1.7,.2-2.57,.17-.93-.19-1.82-.18-2.74,1.48,.84,2.54,.71,3.2-.4,1.11-.27,1.09-.26,.42-1.07-1.97-2.41-4.12-4.66-6.28-6.91-1.92-2.01-4.07-3.03-6.92-2.91-3.7,.16-7.42,.03-11.13,.02-.39,0-.79,.04-1.16-.13,0-.27,.12-.38,.38-.47,2.49-.91,4.96-1.82,7.59-2.31,3.06-.57,6.1-.73,9.16-.1,.24,.05,.58,.2,.72-.2-3.85-1.49-7.77-2.62-11.84-3.2,.09-.33,.28-.27,.42-.31,1.23-.32,2.46-.12,3.7-.02,2.64,.21,5.24,.71,7.82,1.25,1.54,.32,3.55,.67,4.85,.46-2.8-1.12-5.62-1.56-8.27-2.55,3.15-.26,6.27-.11,9.3,.75,2.17,.62,4.3,1.37,6.42,2.13,2.08,.74,4.21,1.29,6.34,1.95-2.94,1.16-5.92,.03-8.96,.13,.48,.61,1.13,.81,1.75,1.03,1.67,.58,3.27,1.34,5.02,1.7,.2,.04,.5,.07,.47,.39-.02,.19-.19,.24-.36,.26-1.56,.17-3.11,.35-4.69,.06-1.15-.21-2.32-.23-3.49-.56,.02,.14,.02,.19,.03,.2,4.16,2.19,8.4,4.02,13.28,2.91,.24-.05,.56-.18,.7,.13,.11,.26-.17,.39-.34,.53-.76,.62-1.59,1.12-2.46,1.57-2.89,1.5-5.93,2.37-9.19,2.46-.34,0-.7-.09-1.14,.2,1,.4,1.91,.53,2.84,.64,2.8,.33,5.53,.17,8.2-.87,.43-.17,1.02-1.12,1.6-.07,.07,.12,.28-.08,.41-.18,.74-.54,1.48-1.07,2.2-1.64,.34-.27,.65-.68,.54-1.1-.26-.97,.42-1.07,1.03-1.34,.98-.44,1.92-.98,2.85-1.93-1.36-.04-2.49,.02-3.79-.46,1.67-.37,3.16-.39,4.56-.99-2.91-.11-5.76-.65-8.65-.94,2.06-.43,4.14-.59,6.1-1.32,.33-.13,1.04,.09,.93-.41-.11-.5-.79-.16-1.21-.2-.09,0-.19,.07-.28,.08-.99,.13-1.98,.11-2.98-.08,.31-.21,.62-.32,.95-.41,1.38-.38,2.72-.86,4.03-1.42,.18-.08,.41-.16,.32-.4-.08-.24-.35-.2-.51-.12-.65,.32-1.13,.09-1.55-.41,3.51-.46,6.63-1.84,9.61-4.12-1.22,3.76-2.23,7.34-2.93,11-.22,.03-.33,.16-.36,.39-.19,1.91-.48,3.81-.58,5.72-.16,3.37,.06,6.73,.2,10.1,.03,.74,.21,1.48,.18,2.24-.01,.26,.07,.45,.36,.49Z"/>
        <path class="cls-19" d="M40.08,40.34c-.52,.28-.84,.87-1.52,1.06-.11-9-.69-17.89-3.54-26.57,2.47,.04,4.85-.14,7.23-.37,3.92-.38,7.82-.84,11.68-1.61,.16-.03,.33-.02,.49-.04,.03,.02,.06,.03,.08,.06,.02,.02,.04,.07,.03,.09-.32,.37-.98,.32-1.21,1.01,.6-.16,1.1-.2,1.62-.41,1.13-.45,2.25-.99,3.49-1.12h0c-.61,.87-1.74,.93-2.66,1.72,.62-.04,.99-.21,1.37-.38,1.49-.65,2.99-1.3,4.48-1.95,.2-.09,.47-.31,.62-.06,.2,.34-.19,.41-.4,.53-1.99,1.25-3.98,2.5-5.97,3.76-.57,.36-1.32,.5-1.82,1.33,5.49-1.99,10.68-4.21,16.12-5.79-1.55,1.1-3.41,1.57-5.02,2.52-1.63,.96-3.27,1.89-4.91,2.84-2.49,1.44-4.03,2.72-4.25,3.63,1.23-.66,2.4-1.23,3.51-1.9,.61-.37,.92-.49,.81,.46,1.74-.75,3.4-1.46,5.19-2.23-.12,.54-.4,.67-.6,.75-1.54,.63-2.68,1.85-4.03,2.75-.26,.17-.68,.4-.53,.73,.18,.39,.57,.06,.87,0,.48-.1,1-.53,1.37,.18-4.08,3.33-8.18,6.64-12.24,10-2.72,2.25-5.4,4.57-8.08,6.88-.28,.24-.79,.4-.66,.96,0,0-.07,.06-.07,.06-.48-.2-.62,.07-.65,.48,0,0,0-.01,0-.01-.21-.03-.38-.01-.32,.28,0,0-.03-.02-.03-.02-.16-.04-.23,.04-.23,.2,0,0,.03-.01,.03-.01-.19-.05-.25,.05-.26,.21Z"/>
        <path class="cls-14" d="M62.57,21.33c-.37-.71-.9-.28-1.37-.18-.3,.06-.69,.39-.87,0-.15-.33,.27-.56,.53-.73,1.35-.91,2.49-2.12,4.03-2.75,.21-.08,.48-.21,.6-.75-1.79,.77-3.45,1.48-5.19,2.23,.11-.95-.2-.83-.81-.46-1.11,.68-2.28,1.25-3.51,1.9,.22-.91,1.77-2.19,4.25-3.63,1.64-.95,3.28-1.88,4.91-2.84,1.62-.95,3.47-1.42,5.02-2.52-5.43,1.58-10.63,3.8-16.12,5.79,.5-.83,1.24-.97,1.82-1.33,1.98-1.26,3.98-2.5,5.97-3.76,.2-.13,.59-.2,.4-.53-.14-.25-.41-.03-.62,.06-1.5,.65-2.99,1.29-4.48,1.95-.38,.17-.75,.33-1.37,.38,.92-.79,2.05-.85,2.66-1.72,.22-.08,.6,.19,.67-.29-.31-.08-.5,.08-.68,.28-1.24,.13-2.36,.67-3.49,1.12-.52,.21-1.02,.25-1.62,.41,.22-.69,.88-.64,1.21-1.01,.01-.01,0-.06-.03-.09-.02-.03-.05-.04-.08-.06,5.65-1.47,10.92-4.04,16.47-5.79,1.4-.44,2.84-.79,4.32-.89,.16,.22,.4,.22,.63,.18,2.46-.41,4.94-.4,7.43-.39,.35,0,.73,.13,1.03-.18,.13,0,.27,.01,.4,.02,.53,.58,1.15,.43,1.77,.19,3.62,.39,7.11,1.4,10.58,2.44,3.82,1.14,7.58,2.47,11.52,3.15,1.32,.23,2.66,.33,3.99,.49-.33,.11-.7-.09-1.03,.15h2.71s0-.06,0-.09c-.32-.02-.64-.04-.97-.06,.53-.18,1.08-.16,1.62-.15,.42,.51,.9,.73,1.55,.41,.16-.08,.42-.11,.51,.12,.09,.24-.14,.33-.32,.4-1.31,.56-2.66,1.04-4.03,1.42-.32,.09-.64,.2-.95,.41,1,.2,1.99,.21,2.98,.08,.1-.01,.19-.09,.28-.08,.43,.03,1.1-.3,1.21,.2,.11,.5-.6,.29-.93,.41-1.96,.73-4.04,.9-6.1,1.32,2.89,.29,5.74,.84,8.65,.94-1.39,.6-2.88,.62-4.56,.99,1.3,.49,2.43,.42,3.79,.46-.94,.95-1.87,1.49-2.85,1.93-.61,.27-1.29,.37-1.03,1.34,.11,.42-.2,.83-.54,1.1-.72,.57-1.47,1.1-2.2,1.64-.13,.09-.35,.3-.41,.18-.58-1.06-1.17-.1-1.6,.07-2.66,1.05-5.39,1.21-8.2,.87-.93-.11-1.84-.24-2.84-.64,.44-.29,.8-.19,1.14-.2,3.26-.09,6.3-.96,9.19-2.46,.88-.45,1.7-.95,2.46-1.57,.17-.14,.45-.27,.34-.53-.13-.31-.46-.19-.7-.13-4.88,1.1-9.12-.72-13.28-2.91-.02,0-.01-.06-.03-.2,1.17,.32,2.35,.35,3.49,.56,1.58,.29,3.13,.1,4.69-.06,.17-.02,.35-.06,.36-.26,.03-.32-.27-.35-.47-.39-1.74-.36-3.35-1.12-5.02-1.7-.63-.22-1.28-.42-1.75-1.03,3.05-.11,6.03,1.03,8.96-.13-2.13-.66-4.26-1.21-6.34-1.95-2.12-.76-4.25-1.51-6.42-2.13-3.03-.86-6.15-1.01-9.3-.75,2.65,.99,5.47,1.42,8.27,2.55-1.3,.21-3.31-.14-4.85-.46-2.58-.54-5.18-1.04-7.82-1.25-1.24-.1-2.47-.31-3.7,.02-.15,.04-.34-.03-.42,.31,4.07,.58,7.99,1.71,11.84,3.2-.15,.39-.48,.25-.72,.2-3.06-.63-6.1-.47-9.16,.1-2.62,.49-5.1,1.4-7.59,2.31-.26,.1-.39,.2-.38,.47-1.47,.28-2.82,.83-4.02,1.73-1.15,.86-2.33,1.7-3.49,2.55Z"/>
        <path class="cls-2" d="M90.8,54.46c3.83,.63,7.64,.71,11.4-.5,4.3-1.38,8.6-1.29,12.87,.12,.27,.09,.53,.22,.8,.34,.24,1.48-.13,2.91-.39,4.35-.11,.62-.38,.67-.88,.4-1.16-.62-2.32-1.23-3.61-1.55-2.8-.68-5.47-.14-8.01,1.02-3.11,1.43-6.37,1.81-9.7,1.5-3.39-.32-6.68-1.21-9.98-2.03-3.51-.87-7.04-1.57-10.68-1.27-3.63,.29-7.18,1.01-10.69,1.95-7.27,1.94-14.26,4.66-21.15,7.66-.3,.13-.59,.31-.94,.24,.26-.19,.52-.39,.79-.55,4.65-2.74,9.39-5.34,14.23-7.75,.12,.01,.2-.02,.24-.14,0,0,0,0,0,0,.6-.25,1.21-.5,1.81-.75,4.88-1.98,9.57-4.49,14.93-5.02,.86,0,1.72,0,2.58,0,.3,.02,.59,.04,.89,.06,2.21,.28,4.41,.57,6.62,.85,2.96,.37,5.9,.89,8.88,1.06Z"/>
        <path class="cls-16" d="M121.36,37.7c-.29-.04-.37-.24-.36-.49,.04-.75-.15-1.49-.18-2.24-.14-3.36-.36-6.73-.2-10.1,.09-1.91,.38-3.81,.58-5.72,.02-.23,.13-.36,.36-.39-.88,6.01-.73,12.03-.21,18.05,.03,.29,.01,.59,.01,.88Z"/>
        <path class="cls-20" d="M84.28,5.74c-.3,.31-.68,.18-1.03,.18-2.48,0-4.97-.02-7.43,.39-.23,.04-.46,.03-.63-.18,3.01-.51,6.03-.77,9.08-.39Z"/>
        <path class="cls-4" d="M113.26,12.03c.32,.02,.64,.04,.97,.06,0,.03,0,.06,0,.09h-2.71c.33-.23,.7-.04,1.03-.15,.24,0,.48,0,.71,0Z"/>
        <path class="cls-20" d="M86.45,5.96c-.62,.24-1.24,.39-1.77-.19,.61-.1,1.19,.1,1.77,.19Z"/>
        <path class="cls-14" d="M76.98,47.39c1.77,0,3.53-.05,5.3,0,1.54,.04,3.06-.1,4.56-.42,1.67,.75,3.49,1.05,5.19,1.74,1.72,.69,3.33,1.58,4.98,2.45-.85,0-1.7-.14-2.5-.31-2.56-.56-5.16-.74-7.73-1.1-.22-.03-.46-.01-.69,.02-.16,.02-.31,.12-.34,.3-.03,.21,.15,.28,.29,.34,1.78,.71,3.17,2.02,4.78,2.99,.28,.17,.67,.28,.66,.65,0,.38-.55,.1-.69,.41-2.98-.17-5.92-.7-8.88-1.06-2.21-.27-4.41-.56-6.62-.85,.35-.04,.71-.07,1.06-.11-.66-.06-1.32-.34-1.95,.05-.86,0-1.72,0-2.58,0-.18-.31-.57-.07-.77-.26,2.41-.81,4.91-1.29,7.63-1.82-.65-.39-1.01-.08-1.38-.06-2.41,.1-4.78,.52-7.15,.92-2.86,.48-5.69,1.12-8.48,1.89-.25,.07-.49,.22-.7-.07,.39-.26,.79-.53,1.18-.79,.37,.03,.7-.06,1.04-.2,.96-.4,1.92-.81,2.91-1.13,3.36-1.12,6.76-2.13,10.2-2.98,.36-.09,.62-.19,.66-.59Z"/>
        <path class="cls-25" d="M88.04,46.2c.33-.2,.65-.4,.98-.6,3.2,.88,6.41,1.55,9.83,.86-.37-.49-.9-.07-1.35-.58,1.65-.07,3.21-.05,4.66-.74-3-.48-5.92-1.23-8.86-2.53,.99-.39,1.79,0,2.55,.08,1.46,.17,2.92,.34,4.39,.35,.73,0,1.42-.23,2.14-.24,.21,0,.51-.08,.54-.34,.03-.29-.28-.36-.48-.38-.74-.07-1.24-.57-1.81-.94-.16-.11-.37-.2-.29-.45,.07-.24,.3-.24,.49-.22,1.21,.11,2.4,.09,3.55-.38,.14-.06,.33-.02,.49,.02,3.02,.92,6.01,.73,8.98-.19,.11-.03,.24,.02,.65,.06-1.97,1.39-3.89,2.32-5.82,3.25,.78,.06,1.49-.21,2.2-.42,.54-.15,1.05-.36,1.59-.53,.18-.06,.42-.11,.53,.09,.12,.22-.09,.36-.22,.49-1.12,1.05-2.28,2.05-3.66,2.76-.31,.16-.8,.23-.67,.7,.11,.42,.56,.21,.86,.24,.92,.09,1.79-.25,2.79-.38-.5,1.07-1.52,1.15-2.29,1.49-1.81,.79-3.75,1.03-5.73,1.09-4.09,.11-8.1-.27-12.04-1.39-1.19-.34-2.34-.82-3.61-.81-.24,0-.34-.16-.37-.38Z"/>
        <path class="cls-25" d="M94.97,34.76c.43-.03,.59-.47,.95-.62,1.27,.41,2.6,.28,3.89,.35,2.66,.15,5.33,.14,7.99,.02,2.77-.12,5.54-.34,8.19-1.28,.05-.02,.12,.04,.17,.06-1.15,2.11-8.98,6.72-11.04,6.46,.28-.38,.54-.74,.81-1.11,.14-.18,.33-.37,.16-.61-.15-.22-.42-.18-.64-.12-2.41,.61-4.87,.57-7.32,.56-.3,0-.65,.14-1.06-.36h4.25c0-.11,0-.21,0-.32-1.34-.27-2.73,.05-4.09-.32,2.74-.27,5.53,.03,8.26-.81-3.15-.43-6.26-1.02-9.39-1.53-.4-.08-.91,.17-1.14-.39Z"/>
        <path class="cls-7" d="M92.13,31.19c-1.77-1.88-3.89-3.12-6.48-3.32-2.28-.18-4.57-.06-6.83,.44-2.7,.59-5.4,1.22-8.12,1.77-.98,.2-1.99,.37-3.01,.32,.76-.96,1.54-1.87,2.93-1.86,.42,0,.83-.13,1.25-.22,3.9-.76,7.7-1.95,11.65-2.46,.1-.01,.19-.04,.29-.07,2.08-.48,2.17-.61,1.85-2.69,.38,0,.56,.3,.81,.51,1.77,1.54,3.53,3.09,5.3,4.63,.06,.07,.12,.14,.18,.21-.02,.92,.34,1.81,.18,2.74Z"/>
        <path class="cls-10" d="M91.95,28.46c-.06-.07-.12-.14-.18-.21-.14-.59-.27-1.17-.41-1.76,.07,0,.14-.01,.21-.02,.92,1.14,2.16,1.56,3.58,1.59-.66,1.11-1.72,1.24-3.2,.4Z"/>
        <path class="cls-25" d="M92.37,42.24c.07-.07,.13-.13,.2-.2,.14,.04,.39,.04,.3,.23-.13,.28-.34,.15-.49-.04Z"/>
        <path class="cls-19" d="M58.42,12.45c.17-.2,.36-.36,.68-.28-.08,.48-.45,.2-.67,.29,0,0,0,0,0,0Z"/>
        <path class="cls-19" d="M60.99,53.09c.21,.29,.45,.14,.7,.07,2.79-.77,5.62-1.41,8.48-1.89,2.37-.4,4.74-.81,7.15-.92,.37-.02,.73-.33,1.38,.06-2.72,.52-5.22,1.01-7.63,1.82,.2,.2,.59-.05,.77,.26-5.36,.53-10.06,3.05-14.93,5.02-.6,.25-1.21,.5-1.81,.75-.06-.44,.27-.65,.54-.87,1.78-1.44,3.56-2.86,5.35-4.29Z"/>
        <path class="cls-19" d="M74.42,52.5c.63-.39,1.29-.11,1.95-.05-.35,.04-.71,.07-1.06,.11-.3-.02-.59-.04-.89-.06Z"/>
        <path class="cls-19" d="M54.86,58.39c.08-.05,.16-.09,.24-.14-.04,.12-.12,.15-.24,.14Z"/>
        <path class="cls-19" d="M76.98,47.39c-.04,.4-.3,.5-.66,.59-3.44,.85-6.84,1.86-10.2,2.98-.99,.33-1.95,.73-2.91,1.13-.34,.14-.68,.24-1.04,.2,.78-.95,1.78-1.65,2.76-2.37,.39,0,.77-.02,1.16-.15,2.1-.69,4.23-1.24,6.38-1.75,.85-.2,1.74-.11,2.55-.47,.65-.09,1.3-.28,1.97-.17Z"/>
        <path class="cls-25" d="M75.01,47.56c-.81,.37-1.7,.27-2.55,.47-2.15,.51-4.28,1.06-6.38,1.75-.39,.13-.76,.15-1.16,.15,.73-.59,1.46-1.18,2.18-1.77,.68-.05,1.47,.13,1.78-.77,2.04,.02,4.09-.15,6.12,.17Z"/>
        <path class="cls-19" d="M68.89,47.39c-.31,.9-1.09,.73-1.78,.77,.44-.6,1.03-.88,1.78-.77Z"/>
        <path class="cls-19" d="M59.02,39.29c1.89-2.03,3.78-4.07,5.66-6.1,.16,1.28,.56,2.49,1.07,3.67-1.94,.53-3.8,1.25-5.63,2.06-.36,.16-.68,.41-1.11,.37Z"/>
        <path class="cls-7" d="M85.24,22.72c.21,.05,.35,.19,.43,.39-.08,0-.16,.01-.24,.02-.1-.12-.31-.19-.19-.41Z"/>
        <path class="cls-10" d="M52.49,43.02c.08-.16,.23-.2,.39-.21,0,0,.03,.03,.03,.03-.09,.15-.23,.19-.4,.2l-.02-.02Z"/>
        <path class="cls-10" d="M51.71,43.63c.07-.05,.14-.1,.21-.15,.06,.24-.15,.09-.22,.14h0Z"/>
        <path class="cls-7" d="M84.9,22.66c.16-.18,.28-.13,.37,.07-.15,.13-.25-.02-.37-.07Z"/>
        <path class="cls-19" d="M58.82,39.48c.07-.06,.14-.13,.2-.19-.07,.06-.14,.13-.2,.19Z"/>
        <path class="cls-10" d="M52.51,43.04s-.07,.05-.1,.08c.03-.03,.05-.07,.08-.1,0,0,.02,.02,.02,.02Z"/>
        <path class="cls-10" d="M51.71,43.62l-.04,.08s.03-.05,.04-.08c0,0,0,0,0,0Z"/>
        <path class="cls-19" d="M59.79,23.6l8.22-2.12v.64l-9.58,5.02,8.13-.87-4.39,4.59,2.76-1-1.38,3.38-3.58,3.98,6.93-3.65,5.1,2.09-4.89,6.09s8.74-.79,8.28-.64-8.49,4.37-8.49,4.37h2.68l-13.54,5.25,8.9-1.93-8.25,3.76,6.15-.32-9.01,6.03v.66l-13.97,7.78-1.28-25.3,10.03-16.62,11.2-1.18Z"/>
        <circle class="cls-6" cx="82.57" cy="32.37" r="15.68"/>
        <path class="cls-2" d="M41.29,74.08s.03,.02,.05,.03t-.05-.02v-.02Z"/>
        <path class="cls-2" d="M46.57,69.93c.06,.16,.14,.33,.2,.48-.23,.02-.47,.03-.7,.05v-.02c-.06-.08-.14-.16-.2-.23,0-.03-.02-.05-.02-.08l.71-.2Z"/>
        <path class="cls-2" d="M63.26,82.54v.02h-.03v-.02h.03Z"/>
      </g>
      <g>
        <path class="cls-13" d="M38.74,.53c2.2-.53,4.45-.19,6.68-.34,.88-.06,1.77,.17,2.64-.17-3.12,.02-6.24,.05-9.35,.07-.45,.04-.9,.08-1.35,.12-.02,.11-.04,.21-.05,.32,.28,.02,.57,.05,.85,.07,.2-.02,.39-.05,.59-.07Z"/>
        <path class="cls-13" d="M43.55,1.06c0-.08,0-.16,.02-.23-1.31-.33-2.61-.59-3.87,.18,1.28,.02,2.57,.03,3.85,.05Z"/>
        <g>
          <polygon class="cls-24" points="20.83 39.49 31.89 60.74 25.45 67.45 16.98 69.04 12.49 58.76 19.09 44.27 20.83 39.49"/>
          <path class="cls-15" d="M38.15,.6c.2-.02,.39-.05,.59-.07,.19,.43,.48,.64,.96,.48,1.28,.02,2.57,.03,3.85,.05,3.3,.7,6.56,1.53,9.78,2.54,.22,0,.43,.02,.65,.02,3.44,2.44,5.66,5.84,7.61,9.48-.02,.2,.02,.36,.24,.42h0c.18,.96,.35,1.92,.53,2.89,.8,5.58,.23,11.26,1.33,16.81-.09,.28-.17,.57-.26,.85-.1-.35-.2-.7-.37-1.28-.67,1.76-.23,3.29-.06,4.82-.18,.69-.35,1.38-.53,2.07-.65-.05-.42,1.13-1.22,.88,.64-1.05,.97-2.16,.98-3.42,0-.72-.29-.66-.77-.83-.91-.33-.61,.51-.62,.68-.09,1.09-.63,2.18-.12,3.29-1.02,.03-.64,.9-.54,1.24,.4,1.36-.43,2.25-1.05,3.25-.2-2.1,.41-4.12,.57-6.18,.13-1.67,.44-3.33,.66-5,.04-.31,.17-.88-.09-.9-1.28-.09-1.11-1.17-1.35-1.9-.31-.94-.88-1.33-1.85-1.34-1.44-.02-2.89-.12-4.33-.19,.03-.13,.07-.25,.1-.38,.29,0,.58,.01,.86,.02,.43,.2,.87,.13,1.31,.08h1.94c-.47-.81-.89-1.45-1.53-1.92-1.35-1.17-2.99-1.21-4.61-1.05-.94,.09-1.84,.2-2.77,.04,0-.46,.14-.86,.55-1.12,2.41-.82,4.76-.7,7.04,.45,.4,.68,.95,1.32,1.16,2.06,.5,1.74,1.84,1.94,3.5,2.18-.74-1.14-.57-2.26-.72-3.34-.17-1.26,.63-2.74-.74-3.77,1.09-1.7-.73-2.77-.95-4.2-.25-1.55-1.37-2.83-2.15-4.2-.17-.31-.5-.4-.84-.4h-.04c-.03-.19-.16-.22-.33-.18-1.08-.43-2.17-.83-3.01-1.68,.45-.4,1.16-.29,1.57-.79l1.08-.14c.41,0,.82,0,1.22,.01,.82,0,1.57,.66,2.59,.2-.74-.41-1.41-.77-2.07-1.14-1.01-.43-2.11,.14-3.54-.42,2.05-.44,3.66,.37,5.53,.3-.41-.38-.67-.62-.92-.86-.32-.06,.39-.6-.29-.56-.69,.05-1.4-.06-2.1-.1-.02-.38,.28-.38,.53-.45h1.03c-.6-.52-1.1-.61-1.63-.63-.37-.3-.55-.13-.62,.27-.49,.2-.85-.19-1.28-.28-.12-.44,.52-.53,.41-1.1-.48,.9-1.17-.67-1.66,.3-2.47,.02-3.72,.83-4.43,2.86-2.29,.33-4.57,.7-6.89,.26,.23-.24,.46-.51,.35-.87-.85-2.73,.23-4.81,2.49-6.81-3.3,1.3-3.21,4.1-3.73,6.58-.31-1.62-.11-3.18,.22-4.72,.12-.58-.16-.34-.39-.33-.19-.44,.26-1.25-.36-1.34-.78-.12-1.57,.22-1.95,1.06-.08,.17-.15,.33-.23,.5h0c-.77-.05-.41,1.03-1.08,1.09-.2-.35,.47-.62,.03-1.06-.6,.3-.4,1.05-.83,1.52-.05-.54-.1-1.03-.16-1.59-.78,.3-.53,1.27-1.15,1.64-.48-.38-.52-1.16-1.21-1.36-.18,.47,.38,.86,.12,1.39-1.1-.1-2.24-.73-3.7,.04,1.21,.07,2.3-.23,2.96,.92-1.96,.06-3.99-.18-5.09,1.92-.71,.63-1.69,.94-2.16,1.73,.04,.76,1.26-.79,.92,.6-1.35,.39-1.33,1.66-1.68,2.7,.44,.03,.89,.06,1.36,.09,.11,.36-.27,.43-.37,.67-.16,.41,0,.71,.29,1,.45,.44,.63-.05,.88-.25,1.06-.85,2.1-1.7,3.31-2.33,1.18-.62,2.41-.98,3.76-.71-.02,.56-.44,.42-.72,.45-1.81,.21-3.35,1.08-4.87,2-.26,.16-.6,.35-.4,.77,.28,.59,.68,.16,.9,.02,1.11-.67,2.32-1.05,3.52-1.5,.84-.31,1.63-.27,2.27,.46-.52,.65-1.3,.95-1.96,1.41-.07-.03-.13-.07-.2-.1-.02,.12-.05,.24-.07,.35h0c-.56-.03-.65,.45-.87,.79-.57,.3-1.13,.59-1.7,.89-1.06,.45-2.29,.64-2.9,1.87,.85-.57,1.7-.54,2.56-.12-.1,0-.14,.06-.14,.16-.43,.05-.25,.37-.26,.6-.18,.1-.49,.22-.02,.32,.25,.05,.53,0,.79-.01-.05,.45-.48,.51-.75,.73-1.07,.85-2.29,1.6-1.55,3.33,.13,.3,.29,.89-.24,1.2-.09-.59-.19-1.18-.3-1.88-.77,.57-1.44,1.07-2.12,1.58,0,.09,.01,.18,.02,.27,.05-.03,.09-.06,.14-.09-.06-.06-.12-.12-.18-.18,.38,.2,1.25-.14,.92,.87-.09,.27,.03,.31,.97,.37-.7,.71-.48,.99,.42,1.32,1.16,.43,2.16-.05,3.23-.19,1.13,.07,2.25,.14,3.38,.21,.19,.03,.37,.06,.56,.09-.3,.1-.59,.19-.89,.29-.41,0-.83,0-1.24,.02-1.46,.09-2.89,.25-2.94,2.22-.09,.13-.18,.26-.26,.39-.61,.3-1.04-.12-1.52-.37-1.47-.76-1.54-.75-1.59,.9-.03,1-.42,.46-.78,.3-.36-.56-.72-1.12-1.08-1.68,.09-1.34-.59-1.69-1.87-1.94-3.85-.76-4.24-.54-4.51,3.42-.03,.46-.1,.93-.16,1.39-.09,.01-.19,.02-.28,.02-.1-.09-.19-.19-.29-.28-.1-.09-.19-.18-.29-.28-.09-.09-.19-.18-.28-.27-.07-.31-.27-.49-.57-.56-.02-.27-.05-.54-.07-.8,.03-.28,.06-.56,.09-.84,.54-2.45,1.36-4.82,2.09-7.22,.13-.43,.15-.94,.08-1.39-.34-2.37,.43-4.47,1.5-6.51,.24-.45,.55-.88,.5-1.43,3.42-3.91,7.4-7.18,11.65-10.12,1.35-.94,2.95-1.65,4.73-1.51,.37,.01,.72,0,.8-.47,.19-.02,.39-.04,.58-.06,.61,.25,1.23,.6,1.65-.27Zm-15.23,15.97c-.3,.19-.59,.4-.73,.88,.51-.06,.73-.33,.86-.73,.17-.12,.35-.23,.52-.35,.05-.06,.16-.16,.15-.17-.11-.16-.2-.05-.28,.04-.17,.11-.34,.22-.52,.32Zm35.56-3.14c.05-.33-.22-.11-.32-.19-.09-.07-.19-.14-.28-.22-.07,.32,.2,.13,.3,.2,.1,.07,.21,.14,.31,.2Zm-36.61,4.36c-.16-.12-.34,.2-.41,.42-.1,.18-.21,.37-.31,.55-.22,.21-.41,.42-.38,.79,.44-.04,.47-.36,.57-.62,.11-.17,.22-.35,.33-.52,.13-.19,.54-.36,.2-.61Zm37.29-4.12s0,.07,.02,.08c.03,.02,.07,.03,.11,.04,.17,.36,.43,.58,.85,.56,.03,.04,.07,.09,.1,.13,0-.02,0-.06-.02-.07-.03-.02-.06-.03-.1-.05-.16-.37-.43-.57-.84-.57-.04-.04-.09-.08-.13-.13Zm1.47,13.43c.05,.41,.16,.79,.68,1.08,.06-.61-.22-.92-.56-1.2-.09-.1-.18-.19-.27-.29-.06-.33,0-.73-.49-.85-.06,.41,.15,.69,.38,.96,.08,.1,.17,.2,.25,.3Zm-35.28-5.96c-1.17,.18-1.52,1.11-2.2,1.57l-.54,.27c.27,.25,.47,.06,.68-.1,.99-.1,1.51-.76,2.05-1.75Zm-3.56-8.6c-1.22,1.43-2.83,2.59-3.13,4.61-.09,.36-.26,.72-.26,1.08,.02,1.92,1.02,3.75,.38,5.74,.76-2.61,1.56-5.18,1.39-7.92,.54-1.17,1.07-2.34,1.61-3.51Zm27.51-7.54c-.07-.31,.23-.16,.34-.17,.78-.02,1.57,0,2.35-.12-.9-.35-1.82-.24-2.73-.24-.53,0-.75,.3-.71,.82-.42,.03-.83,.05-1.37,.09,.2-.33,.33-.56,.6-1.02-1.95,1.21-3.54,2.37-4.7,4.14-.43-.97,.43-1.72,.09-2.55-.6,.15-.45,.87-.99,1.05-.13-.75,.39-1.38,.51-2.42-1.05,1.37-1.42,2.65-1.74,3.96-.16,.65,.13,.84,.73,.75,1.1-.15,2.21-.22,3.31-.04,.53,.09,.75-.32,1.01-.61,1.13-1.21,2.34-2.33,3.67-3.32-.14-.11-.36-.21-.39-.34ZM15.89,26.74c-.53,1.41-.91,2.82,0,4.61,0-1.78,0-3.19,0-4.61Zm44.87-2.99c.05,.81,.53,1.19,1.2,1.36-.4-.45-.8-.91-1.2-1.36Zm-4.92-11.22c.32,.48,.76,.38,1.59,.33-.77-.21-1.08-.53-1.59-.33Z"/>
          <path class="cls-8" d="M69.81,76.65c.08-4.53-.25-9.03-1.41-13.36-1.37-5.01-1.78-9.99-1.18-15.14,.57-4.92-.09-9.82-.71-14.69-.5-3.89-1.24-7.74-2.14-11.58-.08-.26-.2-.53-.29-.78,.02-.09,.02-.17-.03-.25-.19-1.78-.85-3.46-1.23-5.21-.08-.33-.28-.65-.11-1.01,0-.02,0-.03,.02-.05,0,0,.02,0,.02,.02,.73,.48,1.01,1.27,1.37,2,2.48,5.01,3.26,10.41,3.66,15.9,.51,7.15,.67,14.34,1.51,21.44,1.01,8.63,1.55,17.25,2.19,25.9,.06,.76,.39,1.32,.81,1.89,.47,.62,.92,1.26,1.37,1.88l-9.88,2.78c.02-.64,.12-1.26,.34-1.91,0-.02,.02-.02,.02-.03,.88-.57,1.54-1.41,2.2-2.2l.03-.03s.02,0,.02-.02c2.2-1.19,3.41-2.89,3.46-5.55Z"/>
          <path class="cls-13" d="M61.3,84.54c-.7-1.24-1.13-2.64-1.68-3.97-.19-.43-.37-.87-.56-1.29-.4-1.43-.82-2.82-1.72-4.03,.02,1.21,1.1,2.08,1.02,3.32,.08,.36,.16,.71,.22,1.07,.08,.19,.4,.42,.11,.54-.23,.09-.62-.05-.51-.5h-.87v.03c.02,.37,.64,.34,.5,.98-1.55-.85-3.07-1.69-4.58-2.51-1.13-.57-2.25-1.13-3.38-1.69-1.12-.47-2.23-.93-3.35-1.4-3.07-1.26-6.14-2.53-9.22-3.79-1.07-.43-2.14-.85-3.23-1.29-.25-.12-.5-.25-.74-.39-.11,.11-.98-.28-.26,.34,1.77,1.52,3.6,2.98,5.42,4.45-.05-.45-.09-.88-.17-1.6,1.91,1.44,3.69,2.7,5.35,4.08,2.56,2.13,5.04,4.2,8.72,4.03,1.15-.06,2.54,.06,3.54,1.01h.02c.31,.02,.62-.03,.84,.28l.02,.02c.61,.06,1.24,.05,1.61,.67,.23-.11,.45-.08,.62,.16l.02,.02c.73-.09,.88,.5,1.18,.98,.57,.95,1.07,1.92,1.49,2.93l.68-.2c-.31-.76-.67-1.51-1.07-2.25Zm-3.18-3.99c.53,.03,.88,.12,1.06,.7-.51-.03-.84-.19-1.06-.7Zm.19,2.39s.06-.03,.08-.03l-.05-.03-.03,.06Zm-.96-7.76l-.03,.02s.02,.02,.03,.03v-.05Z"/>
          <path class="cls-8" d="M77.04,99.97l-.03,.02v-.02h.03Z"/>
          <path class="cls-18" d="M38.74,.53c.19,.43,.48,.64,.96,.48,1.26-.77,2.56-.51,3.87-.18,3.42-.04,6.95-.48,9.6,2.47,.08-.08,.16-.16,.24-.24-1.46-1.59-2.88-3.24-5.36-3.05-.86,.34-1.76,.11-2.64,.17-2.22,.16-4.47-.18-6.68,.34Z"/>
          <path class="cls-8" d="M77.04,99.97v.02h-.03l.03-.02Z"/>
          <path class="cls-13" d="M64.04,20.86c-.19-1.79-.86-3.46-1.23-5.21-.07-.35-.29-.69-.09-1.06,0,0,0,.04,0,.04-.41-.02-.23-.34-.27-.55-.06-.35-.23-.57-.62-.57,.18,.97,.35,1.94,.53,2.91,.04-.03,.07-.07,.11-.08,.04-.01,.12,0,.12,.02,.22,.74,.24,1.54,.43,2.25,.21,.76-.32,1.97,1.02,2.25Z"/>
          <path class="cls-18" d="M53.33,3.61c.22,0,.43,.02,.65,.02-.1-.28-.3-.46-.57-.56-.08,.08-.16,.16-.24,.24,.05,.1,.11,.2,.16,.3Z"/>
          <path class="cls-8" d="M62.44,14.08c.05,.21-.14,.53,.27,.55,.18-.32-.1-.4-.27-.55Z"/>
          <path class="cls-13" d="M61.59,13.1c-.02,.2,.02,.36,.24,.42,.05-.21-.07-.33-.24-.42Z"/>
          <path class="cls-18" d="M57.32,75.2c.91,1.22,1.34,2.64,1.75,4.07,3.06-1.21,5.06-3.31,5.62-6.63-.44-4.58-.31-9.16-.16-13.74,.28-8.57,.4-17.14-.86-25.66-.09,.28-.17,.57-.25,.85,.12,1.21,.21,2.42-.42,3.54-.18,.69-.35,1.38-.53,2.07-.17,2.83-.35,5.64-3.63,6.82-.16,.06-.26,.38-.33,.59-.92,2.9-2.86,5.07-4.96,7.15-.49,.6-.9,1.29-1.55,1.75-.45,.9-.9,1.8-1.35,2.71-.23,2.79-1.02,5.38-2.6,7.72,.16,.1,.32,.19,.48,.29,1.51,1.61,3.04,3.21,4.4,5.34-1.83-.67-3.37-1.26-4.94-1.8-1.58-.54-3.18-1.04-4.76-1.55-.76,.05-1.48-.16-2.11-.51-.86-.48-.13-.53,.24-.64-.29-.22-.45-.67-.94-.53-.04,1.36-.52,.29-.95,.33-1.98,.19-3.56-.89-5.33-1.27-1.85-.39-3.64-1.06-5.82-1.72,1.44-.21,2.38,.6,3.42,.33-.03-.83-.91-1.42-.47-2.18,.38-.64,.11-1.14-.01-1.73-.2-.95-1.06-1.47-1.45-2.3,2.15,1.72,4.43,3.19,6.81,4.5-.64-1.26-2.03-1.66-2.97-2.56-1.95-1.34-3.91-2.67-5.86-4.01,.41,1.03,1.16,1.91,1.43,3.01,.65,1.42,.27,2.68-.58,3.87,0,0,0,.08,0,.08l-.07,.03c-.05,.07-.1,.14-.15,.21-.31,.74-.63,1.48-.94,2.23,.85,1.06,2.21,.94,3.31,1.42,.52,.23,1.26,.05,1.47,.82,2.89,.51,5.53,1.74,8.19,2.9,1.5,.39,2.94,.94,4.33,1.63,.39,.23,1.15,.01,1.02,.86,0,0,0,0,0,0,.1,.07,.2,.15,.29,.22,.07,.06,.14,.07,.22,.05,.21-.11,.42-.21,.63-.32,1.65,.43,3.23,1.06,4.77,1.76,2.39,.78,4.46,2.21,6.66,3.35,.08-1.26-1.06-2.14-1.03-3.38-.32-.09-.24-.37-.27-.59-.57-.28-.74-.81-.86-1.37-.42-.26-.56-.67-.56-1.14-1.64-4.22-2.12-8.73-3.3-13.07,.22,.26,.36,.54,.48,.84,.95,2.26,1.1,4.72,1.66,7.07,.41,1.72,1.04,3.39,1.15,5.17,.19,.38,.38,.76,.56,1.14,.29,.46,.58,.92,.86,1.37,.09,.2,.18,.39,.27,.59Z"/>
          <path class="cls-13" d="M14.51,66.17c0-.2-.13-.25-.29-.28-.11-.24-.31-.3-.55-.29-.1-.23-.31-.29-.53-.32-.14-.24-.36-.27-.61-.23-.11-.32-.29-.54-.7-.46,.1,.39,.41,.42,.7,.46,.1,.24,.3,.3,.53,.32,.13,.24,.35,.27,.58,.26,.1,.29,.33,.3,.58,.27-.01,.2,.12,.26,.28,.29,.2,.18,.39,.37,.59,.55,.13,.69-.41,.82-1,.98,.24,.17,.39,.28,.54,.37,.51,.3,.62,.84,.31,1.19-.42,.47-.69-.16-.97-.39-1.34-1.08-2.65-2.17-3.98-3.26,.09-.09,.19-.19,.28-.28,.03-.02,.07-.04,.1-.06-.04,.02-.07,.03-.11,.05-.09,.09-.19,.19-.28,.28-1.83-1.2-3.02-2.84-3.39-5.03,.03-.46,.05-.93,.08-1.39,.33-.48,.62-.97,.43-1.67-.51,.49-.51,1.04-.54,1.58-.09,.01-.18,.03-.28,.05-.28-1.44-.79-2.82-.28-4.36,1.87-5.74,4.77-10.98,7.53-16.3,.2-.39,.41-.75,.91-.78,1.34,2.27,2.33,4.7,3.39,7.09-.01,.06-.03,.12-.03,.18,0,.02,.07,.03,.1,.04,0,0,0,0,0,0,.61,2.23,1.44,4.44,1.07,6.82-.42,2.69-.19,5.4-.24,8.1-.75,.51-1.5,1.03-2.24,1.54-.26-.37-.53-.74-.87-1.22-.47,.7-.24,1.34-.27,1.95-.58,.75-1.06,.6-1.69-.03-1.23-1.23-2.37-2.58-3.78-3.63-.09,.07-.18,.15-.27,.22,1.34,1.75,2.61,3.57,4.05,5.23,.62,.72,1.02-.47,1.61-.57,.02,.91,.04,1.81,.06,2.72-.28,0-.57,0-.85,0Zm-5.87-12.91c.11-.27,.22-.54,.33-.81,.27-.26,.48-.55,.47-.98-.56,.07-.5,.53-.62,.86-.26,.21-.29,.5-.32,.81-.09,.19-.19,.38-.28,.57-.1,.19-.2,.37-.3,.56-.16,.23-.35,.55-.04,.7,.14,.07,.16-.35,.21-.56,.09-.19,.18-.38,.27-.57,.09-.19,.18-.38,.27-.57Zm-.8-1.35c.23,.13,.2-.17,.27-.31,.09-.19,.18-.39,.27-.58,.29-.42,.55-.85,.53-1.39,.26-.26,.31-.57,.25-.92,.34-.06,.29-.32,.29-.56,.28-.1,.28-.33,.28-.56,.26-.11,.28-.33,.28-.57,.24-.11,.29-.32,.29-.55,.07-.1,.15-.2,.22-.31-.05-.03-.11-.07-.16-.1-.03,.13-.06,.26-.09,.38-.28,.11-.28,.34-.26,.58-.32,.07-.3,.31-.29,.56-.3,.09-.28,.33-.28,.57-.27,.1-.28,.33-.28,.57-.31,.19-.26,.53-.36,.81-.36,.39-.51,.86-.56,1.37-.1,.19-.2,.37-.29,.56-.14,.13-.27,.36-.1,.45Zm3.22-3.78c-.05-.03-.11-.06-.16-.09-.02,.13-.05,.26-.07,.38-.19,0-.25,.13-.27,.29-.3,.21-.33,.51-.29,.84l-.23,.26s.1,.08,.14,.11c.03-.12,.06-.24,.09-.37,.35-.2,.32-.52,.28-.85,.2,.02,.26-.11,.29-.27,.07-.1,.14-.21,.21-.31Zm.63-1.67c.29-.06,.29-.34,.4-.53,.08-.18,.15-.36,.23-.54,.1-.19,.19-.37,.29-.56,.18-.38,.36-.76,.54-1.15,.14-.12,.3-.34,.12-.43-.22-.13-.19,.19-.27,.31-.32,.31-.51,.68-.55,1.13-.08,.2-.17,.39-.25,.59-.09,.18-.17,.35-.26,.53-.21,.17-.26,.39-.25,.65-.26,.1-.29,.32-.3,.55-.07,.1-.14,.2-.2,.3,0,0,.09,.07,.14,.11,.04-.12,.08-.24,.12-.36,.26-.13,.27-.36,.24-.6Zm2.81-5.8c-.29-.17-.29,.19-.35,.38-.09,.19-.18,.38-.27,.57-.24,.27-.41,.58-.43,.97,.59-.03,.47-.52,.57-.85,.1-.19,.2-.37,.3-.56,.16-.15,.41-.39,.18-.52Zm-7.96,13.96c.73-.52,1.01-1.24,.93-2.18-.31,.73-.62,1.45-.93,2.18Zm.76,2.49c.31-.53,.49-.93,.39-1.64-.42,.54-.62,.94-.39,1.64Z"/>
          <path class="cls-13" d="M58.01,82.88c-.43-.17-.92-.25-1.24-.64l-.02-.02c-.31-.02-.62,.03-.84-.28h-.02c-.96,.17-.43,.74-.26,1.15,.43,.95,.9,1.88,1.44,2.98-3.55-.73-6.59-1.97-9.36-3.88-.74,.17-1.29-.28-1.88-.57-2.33-.05-3.85-1.66-5.6-2.84-1.43-.95-2.75-2.03-4.31-2.78l-.06,.08c.05,1.1,.95,1.72,1.58,2.39,1.26,1.35,2.02,2.82,2.06,4.67,.05,1.78,.26,3.57,.47,5.35h7.01c-.53-.25-1.06-.51-1.58-.78,.76,.28,1.54,.51,2.3,.78h2.48c-.51-.2-1.04-.4-1.55-.61-1.19-.47-2.39-.95-3.58-1.41,.05-.11,.09-.22,.14-.33,.48,.17,.95,.36,1.41,.53,1.6,.61,3.18,1.21,4.78,1.82h4.95l2.79-.79c-.39-1.6-1.16-3.12-1.12-4.83Z"/>
          <path class="cls-13" d="M27.47,65.86c.31-.74,.63-1.48,.94-2.23,0-.1,.06-.17,.15-.21l.07-.03s0-.08,0-.08c.07-.45,.14-.9,.24-1.49-1.24,.59-2.37,1.12-3.57,1.69,1.94,.97,1.9,.94,.99,2.78-.45,.92-.96,1.18-1.85,.61-.43-.28-.91-.49-1.44-.49-.06,.05-.13,.1-.19,.14-.21,.16-.41,.15-.6-.03-.07-.05-.14-.11-.21-.16-.27,.07-.53,.16-.79-.03,.26-.24,.52-.09,.77-.01,.06-.07,.13-.14,.19-.21-1.01-.47-1.95-1.21-3.18-.78,.47,.25,.93,.49,1.68,.88-1.1-.09-1.84-.29-2.55-.61-2.06,.72-2.17,2.47-2.24,4.24,2.7,1.71,5.41,3.41,8.39,5.29h-1c1,1.3,2.66,.89,3.92,1.51,.12-.43,.36-.69,.85-.57,1.26-.71,2.3-.22,3.27,.61,.63,.54,1.27,1.08,1.91,1.62,.25,.21,.58,.44,.85,.1,.2-.26-.12-.49-.28-.71-1.27-1.77-2.51-3.57-3.81-5.32-.4-.55-.43-1.07-.28-1.67-.18-.1-.37-.2-.55-.29l-.09-.06,.04-.04,.05,.1c.19,.09,.38,.18,.57,.27,1.42,.68,2.4,2.04,3.92,2.57l.04-.04c-.19-.59-1.11-.75-.94-1.56-.1-.01-.16,.03-.16,.13-.37-.08-.55-.34-.59-.7-1.25-1.27-2.74-2.22-4.19-3.22-.91-.63-1.06-1.19-.33-1.99Z"/>
          <path class="cls-18" d="M14.44,31.33c-1.01-.34-1.35-1.67-2.55-1.72,.03-.06,.06-.13,.09-.19-.04-.02-.07-.03-.11-.05,.02,.07,.03,.15,.05,.22,.73,1.09,1.17,2.3,1.55,3.54-.33-.07-.67-.14-1-.21-.35-.9-.68-1.82-1.06-2.71-1.31-3.05-1.1-5.97,.63-8.81,1.88-3.08,4.18-5.81,6.69-8.38,.05,.55-.26,.98-.5,1.43-1.08,2.04-1.84,4.14-1.5,6.51,.06,.45,.05,.96-.08,1.39-.73,2.4-1.55,4.77-2.09,7.22,0-1.19-.02-2.39-.02-3.58,.38-1.68,.38-3.44,1.04-5.07-1.03,1.11-1.05,2.54-1.3,3.9-.22,1.63-.39,3.26-.34,4.9,0,.29-.34,1.01,.54,.69,.02,.27,.05,.54,.07,.8-.04,.04-.07,.08-.11,.12Zm-2.13-7.31c-.35,1.21-.57,2.45-.88,3.67-.14,.55-.17,1.17,.46,1.23,.66,.06,.31-.63,.36-.97,.4-3.11,1.27-6.05,2.85-8.78-1.5,1.29-2.26,3.02-2.79,4.85Z"/>
          <path class="cls-13" d="M29.21,59.44c-.27-1.1-1.02-1.98-1.43-3.01-.4-.39-.73-.83-.86-1.4-.74-1.47-1.48-2.93-2.23-4.4-.92-.26-1.65-.95-2.62-1.08-.57,1.2,1.5,1.72,.72,3.03-.65-.74-1.28-1.47-1.91-2.19-.58,1.29,.13,2.53,.24,3.77,.23,2.72,1.82,4.98,3.2,7.27,.03-.04,.07-.07,.1-.1,.05-.27,.15-.55,.13-.82-.16-2.26-.12-2.33,2.37-3.53-.41,1.22-.76,2.27-1.12,3.32,.54,.29,.91-.02,1.27-.15,1.58-.57,1.58-.59,2.02,1.17,.05-.78,.08-1.33,.11-1.88Z"/>
          <path class="cls-18" d="M11.99,33.8C8.02,42.01,4.05,50.22,.08,58.43c-.04,.08-.04,.17-.08,.35,1.64-.5,2.8-1.24,3.48-2.99,2.83-7.27,5.84-14.47,8.79-21.69-.09-.1-.19-.2-.28-.3Z"/>
          <path class="cls-8" d="M11.99,33.8c.09,.1,.19,.2,.28,.3,.32-.44,.46-.25,.63,.14,.53,1.16,1.21,2.24,1.56,3.48,1.34,2.27,2.33,4.7,3.39,7.09,.04,.07,.07,.14,.07,.23,0,0,0,0,0,0,.98,1.79,1.97,3.58,2.95,5.37,.63,.72,1.26,1.45,1.91,2.19,.78-1.32-1.29-1.84-.72-3.03-.59-1.04-.98-2.14-1.41-3.49,1.1,.78,2,1.41,2.9,2.04,.07-.17,.14-.34,.22-.51-.97-.22-1.23-1.18-1.86-1.74-1.2-1.08-2.55-1.98-3.83-2.98-.32-.25-.67-.53-.19-.96-1.11-1.49-1.69-3.19-1.98-5.01,0-.1,.01-.2,.02-.31-.03-.17-.06-.34-.09-.51-.1-.09-.21-.19-.31-.28-.7-.64-2.07-.82-1.53-2.29-.18-.12-.36-.25-.54-.37-.33-.07-.67-.14-1-.21-.16,.29-.33,.58-.49,.86Z"/>
          <path class="cls-8" d="M27.47,65.86c-.72,.81-.58,1.36,.33,1.99,1.45,1,2.95,1.95,4.19,3.22,.27,.17,.7,.21,.59,.7,0-.1,.06-.15,.16-.13,4.44,3.23,8.8,6.57,13.1,9.98,.6,.29,1.14,.75,1.87,.57-3.09-2.59-6.17-5.18-9.26-7.77-1.81-1.48-3.65-2.93-5.42-4.46-.7-.61,.16-.23,.27-.33,.04-.05,.08-.09,.11-.14-.79-.65-2-.56-2.72-1.54,.58-.03,1.03,.4,1.53,.15-.21-.77-.95-.59-1.47-.82-1.1-.48-2.46-.36-3.31-1.42Z"/>
          <path class="cls-8" d="M15.39,62.23c-.58,.75-1.06,.6-1.69-.03-1.23-1.23-2.37-2.58-3.78-3.63-.09,.07-.18,.15-.27,.22,1.34,1.75,2.61,3.57,4.05,5.23,.62,.72,1.02-.47,1.61-.57,.56-.41,1.13-.83,1.69-1.24,.81-.44,1.31-1.39,2.35-1.44,2,.35,3.32,1.72,4.78,3.52-1.14-3.1-3.38-4.78-5.36-4.33-.75,.51-1.5,1.03-2.24,1.54-.34,.31-.67,.63-1.13,.73Z"/>
          <path class="cls-8" d="M38.22,88.49c-.08,.25-.17,.51-.25,.78-.03-.26-.06-.51-.08-.78-.26-2.41-.51-4.81-.73-7.2-.06-.7-.33-1.24-.76-1.75-1.21-1.46-2.39-2.93-3.58-4.39,.09-.08,.19-.17,.28-.25,1.57,1.77,3.15,3.52,4.69,5.31,.14,.16,.09,.45,.11,.68,.11,2.53,.22,5.06,.33,7.6Z"/>
          <path class="cls-3" d="M51.39,88.49h-1.19c-.51-.2-1.04-.4-1.55-.61-1.19-.47-2.39-.95-3.58-1.41,.05-.11,.09-.22,.14-.33,.48,.17,.95,.36,1.41,.53,1.6,.61,3.18,1.21,4.78,1.82Z"/>
          <path class="cls-13" d="M19.34,60.77c-1.05,.05-1.54,1.01-2.35,1.44,1.02,1.04,1.63,2.7,3.64,2.33-.43-1.25-.86-2.51-1.29-3.77Z"/>
          <path class="cls-24" d="M23.27,75.13h1c-2.98-1.88-5.68-3.59-8.39-5.29-.31,.2-.26,.52-.26,.82,2.1,1.16,4.21,2.32,6.3,3.49,.17,.1,.25,.26,.2,.47,0,0-.01,0-.01,0,.55-.16,.93,.04,1.14,.57l.02-.04Z"/>
          <path class="cls-8" d="M58.4,82.92s-.05,.05-.08,.06c-.02-.02-.02-.05-.02-.05l.03-.06,.05,.03s.02,.02,.02,.02Z"/>
          <path class="cls-8" d="M59.63,87.56l-.5,.14c-.39-1.6-1.16-3.12-1.12-4.83,.11,.08,.2,.16,.31,.11l.03,.08c.42,1.49,.84,3.01,1.27,4.5Z"/>
          <path class="cls-13" d="M22.13,74.61c.05-.21-.03-.37-.2-.47-2.1-1.17-4.2-2.33-6.3-3.49-.2,.41-.28,.76,.26,1.01,2.1,.94,4.04,2.23,6.24,2.95Z"/>
          <path class="cls-8" d="M61.07,87.16l-.73,.2c-.42-.99-.85-1.99-1.21-2.99-.11-.31-.67-.67-.11-1.07,.92,1.13,1.4,2.5,2.05,3.86Z"/>
          <path class="cls-8" d="M28.31,81.38c-1.72,.07-3.11-.97-4.71-1.34,1.37,.12,1.86,1.87,3.41,1.74,.12,0,.34,.91,1.02,.74,.2-.36-.15-.86,.3-1.16v.02Z"/>
          <path class="cls-22" d="M30.58,82.53c.14,.45,.64,.41,.98,.83,.24-1.24,.1-2.29-.4-3.43-.27,.42-.53,.81-.79,1.21,.27,.43,.83,.82,.21,1.39Z"/>
          <path class="cls-13" d="M59.85,87.89v-.02c-.06-.08-.14-.16-.2-.23,0-.03-.02-.05-.02-.08-.43-1.49-.85-3.01-1.27-4.5h.65l.02,.02v.22c-.56,.4,0,.76,.11,1.07,.36,1.01,.79,2,1.21,2.99,.06,.16,.14,.33,.2,.48-.23,.02-.47,.03-.7,.05Z"/>
          <path class="cls-8" d="M30.58,82.53c.62-.57,.06-.96-.21-1.39-.51,1.6-1.37,.2-2.06,.24,0,0,.01-.02,.01-.02,0,.29,.01,.59,.02,.88,.66,.76,1.46,.44,2.24,.29Z"/>
          <path class="cls-8" d="M28.04,76.07c-.49-.12-.73,.14-.85,.57,.78,.58,1.57,1.16,2.61,1.92-.45-1.17-1.31-1.7-1.76-2.49Z"/>
          <path class="cls-12" d="M18.13,65.6c.71,.32,1.45,.52,2.55,.61-.75-.39-1.22-.64-1.68-.88-.32-.01-.66-.06-.87,.28Z"/>
          <path class="cls-18" d="M38.15,.6c-.28-.02-.57-.05-.85-.07-.27,.11-.54,.22-.8,.33,.61,.25,1.23,.6,1.65-.27Z"/>
          <path class="cls-12" d="M6.58,59.1c-.09,.01-.18,.03-.28,.05,.25,.45-.74,1.16,.31,1.44,.03-.46,.05-.93,.08-1.39-.04-.03-.07-.06-.11-.09Z"/>
          <path class="cls-18" d="M35.11,1.4c.37,.01,.72,0,.8-.47-.43-.13-.62,.18-.8,.47Z"/>
          <path class="cls-13" d="M28.34,82.25c0-.29-.01-.59-.02-.88-.45,.3-.1,.8-.3,1.16,.06,.11,.11,.22,.17,.33,.23-.16,.11-.4,.15-.61Z"/>
          <path class="cls-13" d="M23.25,75.17c-.21-.53-.58-.73-1.14-.57,.27,.4,.67,.56,1.14,.57Z"/>
          <path class="cls-3" d="M15.36,66.17c-.28,0-.57,0-.85,0h0c.2,.19,.39,.37,.59,.56,.55,.03,.35-.29,.27-.56Z"/>
          <path class="cls-24" d="M12.54,70.84c.13-.07,.19-.11,.26-.15-.09-.14-.19-.28-.29-.42,0,0-.18,.09-.18,.1,.06,.16,.14,.3,.21,.46Z"/>
          <path class="cls-24" d="M15.63,73.79c.1,.28,.29,.47,.57,.55h0c0-.37-.17-.57-.55-.57l-.02,.02Z"/>
          <path class="cls-24" d="M15.37,73.48c.02-.37-.17-.55-.51-.62l-.1,.1c.12,.26,.3,.46,.58,.55,0,0,.03-.03,.03-.03Z"/>
          <path class="cls-13" d="M23,66.41c-.22-.26-.54-.25-.83-.31-.06,.07-.13,.14-.19,.21,0,0,.02,.05,.02,.05,.07,.05,.14,.11,.2,.16,.2,0,.4,.02,.6,.03,.07-.04,.13-.09,.19-.14Z"/>
          <path class="cls-24" d="M14.59,72.58c-.05-.31-.23-.5-.54-.57-.05,.04-.09,.07-.14,.11,.19,.19,.37,.39,.56,.58,.04-.04,.08-.08,.12-.12Z"/>
          <path class="cls-24" d="M14.05,72.01c-.07-.14-.11-.43-.31-.28-.18,.13,.03,.3,.17,.39,.05-.04,.09-.08,.14-.11Z"/>
          <path class="cls-13" d="M35.94,76c-.14-.2-.34-.27-.58-.26,0,0-.02,.02-.02,.02,.18,.11,.35,.21,.53,.32,0,0,.06-.08,.06-.08Z"/>
          <path class="cls-24" d="M14.86,72.87c-.09-.1-.18-.19-.27-.29-.04,.04-.08,.08-.12,.12,.1,.09,.19,.18,.29,.27,0,0,.1-.1,.1-.1Z"/>
          <path class="cls-13" d="M33.64,73.24s.06,.07,.08,.11c.02-.02,.04-.04,.06-.06-.03-.03-.07-.06-.1-.09,0,0-.04,.04-.04,.04Z"/>
          <path class="cls-24" d="M15.64,73.77c-.09-.1-.18-.19-.27-.29,0,0-.03,.03-.03,.03,.1,.09,.19,.18,.29,.27,0,0,.02-.02,.02-.02Z"/>
          <path class="cls-24" d="M16.2,74.34c.09,.09,.19,.19,.28,.28h0c-.09-.09-.19-.18-.28-.28,0,0,0,0,0,0Z"/>
          <path class="cls-24" d="M16.48,74.62s.09,.08,.14,.12c0-.03,0-.07-.03-.09-.03-.02-.08-.02-.12-.03,0,0,0,0,0,0Z"/>
          <path class="cls-13" d="M35.08,75.46s-.05-.07-.07-.11c.02,.04,.03,.08,.05,.13l.02-.02Z"/>
          <path class="cls-13" d="M35.06,75.48c.09,.09,.19,.19,.28,.28,0,0,.02-.02,.02-.02-.09-.09-.19-.19-.28-.28,0,0-.02,.02-.02,.02Z"/>
          <path class="cls-13" d="M24.32,61.44c.06,.03,.12,.06,.18,.08-.03-.06-.05-.12-.08-.18-.04,.03-.07,.07-.1,.1Z"/>
          <path class="cls-3" d="M48.04,26.05c0-.46,.14-.86,.55-1.12,1.01-1.39,3.53-1.95,4.84-.99-.27-.87-.17-1.64-.12-2.44,.16-2.5,.45-4.98-1.34-7.22-1.33-1.66-3.11-2.45-4.88-3.29-1.78-.85-3.7,.05-5.56-.08-3.15-.21-5.36,1.47-7.36,3.69-2.19,2.42-.99,5.1-.55,7.6,.14,.77,2.1,.4,3.19,.71,.27,.08,.54,.15,.81,.24,1.71,.55,2.06,1.2,1.6,2.93,0,0-.13-.02-.19-.05-.03-.02-.03-.08-.04-.13-2.3-.73-4.6-1.36-6.91-.05-.07,.23-.14,.45-.21,.68l.02,.02c2.18-.21,4.39-.25,6.49,.38,.86,.26,1.44-.5,2.08-.19,1.22,.57,2.38,1.28,2.78,2.73,.79,0,1.59,.02,2.38,.03v-.06s.01,.06,.01,.06c.28,0,.55,0,.83-.01,.17-.52,.23-1.13,.55-1.54,.46-.59-.04-1.66,1.02-1.89Z"/>
          <path class="cls-5" d="M53.55,54.25c2.1-2.08,4.04-4.25,4.96-7.15,.07-.22,.17-.53,.33-.59,3.29-1.18,3.47-3.99,3.63-6.82-.65-.05-.42,1.13-1.22,.88l.02-.02c.22,.54-.03,.91-.45,1.3-.44-.55-.32-1.06-.12-1.59l.02,.02c-1.02,.03-.64,.9-.54,1.24,.4,1.36-.43,2.25-1.05,3.25-.2-2.1,.41-4.12,.57-6.18,.13-1.67,.44-3.33,.66-5,.04-.31,.17-.88-.09-.9-1.28-.09-1.11-1.17-1.35-1.9-.31-.94-.88-1.33-1.85-1.34-1.44-.02-2.89-.12-4.33-.19-.14,.02-.3,0-.4,.08-.16,.12-.04,.21,.1,.24,.49,.11,.99,.2,1.48,.31l.04-.04c.83-.38,.72,.5,.77,.74,.15,.65-.58,.5-.9,.74,.14,.56,.11,1.1,1.06,1.11,1.58,.02,2.23,.81,2.46,2.47,.19-.02,.37-.04,.56-.05,.19-.48,.53-.82,.96-1.15,.32,2.01,.11,4.97-.66,6.5-.58,1.15-.88,2.84-2.87,2.31h0c-.01,3.48-1.31,6.45-3.5,9.24-.09-.57-.16-.97-.25-1.57-.44,.83-.7,1.47-.78,2.17l.08,.08c.23-.05,.47-.49,.67-.13,.27,.47-.14,.83-.39,1.19-.43,1.02-.77,2.06-1.74,2.79-3.19,2.4-7.81,2.74-11.18,.6-.91-.58-2.03-1.17-2.05-2.55l-1.44-1.52c-.61,.96-1.76,1.08-2.96,.31-.27,0-.39-.17-.4-.43h0c-3.17-1.89-5.78-4.3-7.25-7.77-.6,.79,.26,1.41,.25,2.14,.27,.56,.54,1.12,.81,1.69,1.9,.94,1.7,3.37,3.25,4.57,.11-.26,.24-.71,.33-.7,.42,.03,.63,.41,.72,.76,.66,2.44,2.43,4.15,3.97,6,.28,.34,.59,.63,.18,1.07,.95,.91,2.33,1.31,2.97,2.56,1.22,.46,1.99,1.42,2.67,2.46,.38,.52,1.09,.8,1.13,1.57h0c.49-.14,.65,.31,.94,.53,.34,.18,.68,.37,1.02,.55,.5-.81,.5-1.87,1.26-2.55-.27,.93-.35,1.92-.98,2.7,.19,.15,.38,.3,.57,.45,1.59,.52,3.19,1.01,4.76,1.55,1.56,.54,3.11,1.13,4.94,1.8-1.36-2.13-2.89-3.73-4.4-5.34-.58,.75,.35,1.51-.16,2.28,.33-.94-1.98-1.41-.32-2.57,1.57-2.34,2.37-4.93,2.6-7.72-.75,.63-1.41,1.38-2.39,1.69-1.11,.35-1.84,1.09-2.18,2.19-.46,1.44-1.79,1.49-2.92,1.84-.35,.11-.55-.21-.44-.51,.32-.88-.29-.77-.8-.81-.44-.04-.99,.14-1.28-.46,1.19-.35,2.46,.34,3.46-.57,.76-.68,1.5-1.38,2.25-2.07l-.03-.03c-1.24,.1-2.29,1.02-3.63,.73-2.95-.66-5.71-1.86-8.49-3-1.12-.45-2.12-1.17-2.82-2.2-.09-.09-.18-.19-.28-.28-.04-.05-.08-.11-.11-.16,.05,.04,.11,.08,.16,.12,.09,.09,.19,.18,.29,.27,1.41,.36,2.56,1.35,4.01,1.61,1.08,.2,2.01,.73,2.94,1.28,2,1.18,4.11,1.76,6.44,1.05,2.27-.69,4.34-1.68,5.99-3.46,.48-.52,.82-1.29,1.72-1.3h0c-.07-.45,.18-.58,.57-.57h-.01c.07-.14,.15-.16,.25-.02,.07,.07,.14,.14,.2,.21Z"/>
          <path class="cls-21" d="M39.01,25.91s.01,.11,.04,.13c.06,.03,.19,.05,.19,.05,.46-1.74,.11-2.38-1.6-2.93-.27-.09-.54-.16-.81-.24-1.09-.31-3.05,.05-3.19-.71-.45-2.5-1.64-5.18,.55-7.6,2-2.21,4.21-3.89,7.36-3.69,1.86,.12,3.78-.77,5.56,.08,1.77,.84,3.56,1.64,4.88,3.29,1.79,2.23,1.5,4.72,1.34,7.22-.05,.79-.15,1.57,.12,2.44-1.31-.97-3.83-.4-4.84,.99,2.41-.82,4.76-.7,7.04,.45,1.44-2.81,1.99-5.59-.09-8.37-.73-.98-.68-2.16-.64-3.31,0,0-.04,.01-.04,.01-.19,.07-.29-.02-.33-.2-1.08-.43-2.17-.83-3.01-1.68-.63-.33-1.3-.62-1.72-1.23-.92-.49-1.76-1.15-2.84-1.28-2.29,.33-4.57,.7-6.89,.26-1.04,.53-2.39,.21-3.26,1.2-.28,.25-.56,.5-.84,.75-.76,.49-1.55,.94-1.79,1.93-.1,.41-.5,.34-.81,.39-.52,.65-1.3,.95-1.96,1.41-.09,.08-.18,.17-.27,.25,0,0,0,0,0,0-.3,.33-.28,.72-.33,1.13-.19,1.46-.71,2.76-2.24,3.35h.03c-.05,.44-.48,.51-.75,.73-1.07,.85-2.29,1.6-1.55,3.33,.13,.3,.29,.89-.24,1.2-.36,.21-.4,.61-.56,.94-.7,.71-.48,.99,.42,1.32,1.16,.43,2.16-.05,3.23-.19,.02-.12,.04-.24,.07-.36,.07-.22,.09-.46,.21-.64,1.47-2.28,5.05-3.37,8.01-2.57,1.21,.33,1.72,.94,1.57,2.15Z"/>
          <path class="cls-21" d="M24.12,44.91c1.48,3.47,4.08,5.88,7.25,7.78-.86-1.82-1.79-3.6-3.38-4.91-.92-.76-1.54-1.62-1.31-2.9,.43-2.37,.2-4.77,.2-7.16,0-2.11-.06-4.22,.67-6.25,.07-.3,.14-.6,.21-.9-.61,.3-1.04-.12-1.52-.37-1.47-.76-1.54-.75-1.59,.9-.03,1-.42,.46-.78,.3-.01,.57,.86,1.14,.45,1.5-.82,.74-.46,1.26-.06,1.96,.28,.48-.73,2.1-1.3,2.23-.62-.55-1.33-.17-1.99-.19,0,0,.02-.02,.02-.02,.09,.67-.25,1.44,.47,1.96,.73,.72,.74,1.71,.77,2.6,.03,.93,1.04,.93,1.23,1.64,.18,.63,.44,1.23,.66,1.84Z"/>
          <path class="cls-11" d="M63.68,33.23c1.25,8.52,1.14,17.09,.86,25.66-.15,4.59-.28,9.17,.16,13.75,.38,.15,.62,.56,1.08,.55,.31-.96,.21-1.94,.13-2.92-.5-5.7-.82-11.44-.35-17.13,.36-4.38,.24-8.69-.02-13.05-.27-4.37-1.45-8.59-1.84-12.93-.18-2-.51-4.03,.08-6.03,.1-.01,.2-.02,.3-.03,.02-.08,0-.16-.03-.24-1.33-.27-.81-1.49-1.02-2.25-.19-.72-.21-1.51-.43-2.25,0-.02-.08-.03-.12-.02-.04,.01-.07,.05-.11,.08,.8,5.58,.23,11.26,1.33,16.81Z"/>
          <path class="cls-3" d="M36.81,10.78c.87-1,2.22-.67,3.26-1.2,.23-.24,.46-.51,.35-.87-.85-2.73,.23-4.81,2.49-6.81-3.3,1.3-3.21,4.1-3.73,6.58-.31-1.62-.11-3.18,.22-4.72,.12-.58-.16-.34-.39-.33-.43,1.14-.58,2.34-.64,3.6-.69-.42-.22-1.21-.79-1.76-.25,.99-.47,1.85-.73,2.92-.3-.61-.51-1.02-.71-1.43-.4-.61-.91-1.19-.75-2.01-.2-.35,.47-.62,.03-1.06-.6,.3-.4,1.05-.83,1.52-.05-.54-.1-1.03-.16-1.59-.78,.3-.53,1.27-1.15,1.64-.48-.38-.52-1.16-1.21-1.36-.18,.47,.38,.86,.12,1.39-1.1-.1-2.24-.73-3.7,.04,1.21,.07,2.3-.23,2.96,.92-1.96,.06-3.99-.18-5.09,1.92,.56,.16,1-.18,1.47-.36,1.35-.5,2.7-.68,4.09-.03-.77,.24-1.49,.46-2.22,.69,1.15,.39,2.35,.07,3.34,.86h-3.87c.59,.26,.91,.4,1.22,.54,2.21-.15,4.35,.12,6.42,.94Z"/>
          <path class="cls-21" d="M22.79,29.72c.09-1.34-.59-1.69-1.87-1.94-3.85-.76-4.24-.54-4.51,3.42-.03,.46-.1,.93-.16,1.39,.5,.59,.99,1.19,1.51,1.81,.45-.56-.07-.96,.55-1.45,.02,2.06,.93,3.55,2.37,4.74,.08-.28-.12-.67,.31-.82,0,0-.02,.02-.02,.02,.04-.12,.07-.23,.1-.35-1.29-.61-.23-1.31-.07-1.98,.44-1.46,.96-2.91,.28-4.44-.55-.26-.88-.92-1.59-.88-.68,.59-1.45,1.15-.5,2.13,.19,.2,.21,.4,0,.6-.23,.23-.35,0-.56-.07-1.54-.58-.84-1.88-1-2.9,1.51-.93,2.91-.48,3.62,1.15,.8,.69,1.16,1.65,.73,2.52-.35,.7-.38,1.39-.55,2.08,0,.52,.49,.92,.32,1.48,.5,.05,.98,.13,1.23,.64,.39-1.32,.5-2.65-.11-3.93-.52-1.08-.49-2.15-.09-3.24Z"/>
          <path class="cls-5" d="M54.9,13.7c-.04,1.15-.09,2.33,.64,3.31,2.08,2.78,1.53,5.56,.09,8.37,.4,.68,.95,1.32,1.16,2.06,.5,1.74,1.84,1.94,3.5,2.18-.74-1.14-.57-2.26-.72-3.34-.17-1.26,.63-2.74-.74-3.77,1.09-1.7-.73-2.77-.95-4.2-.25-1.55-1.37-2.83-2.15-4.2-.17-.31-.5-.4-.84-.4Z"/>
          <path class="cls-21" d="M32.2,27.93c-.41,0-.83,0-1.24,.02-1.46,.09-2.89,.25-2.94,2.22,.09,.12,.17,.23,.26,.35,.38,.1,.36,.58,.76,.74,1.68,.69,3.4,1.04,5.22,.83-.15-.11-.4-.2-.42-.34-.05-.26,.22-.26,.37-.2,1.03,.44,2.12,.2,3.17,.29,.38,.39,.88,.39,1.32,.27,1.39-.41,1.12,.43,.95,1.2-.11,.51-.53,.75-.91,1.02,.4,.03,.81,.05,1.21,.08,.53-.5,1.06-.99,1.58-1.5,.34-.34,.85-.66,.28-1.22-.42-.11-.69-.33-.89-.77-.18-.38-.59-.73-1.15-.35-.87,.59-1.94,.19-2.52,.48,.19-.03,.26-.47,.37-.88-.35-.02-.7-.04-1.04-.07-.79-.02-1.97,.08-2.24-.42-.69-1.27-1.34-.11-1.59,.04-.75,.47,.84,.26,.29,.92-.31-.27-.97,.14-1.06-.7-.05-.5,.07-.98,.48-1.03,1.54-.18,3.11-.57,4.59,.25,.27,.05,.54,.11,.81,.16,.31-.39,.8-.1,1.16-.32-.21-.08-.41-.21-.63-.24-2.07-.29-4.14-.56-6.2-.83Z"/>
          <path class="cls-3" d="M33.37,13.85c.31-.05,.71,.02,.81-.39,.24-.98,1.02-1.44,1.79-1.93-.4-1.1-1.35-1.08-2.27-1.13-.1,.46,.71,.51,.45,1.06-.59,.24-.84-.55-1.5-.44-2.63,.42-5.32,.16-7.96,.68,.19-.64,.92-.71,1.31-1.22h-.89c-1.35,.39-1.33,1.66-1.68,2.7,.44,.03,.89,.06,1.36,.09,.11,.36-.27,.43-.37,.67-.16,.41,0,.71,.29,1,.45,.44,.63-.05,.88-.25,1.06-.85,2.1-1.7,3.31-2.33,1.18-.62,2.41-.98,3.76-.71-.02,.56-.44,.42-.72,.45-1.81,.21-3.35,1.08-4.87,2-.26,.16-.6,.35-.4,.77,.28,.59,.68,.16,.9,.02,1.11-.67,2.32-1.05,3.52-1.5,.84-.31,1.63-.27,2.27,.46Z"/>
          <path class="cls-18" d="M20.68,37.69c-1.44-1.19-2.35-2.68-2.37-4.74-.62,.49-.09,.89-.55,1.45-.52-.62-1.01-1.21-1.51-1.81-.09,.01-.19,.02-.28,.02l-.06,.07c1.03,1.38,2.1,2.74,2.5,4.46-.26,.67-.55,.31-.85,.03-.31-.16-.61-.32-.92-.49-.23-.03-.47-.06-.7-.09,0,.1-.01,.2-.02,.31,1.43,.67,2.87,1.34,3.36,3.04,1.53,.37,1.53,1.67,1.73,2.84,.33-.19,.62-.29,.59,.27-.03,.46-.09,.92-.13,1.38,.35,1.28,1.9,1.44,2.4,2.58,.17,0,.33,.02,.5,.03,.01-.72-.85-1.34-.25-2.14-.22-.61-.48-1.22-.66-1.84-.2-.71-1.21-.71-1.23-1.64-.03-.89-.04-1.88-.77-2.6-.67-.1-.8-.57-.78-1.14Z"/>
          <path class="cls-8" d="M25.12,10.47h.89c-.39,.51-1.12,.58-1.31,1.22,2.64-.51,5.33-.25,7.96-.68,.66-.11,.91,.68,1.5,.44,.25-.55-.55-.61-.45-1.06-1.04-.53-2.28,.07-3.3-.56-.32-.14-.63-.28-1.22-.54h3.87c-.99-.8-2.19-.48-3.34-.86,.72-.22,1.45-.45,2.22-.69-1.39-.66-2.74-.48-4.09,.03-.47,.17-.91,.52-1.47,.36-.71,.63-1.69,.94-2.16,1.73,.04,.76,1.26-.79,.92,.6Z"/>
          <path class="cls-3" d="M48.56,5.29c-.42,.03-.83,.05-1.37,.09,.2-.33,.33-.56,.6-1.02-1.95,1.21-3.54,2.37-4.7,4.14-.43-.97,.43-1.72,.09-2.55-.6,.15-.45,.87-.99,1.05-.13-.75,.39-1.38,.51-2.42-1.05,1.37-1.42,2.65-1.74,3.96-.16,.65,.13,.84,.73,.75,1.1-.15,2.21-.22,3.31-.04,.53,.09,.75-.32,1.01-.61,1.13-1.21,2.34-2.33,3.67-3.32-.38-.01-.76-.03-1.14-.04Z"/>
          <path class="cls-21" d="M43.25,29.47c-.4-1.45-1.56-2.15-2.78-2.73-.64-.3-1.22,.45-2.08,.19-2.09-.63-4.3-.59-6.49-.38,.04,.44,.42,.66,.63,.99,.19,.03,.37,.06,.56,.09,3.04,.18,6.05,.51,8.92,1.62,.41,.07,.78,.41,1.24,.21Z"/>
          <path class="cls-21" d="M50.81,26.01c1.62-.16,3.26-.13,4.61,1.05-.22,.58-.44,1.15-.66,1.73-.35,.04-.71,.07-1.06,.11-.29,0-.57-.01-.86-.02-1.04-.13-2.08-.24-3.1,.11-1.14-.18-2.16,.45-3.27,.5,.18-.52,.23-1.13,.55-1.54,.46-.59-.04-1.66,1.02-1.89,.93,.17,1.84,.06,2.77-.04Zm-1.34,2.38c1.41-.24,2.84-.38,4.26-.58,.21-.03,.49-.12,.6-.28,.17-.24-.12-.4-.27-.55-1.16-1.16-4.71-.58-5.48,.89-.06,.04-.12,.07-.18,.11,.18,.19,.14-.04,.19-.1,.32,.12,.36,.61,.88,.52Z"/>
          <path class="cls-18" d="M52.84,28.88c-1.04-.13-2.08-.24-3.1,.11-.52,.6-1.56,.28-1.97,1.09-.1,.86,.47,.83,1.09,.91,1.44,.17,2.97-.56,4.33,.44,.12,.09,.42-.07,.64-.11,.32-.24,1.06-.09,.9-.74-.06-.24,.06-1.12-.77-.74,.11,.03,.27,.04,.1,.2-.05-.05-.09-.11-.14-.16-.49-.1-.99-.2-1.48-.31-.14-.03-.26-.12-.1-.24,.1-.07,.27-.05,.4-.08,.03-.13,.06-.25,.1-.38Z"/>
          <path class="cls-9" d="M51.38,6.45c-.6,.4-1.04,.92-1.15,1.67-.2,.15-.53,.4-.35,.58,.22,.21,.42-.15,.58-.34,.43-.38,.94-.52,1.5-.54,.1,.1,.2,.19,.31,.29,.13,.54-.15,1-.34,1.45-.39,.94-.97,1.61-2.13,1.04-.92-.49-1.76-1.15-2.84-1.28,.71-2.03,1.96-2.84,4.43-2.86Zm-1.62,.76c-.82,.28-1.35,.87-1.68,1.68,.93-.2,1.07-1.16,1.68-1.68Z"/>
          <path class="cls-8" d="M52.26,8.11c.13,.54-.15,1-.34,1.45-.39,.94-.97,1.61-2.13,1.04,.43,.62,1.09,.9,1.72,1.23,.45-.4,1.16-.29,1.57-.79,.27-.53,.81-.52,1.29-.67,.51-.15,1.16,.22,1.54-.4-1.01-.43-2.11,.14-3.54-.42,2.05-.44,3.66,.37,5.53,.3-.41-.38-.67-.62-.92-.86-.76,0-1.53,.05-2.28-.02-.54-.05-.4-.37-.11-.64-.02-.38,.28-.38,.53-.45-.17-.24-.58-.25-.6-.63-.37-.3-.55-.13-.62,.27-.41,.6-.97,.75-1.65,.57Z"/>
          <path class="cls-8" d="M36.14,6.75c.2,.41,.41,.82,.71,1.43,.27-1.06,.48-1.92,.73-2.92,.57,.56,.1,1.34,.79,1.76,.06-1.25,.21-2.45,.64-3.6-.19-.44,.26-1.25-.36-1.34-.78-.12-1.57,.22-1.95,1.06,.29,.34-.12,.35-.23,.5,0,0,0,0,0,0-.38,1.01-.31,2.06-.33,3.11Z"/>
          <path class="cls-11" d="M53.33,3.61c-.05-.1-.11-.2-.16-.3-2.65-2.95-6.18-2.51-9.6-2.47-.01,.08-.02,.15-.02,.23,3.3,.7,6.56,1.53,9.78,2.54Z"/>
          <path class="cls-8" d="M18.67,17.15c-.09,.36-.26,.72-.26,1.08,.02,1.92,1.02,3.75,.38,5.74,.76-2.61,1.56-5.18,1.39-7.92-.52,.34-1.12,.59-1.52,1.1Z"/>
          <path class="cls-17" d="M22.79,29.72c-.4,1.09-.43,2.15,.09,3.24,.61,1.28,.5,2.6,.11,3.93-.06,.06-.07,.13-.02,.2,.57-.13,1.58-1.75,1.3-2.23-.4-.7-.77-1.21,.06-1.96,.4-.36-.46-.93-.45-1.5-.36-.56-.72-1.12-1.08-1.68Z"/>
          <path class="cls-5" d="M61.25,40.57c.64-1.05,.97-2.16,.98-3.42,0-.72-.29-.66-.77-.83-.91-.33-.61,.51-.62,.68-.09,1.09-.63,2.18-.12,3.29,0,0-.02-.02-.02-.02,.19,.1,.38,.19,.57,.29l-.02,.02Z"/>
          <path class="cls-18" d="M42.01,29.26c-2.87-1.11-5.88-1.44-8.92-1.62-.3,.1-.59,.19-.89,.29,2.07,.28,4.14,.55,6.2,.83,.22,.03,.42,.16,.63,.24,0,0-.02-.01-.02-.01,.24,.01,.49,.02,.73,.03,.6,.16,1.2,.32,1.8,.48l.47-.24Z"/>
          <path class="cls-12" d="M30.28,16.3c-.57,.3-1.13,.59-1.7,.89-.51,.51,.55,1.32-.34,1.75-.1,0-.14,.06-.14,.16,.15,.3,.02,.48-.26,.6-.18,.1-.49,.22-.02,.32,.25,.05,.53,0,.79-.01,0,0-.03,0-.03,0,.29-.35,.64-.67,.87-1.06,.48-.81,1.19-1.56,.84-2.64Z"/>
          <path class="cls-22" d="M28.28,30.52c-.09-.12-.17-.23-.26-.35-.09,.13-.18,.26-.26,.39-.07,.3-.14,.6-.21,.9,.95,2.21,2.64,3.18,4.52,2.61q-3.74-1.37-3.8-3.56Z"/>
          <path class="cls-9" d="M18.67,17.15c.4-.51,1-.75,1.52-1.1,.54-1.17,1.07-2.34,1.61-3.51-1.22,1.43-2.83,2.59-3.13,4.61Z"/>
          <path class="cls-12" d="M25.51,26.2c.15-.33,.2-.73,.56-.94-.09-.59-.19-1.18-.3-1.88-.77,.57-1.44,1.07-2.12,1.58h-.02c.38,.2,1.25-.14,.92,.87-.09,.27,.03,.31,.97,.37Z"/>
          <path class="cls-5" d="M63,37.62c.63-1.12,.55-2.33,.42-3.54-.1-.35-.2-.69-.37-1.28-.67,1.76-.23,3.29-.06,4.82Z"/>
          <path class="cls-8" d="M50.46,8.36c.43-.38,.94-.53,1.5-.54,.02-.43,.36-.48,.68-.56-.12-.44,.52-.53,.41-1.1-.48,.9-1.17-.67-1.66,.3-.6,.4-1.05,.92-1.15,1.67,.07,.08,.15,.16,.22,.23Z"/>
          <path class="cls-9" d="M28.23,18.93c.89-.43-.16-1.24,.34-1.75-1.06,.45-2.29,.64-2.9,1.87,.85-.57,1.7-.54,2.56-.12Z"/>
          <path class="cls-13" d="M55.92,9.98c-.38,.62-1.03,.25-1.54,.4-.47,.14-1.02,.14-1.29,.67,.36-.05,.72-.09,1.08-.14,.41-.25,.82-.26,1.22,.01,.82,0,1.57,.66,2.59,.2-.74-.41-1.41-.77-2.07-1.14Z"/>
          <path class="cls-11" d="M14.28,24.82c-.22,1.63-.39,3.26-.34,4.9,0,.29-.34,1.01,.54,.69,.03-.28,.06-.56,.09-.84,0-1.19-.02-2.39-.02-3.58-.11-.39,.08-.84-.26-1.18Z"/>
          <path class="cls-5" d="M32.53,27.54c-.21-.33-.59-.55-.63-.99,0,0-.02-.02-.02-.02-.23-.01-.39-.14-.48-.34-.67,.41-1.3,.95-2.18,.78-.02,.12-.04,.24-.07,.36,1.13,.07,2.25,.14,3.38,.21Z"/>
          <path class="cls-5" d="M55.42,27.06c-.22,.58-.44,1.15-.66,1.73,.08,.06,.17,.13,.25,.19h1.94c-.47-.81-.89-1.45-1.53-1.92Z"/>
          <path class="cls-18" d="M30.28,16.3c.35,1.08-.36,1.83-.84,2.64-.23,.39-.57,.71-.87,1.06,1.54-.59,2.05-1.89,2.24-3.35,.06-.41,.03-.81,.33-1.13-.56-.04-.65,.44-.87,.78Z"/>
          <path class="cls-8" d="M15.89,31.35c0-1.78,0-3.19,0-4.61-.53,1.41-.91,2.82,0,4.61Z"/>
          <path class="cls-22" d="M36.14,6.75c.02-1.05-.04-2.1,.33-3.11-.77-.04-.41,1.04-1.08,1.1-.16,.82,.35,1.4,.75,2.01Z"/>
          <path class="cls-22" d="M54.6,8.35c-.29,.27-.44,.59,.11,.64,.76,.07,1.52,.02,2.28,.02-.32-.06,.39-.6-.29-.56-.69,.05-1.4-.06-2.1-.1Z"/>
          <path class="cls-8" d="M48.56,5.29c.38,.01,.76,.03,1.14,.04-.14-.11-.36-.21-.39-.34-.07-.31,.23-.16,.34-.17,.78-.02,1.57,0,2.35-.12-.9-.35-1.82-.24-2.73-.24-.53,0-.75,.3-.71,.82Z"/>
          <path class="cls-8" d="M23.3,22.88c.99-.1,1.51-.76,2.05-1.75-1.17,.18-1.52,1.11-2.2,1.57,.05,.06,.1,.12,.15,.18Z"/>
          <path class="cls-22" d="M52.63,7.26c-.32,.08-.65,.13-.68,.56,.1,.1,.2,.19,.31,.29,.68,.18,1.24,.03,1.65-.57-.49,.2-.85-.19-1.28-.28Z"/>
          <path class="cls-8" d="M61.95,25.11c-.4-.45-.8-.91-1.2-1.36,.05,.81,.53,1.19,1.2,1.36Z"/>
          <path class="cls-8" d="M57.43,12.87c-.77-.21-1.08-.53-1.59-.33,.32,.48,.76,.38,1.59,.33Z"/>
          <path class="cls-8" d="M60.63,27.1c.05,.41,.17,.78,.68,1.08,.06-.61-.22-.92-.56-1.2-.04,.04-.08,.08-.12,.12Z"/>
          <path class="cls-22" d="M54.53,7.27c.02,.38,.42,.4,.6,.63,.27,0,.53,0,1.03,0-.6-.52-1.1-.61-1.63-.63Z"/>
          <path class="cls-18" d="M55.01,28.98c-.08-.06-.17-.13-.25-.19-.35,.04-.71,.08-1.06,.11,.43,.2,.87,.13,1.31,.08Z"/>
          <path class="cls-8" d="M60.49,26.69c-.06-.33,0-.73-.49-.85-.06,.41,.15,.69,.38,.96,.04-.04,.07-.07,.11-.11Z"/>
          <path class="cls-8" d="M22.92,16.57c-.3,.19-.59,.4-.73,.88,.51-.06,.73-.33,.86-.73-.04-.05-.08-.11-.13-.16Z"/>
          <path class="cls-8" d="M55.4,10.92c-.41-.28-.81-.26-1.22-.01,.41,0,.82,0,1.22,.01Z"/>
          <path class="cls-8" d="M60.13,14.36c-.16-.37-.43-.57-.84-.57h0c.17,.35,.43,.57,.85,.55h-.01Z"/>
          <path class="cls-8" d="M21.14,18.76c-.22,.21-.41,.43-.38,.79,.44-.04,.47-.36,.57-.63-.06-.06-.13-.11-.19-.16Z"/>
          <path class="cls-8" d="M23.16,22.71l-.54,.27c.27,.25,.47,.06,.68-.1-.05-.06-.1-.12-.15-.18Z"/>
          <path class="cls-8" d="M21.67,18.41c.13-.19,.53-.37,.2-.61-.16-.12-.34,.2-.41,.42,.07,.06,.15,.13,.22,.19Z"/>
          <path class="cls-9" d="M27.83,19.69c.28-.12,.41-.29,.26-.6-.43,.05-.25,.37-.26,.6Z"/>
          <path class="cls-22" d="M36.46,3.65c.11-.15,.52-.16,.23-.5-.08,.17-.16,.33-.23,.5Z"/>
          <path class="cls-18" d="M15.12,31.78c-.07-.31-.27-.49-.57-.56-.04,.04-.07,.08-.11,.12,.2,.18,.4,.35,.59,.53l.09-.08Z"/>
          <path class="cls-8" d="M58.16,13.24c-.09-.07-.19-.14-.28-.22-.07,.32,.2,.13,.3,.2v.02Z"/>
          <path class="cls-8" d="M58.17,13.23c.1,.07,.21,.14,.31,.2,.05-.33-.22-.11-.32-.19,0,0,.01-.02,.01-.02Z"/>
          <path class="cls-18" d="M31.15,15.51c.09-.08,.18-.17,.27-.25-.07-.03-.13-.07-.2-.1-.02,.12-.05,.24-.07,.35Z"/>
          <path class="cls-8" d="M23.05,16.72c.17-.12,.35-.23,.52-.35-.05-.04-.09-.09-.14-.14-.17,.11-.34,.22-.52,.33,.04,.05,.09,.1,.13,.16Z"/>
          <path class="cls-8" d="M21.46,18.22c-.1,.18-.21,.37-.31,.55,.06,.05,.13,.11,.19,.16,.11-.17,.22-.35,.33-.52-.07-.06-.15-.13-.22-.19Z"/>
          <path class="cls-18" d="M15.97,32.6c-.1-.09-.19-.19-.29-.28,0,0-.07,.07-.07,.07,.1,.09,.19,.18,.29,.27,0,0,.06-.07,.06-.07Z"/>
          <path class="cls-18" d="M15.69,32.33c-.1-.09-.19-.18-.29-.28l-.08,.08c.1,.09,.2,.18,.3,.26l.07-.07Z"/>
          <path class="cls-18" d="M15.4,32.05c-.09-.09-.19-.18-.28-.27,0,0-.09,.08-.09,.08,.1,.09,.19,.18,.29,.28l.08-.08Z"/>
          <path class="cls-8" d="M60.38,26.8c.08,.1,.17,.2,.25,.3,.04-.04,.08-.08,.12-.12-.09-.1-.18-.19-.27-.29-.04,.03-.07,.07-.11,.11Z"/>
          <path class="cls-12" d="M23.64,24.95c0,.09,.01,.18,.02,.27,.05-.03,.09-.06,.14-.09-.06-.06-.12-.12-.18-.18,0,0,.02,0,.02,0Z"/>
          <path class="cls-8" d="M23.57,16.38c.05-.06,.16-.16,.15-.17-.11-.16-.2-.05-.29,.04,.04,.05,.09,.09,.14,.14Z"/>
          <path class="cls-8" d="M60.15,14.35l.1,.13s0-.06-.02-.07c-.03-.02-.06-.03-.1-.05,0,0,.01-.01,.01-.01Z"/>
          <path class="cls-5" d="M54.53,13.52c.04,.18,.14,.26,.33,.2-.03-.21-.16-.23-.33-.2Z"/>
          <path class="cls-8" d="M59.29,13.8s-.09-.08-.13-.13c0,.03,0,.07,.02,.08,.03,.02,.07,.03,.11,.04,0,0,0,0,0,0Z"/>
          <path class="cls-13" d="M64.07,21.1c-.1,.01-.2,.02-.3,.03,.76,3.85,1.63,7.69,2.16,11.58,.75,5.53,1.4,11.07,.74,16.66-.36,3.05-.48,6.07,.18,9.08,1.05,4.79,2.29,9.56,2.49,14.49,.13,3.32,.61,6.75-2.88,8.91-.08,.05-.08,.25-.12,.37h0c2.22-1.2,3.42-2.9,3.47-5.58,.08-4.53-.24-9.02-1.42-13.36-1.36-5.01-1.79-9.99-1.18-15.14,.58-4.92-.09-9.82-.71-14.7-.5-3.9-1.25-7.75-2.15-11.58-.06-.27-.19-.52-.28-.78Z"/>
          <path class="cls-13" d="M64.08,84.49c-.22,.65-.33,1.27-.34,1.91l-.47,.14c-.03-.76,.2-1.44,.81-2.05Z"/>
          <path class="cls-13" d="M64.08,84.48c.91-.59,1.57-1.44,2.26-2.25,0,0,0,0,0,0-1.09,.41-1.76,1.24-2.26,2.25h0Z"/>
          <path class="cls-8" d="M66.46,81.87c-.08,.05-.08,.2-.11,.34v.03s-.03,.02-.05,.02c-1.07,.4-1.72,1.23-2.2,2.2,0,.02-.02,.02-.02,.03-.61,.61-.84,1.29-.81,2.05l-.9,.25c-.31-.76-.67-1.51-1.07-2.25-.7-1.24-1.13-2.64-1.68-3.97,3.23-1.47,5.69-3.58,6.14-7.37,.31-.96,.22-1.94,.12-2.92-.5-5.71-.81-11.45-.34-17.15,.36-4.38,.25-8.69-.03-13.03-.26-4.38-1.44-8.6-1.83-12.94-.19-2-.51-4.02,.08-6.02,.76,3.85,1.63,7.68,2.16,11.58,.74,5.54,1.4,11.08,.74,16.66-.36,3.04-.48,6.07,.17,9.08,1.06,4.79,2.3,9.56,2.5,14.49,.12,3.32,.61,6.75-2.89,8.92Z"/>
          <path class="cls-11" d="M38.46,74.42c3.09,2.59,6.17,5.18,9.26,7.77,2.77,1.9,5.81,3.14,9.36,3.88-.53-1.09-1.01-2.03-1.43-2.98-.18-.41-.7-.97,.26-1.15-1-.95-2.39-1.07-3.54-1.01-3.68,.17-6.16-1.91-8.71-4.03-1.67-1.38-3.45-2.63-5.36-4.09,.08,.71,.12,1.16,.17,1.6Z"/>
          <path class="cls-12" d="M59.62,80.56c3.24-1.47,5.7-3.59,6.15-7.38-.46,.01-.71-.4-1.08-.55-.56,3.33-2.56,5.42-5.62,6.63,.18,.43,.37,.86,.55,1.29Z"/>
          <path class="cls-3" d="M58.37,78.56c-2.21-1.15-4.27-2.57-6.66-3.35-.02,.08-.03,.16-.01,.24,.63,.52,1.51,.69,1.99,1.41h0c.19,0,.45-.07,.29,.29l-.02-.02c.55-.15,.84,.21,1.14,.58h0c.75,.35,1.62,.53,1.99,1.41v-.04c.57-.18,.84,.22,1.12,.6,0,0,0,0,0,0,.14-.01,.28-.02,.41-.04-.08-.36-.15-.72-.23-1.08Z"/>
          <path class="cls-8" d="M37.28,71.3c3.07,1.26,6.14,2.53,9.22,3.79,.05-.08,.11-.16,.16-.24-3.06-1.27-6.12-2.54-9.18-3.81-.07,.08-.13,.17-.2,.25Z"/>
          <path class="cls-8" d="M53.23,78.17c1.51,.83,3.02,1.66,4.59,2.52,.14-.65-.52-.61-.51-1.01l.02,.02c-1.45-.27-2.5-1.4-3.88-1.79-.07,.08-.15,.17-.22,.25Z"/>
          <path class="cls-8" d="M49.85,76.48c1.13,.56,2.25,1.12,3.38,1.69,.07-.08,.15-.17,.22-.25-1.05-.72-2.14-1.36-3.39-1.68-.07,.08-.14,.17-.21,.25Z"/>
          <path class="cls-8" d="M46.5,75.09c1.12,.46,2.24,.93,3.36,1.39,.07-.08,.14-.16,.21-.25-1.08-.59-2.21-1.06-3.4-1.39-.05,.08-.11,.16-.16,.24Z"/>
          <path class="cls-8" d="M34.06,70.02c1.07,.43,2.14,.85,3.22,1.28,.07-.08,.13-.17,.2-.25-1.07-.42-2.15-.84-3.22-1.26-.07,.08-.13,.15-.2,.23Z"/>
          <path class="cls-8" d="M59.18,81.25c-.17-.58-.53-.66-1.05-.69,.22,.5,.54,.66,1.05,.69Z"/>
          <path class="cls-11" d="M58.02,82.88c.12,.09,.25,.18,.39,.04-.38-.62-1.03-.61-1.64-.68,.32,.39,.81,.47,1.25,.65Z"/>
          <path class="cls-8" d="M58.19,79.68c-.28-.38-.54-.78-1.12-.6,.09,.21,.18,.41,.27,.62,0,0-.02-.02-.02-.02,.29,0,.58,0,.88,0Z"/>
          <path class="cls-8" d="M58.6,79.64c-.14,.01-.28,.02-.41,.04-.1,.45,.28,.6,.51,.5,.3-.12-.03-.36-.1-.54Z"/>
          <path class="cls-11" d="M55.92,81.95c.21,.3,.52,.26,.83,.27-.2-.31-.52-.27-.83-.27Z"/>
          <path class="cls-8" d="M33.32,69.63c.25,.13,.5,.26,.75,.39,.07-.08,.13-.15,.2-.23-.2-.3-.54-.24-.83-.3-.04,.05-.08,.1-.11,.14Z"/>
          <path class="cls-11" d="M58.35,83.06c.22,0,.44,0,.65,0-.19-.26-.42-.26-.69-.12,0,0,.03,.12,.03,.12Z"/>
          <path class="cls-17" d="M31.38,55.5c.71,1.03,1.71,1.75,2.82,2.2,2.78,1.13,5.54,2.34,8.49,3,1.33,.3,2.39-.63,3.63-.73,.1-.06,.2-.12,.3-.18,0,0,.05,.06,.07,.09-.11,.04-.23,.08-.34,.12-.75,.69-1.5,1.39-2.25,2.07-1,.91-2.27,.21-3.46,.57,.3,.61,.84,.43,1.28,.46,.51,.04,1.12-.08,.8,.81-.11,.3,.09,.62,.44,.51,1.13-.35,2.46-.39,2.92-1.84,.35-1.1,1.07-1.84,2.18-2.19,.97-.31,1.64-1.05,2.39-1.69,.45-.9,.9-1.81,1.35-2.71,.18-.46,.36-.91,.54-1.37-.89,0-1.24,.78-1.72,1.3-1.65,1.78-3.72,2.77-5.99,3.46-2.33,.7-4.44,.13-6.44-1.05-.93-.55-1.87-1.08-2.94-1.28-1.45-.27-2.6-1.25-4.01-1.61l-.05,.05Z"/>
          <path class="cls-13" d="M39.29,65.46c-.69-1.04-1.46-2-2.67-2.46-2.38-1.31-4.67-2.78-6.81-4.5,.4,.83,1.25,1.35,1.45,2.3,.12,.58,.39,1.08,.01,1.73-.45,.75,.44,1.35,.47,2.18-1.05,.27-1.99-.54-3.42-.33,2.19,.66,3.97,1.33,5.82,1.72,1.78,.37,3.36,1.46,5.33,1.27,.43-.04,.91,1.03,.95-.33h0c-.99-.08-1.28-.66-1.13-1.57Z"/>
          <path class="cls-13" d="M33.43,69.49c.29,.06,.63,0,.83,.3,1.07,.42,2.15,.84,3.22,1.26,3.06,1.27,6.12,2.54,9.18,3.81,1.19,.32,2.32,.8,3.4,1.39,1.25,.32,2.34,.96,3.39,1.68,1.39,.39,2.44,1.52,3.88,1.79-.09-.21-.18-.41-.27-.62,0,0,0,.04,0,.03-.81-.26-1.63-.52-1.99-1.41,0,0,0,0,0,0-.58,.21-.89-.13-1.14-.58,0,0,.02,.02,.02,.02-.2,0-.44,.06-.29-.29,0,0,0,0,0,0-1.07-.09-1.81-.76-2.56-1.41-.8,0-1.32-.75-2.1-.82-1.02,.05-1.84-.5-2.72-.87-.08,.02-.16,0-.22-.05-.1-.07-.2-.15-.29-.22,0,0,0,0,0,0-1.02-.18-2-.46-2.83-1.14-.81-.51-2.06-.18-2.52-1.35-2.66-1.16-5.3-2.39-8.19-2.9-.5,.25-.95-.18-1.53-.15,.71,.98,1.93,.89,2.72,1.54Z"/>
          <path class="cls-17" d="M33.64,60.44c.41-.44,.1-.73-.18-1.07-1.54-1.86-3.31-3.56-3.97-6-.09-.35-.3-.74-.72-.76-.09,0-.21,.45-.33,.7-1.56-1.2-1.36-3.63-3.25-4.57,.58,2.1,1.16,4.2,1.74,6.3,.12,.57,.46,1,.86,1.4,1.95,1.33,3.91,2.67,5.86,4.01Z"/>
          <path class="cls-13" d="M55.63,72.09c-.11-1.78-.74-3.46-1.15-5.17-.56-2.36-.7-4.81-1.66-7.07-.12-.29-.26-.58-.48-.84,1.19,4.34,1.66,8.85,3.3,13.07,0,0-.02,.02-.02,.02Z"/>
          <path class="cls-9" d="M49.03,74.63c.78,.07,1.29,.82,2.1,.82,.19,0,.38,0,.57,0-.01-.08,0-.16,.01-.24-1.55-.7-3.12-1.33-4.78-1.76,.48,.78,1.54,.53,2.09,1.19Z"/>
          <path class="cls-9" d="M40.44,70.99c.46,1.17,1.71,.84,2.52,1.35,.65-.21,1.15,.54,1.81,.28-1.39-.69-2.83-1.24-4.33-1.63Z"/>
          <path class="cls-17" d="M48.05,66.43c-1.66,1.17,.65,1.64,.32,2.57,.51-.77-.42-1.54,.16-2.28-.16-.1-.32-.19-.48-.29Z"/>
          <path class="cls-8" d="M44.77,72.62c-.66,.26-1.16-.49-1.81-.28,.82,.68,1.8,.96,2.83,1.14,.13-.85-.63-.63-1.02-.86Z"/>
          <path class="cls-22" d="M42.38,68.1c-.34-.18-.68-.37-1.02-.55-.37,.11-1.09,.16-.24,.64,.63,.35,1.36,.55,2.11,.51-.19-.15-.38-.3-.57-.45-.09-.05-.19-.1-.28-.15Z"/>
          <path class="cls-8" d="M49.03,74.63c-.55-.65-1.61-.41-2.09-1.19-.21,.1-.42,.21-.62,.32,.88,.36,1.7,.92,2.72,.87Z"/>
          <path class="cls-5" d="M52.53,54.63c-.18,.46-.36,.91-.54,1.37,.65-.47,1.05-1.15,1.55-1.75-.07-.07-.14-.14-.2-.21-.08,.02-.17,.03-.25,.03,0,0,.01,0,.01,0-.09,.29-.26,.49-.57,.57h0Z"/>
          <path class="cls-13" d="M56.21,73.21c.12,.56,.3,1.09,.86,1.37l-.02,.02c-.29-.46-.58-.92-.86-1.37l.02-.02Z"/>
          <path class="cls-13" d="M56.19,73.23c-.19-.38-.38-.76-.56-1.14,0,0,.02-.02,.02-.02,0,.47,.14,.88,.56,1.14,0,0-.02,.02-.02,.02Z"/>
          <path class="cls-13" d="M57.07,74.59c.03,.22-.06,.5,.27,.59,0,0-.02,.02-.02,.02-.09-.2-.18-.39-.27-.59,0,0,.02-.02,.02-.02Z"/>
          <path class="cls-11" d="M28.56,63.42c-.09,.04-.15,.11-.15,.21,.05-.07,.1-.14,.15-.21Z"/>
          <path class="cls-8" d="M45.79,73.49c.1,.07,.2,.15,.29,.22-.1-.07-.2-.15-.29-.22Z"/>
          <path class="cls-11" d="M15.39,62.23c.47-.1,.8-.42,1.13-.73-.26-.37-.53-.74-.87-1.22-.47,.7-.24,1.34-.27,1.95Z"/>
          <path class="cls-12" d="M7.47,52.46c-.31,.73-.62,1.45-.93,2.18,.73-.52,1.01-1.24,.93-2.18Z"/>
          <path class="cls-12" d="M6.69,59.19c.33-.48,.62-.97,.43-1.67-.51,.49-.51,1.04-.54,1.58,.04,.03,.07,.06,.11,.09Z"/>
          <path class="cls-12" d="M7.69,55.48c-.42,.54-.62,.94-.39,1.64,.31-.53,.49-.93,.39-1.64Z"/>
          <path class="cls-12" d="M8.79,49.53c-.36,.39-.51,.86-.56,1.37,.05,.04,.1,.08,.14,.13,.29-.42,.55-.86,.53-1.4-.02-.06-.06-.09-.12-.1Z"/>
          <path class="cls-12" d="M13.88,41.62c-.24,.27-.41,.58-.43,.97,.59-.03,.47-.52,.57-.85-.05-.04-.09-.08-.14-.13Z"/>
          <path class="cls-12" d="M13,43.57c-.32,.31-.5,.69-.55,1.13,.05,.05,.11,.1,.16,.14,.18-.38,.36-.76,.54-1.15-.05-.04-.1-.08-.15-.13Z"/>
          <path class="cls-12" d="M8.97,52.46c.27-.26,.48-.55,.47-.99-.56,.07-.5,.53-.62,.86,.05,.04,.1,.08,.15,.12Z"/>
          <path class="cls-3" d="M12.53,65.05c-.11-.32-.29-.54-.7-.46,.1,.39,.41,.42,.7,.46h0Z"/>
          <path class="cls-12" d="M7.92,54.26c-.16,.24-.35,.55-.04,.71,.14,.07,.16-.35,.21-.57-.06-.05-.11-.09-.17-.14Z"/>
          <path class="cls-12" d="M8.82,52.33c-.26,.21-.29,.5-.32,.81,.05,.04,.09,.08,.14,.13,.11-.27,.22-.54,.34-.81-.05-.04-.1-.08-.15-.12Z"/>
          <path class="cls-12" d="M14.32,41.19c.16-.15,.41-.39,.18-.52-.29-.17-.29,.19-.35,.38,.06,.05,.11,.1,.17,.14Z"/>
          <path class="cls-3" d="M8.91,49.63c.26-.26,.31-.57,.25-.92,0,0,0,0,0,0-.31,.19-.26,.53-.36,.81,.06,.01,.1,.05,.11,.1Z"/>
          <path class="cls-3" d="M10.28,49.56c.35-.2,.32-.52,.28-.85h0c-.3,.22-.33,.52-.29,.84h0Z"/>
          <path class="cls-12" d="M14.02,41.75c.1-.19,.2-.37,.3-.55-.06-.05-.11-.09-.17-.14-.09,.19-.18,.38-.27,.57,.05,.04,.09,.08,.14,.13Z"/>
          <path class="cls-12" d="M13.15,43.69c.14-.12,.3-.34,.12-.43-.22-.13-.19,.19-.27,.31,.05,.04,.1,.08,.15,.13Z"/>
          <path class="cls-12" d="M12.33,45.4c.09-.19,.19-.37,.28-.56-.05-.05-.11-.09-.16-.14-.09,.2-.17,.39-.25,.59,.04,.04,.09,.08,.13,.11Z"/>
          <path class="cls-12" d="M12.2,45.29c-.09,.18-.17,.35-.26,.53,.03,.07,.09,.11,.16,.12,.08-.18,.15-.36,.23-.54-.04-.04-.09-.07-.13-.11Z"/>
          <path class="cls-3" d="M11.94,45.82c-.21,.17-.26,.39-.25,.65h0c.29-.05,.29-.34,.4-.53-.07-.01-.13-.05-.16-.12Z"/>
          <path class="cls-3" d="M10.29,46.47c.07-.1,.15-.2,.22-.31-.05-.03-.11-.07-.16-.1-.03,.13-.06,.26-.09,.38,0,0,.03,.03,.03,.03Z"/>
          <path class="cls-3" d="M11.45,47.07c.26-.13,.26-.36,.24-.6,0,0,0,0,0,0-.26,.1-.29,.32-.3,.55l.06,.05Z"/>
          <path class="cls-3" d="M10,47.03c.24-.11,.29-.32,.29-.55,0,0-.03-.03-.03-.03-.28,.1-.28,.34-.26,.58h0Z"/>
          <path class="cls-3" d="M11.39,47.01c-.07,.1-.14,.2-.2,.3,0,0,.09,.07,.14,.11,.04-.12,.08-.24,.12-.36,0,0-.06-.05-.06-.05Z"/>
          <path class="cls-3" d="M10,47.03c-.32,.07-.3,.31-.29,.56,0,0,0,0,0,0,.26-.11,.28-.33,.28-.57,0,0,0,0,0,0Z"/>
          <path class="cls-3" d="M9.44,48.16c.28-.1,.28-.33,.28-.56,0,0,0,0,0,0-.3,.08-.28,.33-.28,.57h0Z"/>
          <path class="cls-3" d="M10.85,48.44c.07-.1,.14-.21,.21-.31-.05-.03-.11-.06-.16-.09-.02,.13-.05,.26-.07,.38,0,0,.02,.02,.02,.02Z"/>
          <path class="cls-3" d="M9.43,48.15c-.27,.1-.28,.33-.28,.57,0,0,0,0,0,0,.34-.06,.29-.32,.29-.56,0,0,0,0,0,0Z"/>
          <path class="cls-3" d="M10.28,49.56l-.23,.26s.1,.08,.14,.11c.03-.12,.06-.24,.09-.37,0,0,0,0,0,0Z"/>
          <path class="cls-12" d="M7.94,51.46c-.13,.14-.26,.36-.1,.45,.23,.13,.2-.17,.27-.31-.06-.05-.11-.1-.17-.15Z"/>
          <path class="cls-12" d="M8.5,53.14c-.09,.19-.19,.38-.28,.57,.05,.04,.1,.09,.15,.13,.09-.19,.18-.38,.27-.57-.05-.04-.09-.08-.14-.13Z"/>
          <path class="cls-12" d="M8.22,53.71c-.1,.19-.2,.37-.3,.56,.06,.04,.11,.09,.17,.14,.09-.19,.18-.38,.27-.57-.05-.04-.1-.09-.15-.13Z"/>
          <path class="cls-3" d="M13.14,65.28c-.14-.24-.36-.27-.61-.23,0,0,0,0,0,0,.1,.24,.3,.3,.53,.32l.08-.09Z"/>
          <path class="cls-3" d="M13.07,65.37c.13,.24,.35,.27,.58,.26,0,0,.02-.02,.02-.02-.1-.23-.31-.29-.53-.32,0,0-.07,.09-.07,.09Z"/>
          <path class="cls-3" d="M14.22,65.9c-.11-.24-.31-.3-.55-.29,0,0-.02,.02-.02,.02,.1,.29,.33,.3,.58,.27,0,0,0,0,0,0Z"/>
          <path class="cls-12" d="M8.23,50.9c-.1,.19-.2,.37-.3,.56,.06,.05,.11,.1,.17,.15,.09-.19,.18-.39,.27-.58-.05-.04-.1-.08-.14-.13Z"/>
          <path class="cls-11" d="M10.29,65.34l.1-.06s-.07,.03-.11,.05c0,0,0,0,0,0Z"/>
          <path class="cls-11" d="M10,65.61c.09-.09,.19-.19,.28-.28,0,0,0,0,0,0-.09,.09-.19,.19-.28,.28,0,0,0,0,0,0Z"/>
          <path class="cls-3" d="M14.51,66.17c0-.2-.13-.25-.29-.28,0,0,0,0,0,0-.01,.2,.12,.26,.28,.29,0,0,0,0,0,0Z"/>
          <path class="cls-3" d="M10.56,48.71c.2,.02,.26-.11,.29-.27,0,0-.02-.02-.02-.02-.19,0-.25,.13-.27,.29,0,0,0,0,0,0Z"/>
          <path class="cls-11" d="M17.92,45.03c0-.08-.03-.16-.07-.23-.01,.06-.03,.12-.03,.18,0,.02,.07,.03,.1,.04Z"/>
          <path class="cls-3" d="M47.71,88.49h-.71c-.53-.25-1.06-.51-1.58-.78,.76,.28,1.54,.51,2.3,.78Z"/>
          <path class="cls-12" d="M55.11,91.55s-.03,0-.05-.02v-.02s.03,.02,.05,.03Z"/>
          <path class="cls-12" d="M22,66.36s-.02-.05-.02-.05c-.26-.07-.52-.23-.77,.01,.26,.2,.53,.1,.79,.03Z"/>
          <path class="cls-12" d="M22.81,66.55c-.2,0-.4-.02-.6-.03,.19,.18,.39,.19,.6,.03Z"/>
          <path class="cls-11" d="M32.59,71.77c.11-.49-.32-.53-.59-.7,.04,.36,.22,.62,.59,.7Z"/>
          <path class="cls-11" d="M29.16,70.4c.18,.1,.37,.2,.55,.29,0,0,.02-.02,.02-.02-.19-.09-.38-.18-.57-.27Z"/>
          <polygon class="cls-11" points="29.16 70.4 29.1 70.3 29.06 70.34 29.16 70.4"/>
          <path class="cls-11" d="M15.32,32.13c-.1-.09-.19-.18-.29-.28-.2-.18-.4-.35-.59-.53-1.01-.34-1.35-1.67-2.55-1.72h.03c.73,1.07,1.17,2.29,1.55,3.53,.18,.12,.36,.25,.54,.37,.31,.4,.63,.74,1.14,.95,.52,.22,1.2,.62,.39,1.33,.1,.09,.21,.19,.31,.28,.29,.06,.63,.22,.61-.32-.02-.04-.03-.07-.05-.11,.02,.03,.04,.06,.06,.1,.78,.18,.64,.52,.17,.93,.31,.16,.61,.32,.92,.49,.27-.41,.56-.13,.85-.03-.41-1.73-1.47-3.09-2.5-4.46-.1-.09-.19-.18-.29-.27-.1-.09-.2-.18-.3-.26Z"/>
          <path class="cls-11" d="M15.09,19.17c-1.5,1.29-2.26,3.02-2.79,4.85-.35,1.21-.57,2.45-.88,3.67-.14,.55-.17,1.17,.46,1.23,.66,.06,.31-.63,.36-.97,.4-3.11,1.27-6.05,2.85-8.78Z"/>
          <path class="cls-13" d="M14.28,24.82c.34,.34,.15,.79,.26,1.18,.38-1.68,.38-3.44,1.04-5.07-1.03,1.11-1.05,2.54-1.3,3.9Z"/>
          <path class="cls-11" d="M11.89,29.62c.03-.06,.06-.13,.09-.19-.04-.02-.07-.03-.11-.05,.02,.07,.03,.15,.05,.22,0,0-.03,.02-.03,.02Z"/>
          <path class="cls-11" d="M23.57,48.1c-.9-.63-1.8-1.26-2.9-2.04,.43,1.35,.82,2.46,1.41,3.49,.97,.13,1.71,.82,2.62,1.08-.38-.85-.75-1.69-1.13-2.54Z"/>
          <path class="cls-15" d="M23.57,48.1c.38,.85,.75,1.69,1.13,2.54,.74,1.47,1.48,2.93,2.23,4.4-.58-2.1-1.16-4.2-1.74-6.3-.27-.56-.54-1.12-.81-1.69-.17,0-.33-.02-.5-.03-.03,.19-.06,.38-.09,.57-.07,.17-.14,.34-.22,.51Z"/>
          <path class="cls-11" d="M19.29,39.94c-.49-1.71-1.93-2.37-3.36-3.04,.29,1.82,.86,3.52,1.98,5.01,0,0-.01,.03-.01,.03,.73,.08,1.01,.8,1.56,1.14,.63,.51,1.58,.56,2.02,1.36,.05-.46,.1-.92,.13-1.38,.04-.57-.26-.46-.59-.27-.43,.39-.49,.07-.62-.28-.34-.87-.73-1.71-1.11-2.57Z"/>
          <path class="cls-13" d="M21.47,44.44c-.44-.79-1.39-.84-2.02-1.36-.84,.06-1.31-.39-1.56-1.14,0,0,.01-.03,.01-.03-.48,.42-.13,.71,.19,.96,1.28,.99,2.63,1.9,3.83,2.98,.63,.56,.89,1.52,1.86,1.74,.03-.19,.06-.38,.09-.57-.5-1.14-2.05-1.3-2.4-2.58Z"/>
          <path class="cls-13" d="M15.55,35.8c.8-.71,.13-1.12-.39-1.33-.51-.22-.83-.55-1.14-.95-.54,1.46,.84,1.65,1.53,2.29Z"/>
          <path class="cls-13" d="M16.47,35.77c.02,.54-.32,.38-.61,.32,.03,.17,.06,.34,.09,.51,.23,.03,.47,.06,.7,.09,.47-.4,.61-.75-.16-.93h-.01Z"/>
          <path class="cls-15" d="M29.22,26.97c.88,.18,1.51-.37,2.18-.78,.17-.23,.4-.35,.7-.33,2.31-1.31,4.61-.69,6.91,.05,.15-1.21-.36-1.82-1.57-2.15-2.95-.79-6.53,.29-8.01,2.57-.12,.18-.14,.43-.21,.64Z"/>
          <path class="cls-15" d="M42.01,29.26c-.16,.08-.32,.16-.47,.24,.84,.38,.42,1.2,.61,1.8,.66-1.41,1.93-.84,2.98-.91,1.09-.07,.85,.86,1.02,1.47,.1,.35,.15,.72,.23,1.08,.17,.25,.33,.49,.5,.74,.09-.89,.4-1.82,.22-2.64-.19-.82,.18-.83,.68-.95,.41-.81,1.45-.49,1.97-1.09-1.14-.18-2.16,.45-3.27,.5-.28,0-.55,0-.83,.01,0,0-.01,0-.01,0-.79,0-1.59-.02-2.38-.03-.46,.2-.83-.14-1.24-.21Z"/>
          <path class="cls-21" d="M32.09,25.86c-.29-.01-.52,.1-.7,.33,.1,.21,.25,.33,.48,.34,.07-.23,.14-.45,.21-.68Z"/>
          <polygon class="cls-21" points="45.63 29.49 45.64 29.49 45.63 29.44 45.63 29.49"/>
          <path class="cls-3" d="M46.59,35.78c.09,.26,.13,.61,.5,.54,.41-.08,.24-.45,.21-.69-.06-.45-.2-.9-.3-1.34,2.66,1.21,5.45,1.27,8.29,.88-1.62-.21-3.27-.14-4.85-.59-1.27-.37-2.59-.67-2.82-2.3-.02-.15,.12-.32,.18-.49,.08,.02,.16,.03,.24,.05l-.02-.02c1,1.1,2.32,1.11,3.65,1.11,0,.2-.76,.47,.02,.59,1.19,.18,2.39,.3,3.59,.43,.66,.07,1.37-.05,1.51,.92,.05,.34,.36,.11,.56,.03,.19-.02,.37-.04,.56-.05-.1,.16-.27,.3-.29,.47-.42,2.51-1.23,4.88-2.28,7.19,0,0,0,0,0,0-1.23,1.83-1.61,4.07-2.89,5.93-.46-.29-.02-.95-.6-1.39-1.02,2.47-2.91,4.33-4.26,6.53-1.38,2.26-3.4,2.55-5.55,2.32-2.21-.24-4.44-.74-5.97-2.68-.3-.38-.72-.79-1.32-.42-.61,.96-1.76,1.08-2.96,.31-.07-.2-.16-.38-.4-.43,0,0,0,0,0,0-.86-1.82-1.79-3.6-3.38-4.91-.92-.76-1.54-1.62-1.31-2.9,.43-2.37,.2-4.77,.2-7.16,0-2.11-.06-4.22,.67-6.25,.95,2.21,2.64,3.18,4.52,2.61q-3.74-1.37-3.8-3.57c.38,.1,.36,.58,.76,.74,1.68,.69,3.4,1.04,5.22,.83,1.04-.12,2.13,.41,3.12-.25,.38,.39,.88,.39,1.32,.27,1.39-.41,1.12,.43,.95,1.2-.11,.51-.53,.75-.91,1.02-1.72,.29-3.47-.6-5.55,.21,2.07,.1,3.76,.19,5.45,.26,.47,.02,.94-.05,1.31-.39,.53-.5,1.07-.99,1.58-1.5,.34-.34,.85-.66,.28-1.22,.11-.13,.22-.25,.33-.38,.66-1.41,1.93-.84,2.98-.91,1.09-.07,.85,.86,1.02,1.47,.1,.35,.15,.72,.23,1.08-.3,.98-.1,1.91,.21,2.84Zm-.55,4.19c-.46,.18-.88,.41-1.14,.86h.02c-1.04,.67-1.68-.33-2.5-.6h.01c-.02-.54-.46-.66-.86-.82h-.01c-.74-.93-1.84-.67-2.81-.86-.03-.64-.38-1.37,.47-1.78-.15-.29-.41-.24-.61-.23-.71,.03-.64,.03-.46,.77,.12,.48-.03,1.02,.54,1.3,.1,.36,.4,.46,.72,.52,.87,.62,1.81,1.18,2.6,1.88,1.32,1.17,2.93,1.32,4.54,1.55,.28,.04,.61,.09,.77-.18,.8-1.31,2.3-2.28,2.04-4.11,.77-1.11,.48-1.76-1.04-2.04,.34,.67,1.16,1.01,.71,1.84-.38,.69-.99,.76-1.62,.9-.39,.09-.88,.08-.84,.69l.02-.02c-.31-.12-.46,.06-.57,.31h0Zm4.55,4.55c-4.57-2.19-9.28-1.78-14.02-.73-1.67,.18-2.09-1.49-3.18-2.16-.05-.9,.88-1.23,1.21-1.97-1.7,.78-2.06,1.82-1.2,3.33,.43,.81,.74,1.69,1.5,2.33,.53-.26,.1-1.26,.94-1.27,4.6,3.16,9.4,3.87,14.47,1.16,.23-.13,.54-.11,.81-.16,1.15,.02,1.5-.87,1.9-1.7,.56-1.33-.51-1.94-1.26-3.03,.07,1.24,1.31,1.7,1,2.75-.86,.29-1.62,.72-2.18,1.46Zm-5.43,7.14c-1.62,1.22-3.41,1.61-5.39,1.1-.3-.08-.7-.26-.86,.13-.17,.41,.29,.5,.53,.69,1.7,1.45,3.6,1.8,5.54,.65,1.31-.77,2.07-2.04,2.12-3.75-.87,.17-1.37,.73-1.94,1.17Z"/>
          <path class="cls-21" d="M55.33,42.5c-1.23,1.83-1.61,4.07-2.89,5.93-.46-.29-.02-.95-.6-1.39-1.02,2.47-2.91,4.33-4.26,6.53-1.38,2.26-3.4,2.55-5.55,2.32-2.21-.24-4.44-.74-5.97-2.68-.3-.38-.72-.79-1.32-.42,.48,.51,.96,1.02,1.44,1.52,.04,.02,.09,.04,.12,.07,2.07,2.16,4.59,3.46,7.59,3.06,2.8-.37,5.4-1.38,6.88-4.13,.2-.38,.33-.11,.38,.15,.26-.36,.66-.73,.39-1.19-.21-.36-.44,.08-.67,.13-.06,.03-.11,.07-.17,.11,.03-.06,.06-.12,.09-.19,.08-.7,.33-1.34,.78-2.17,.1,.6,.16,1.01,.25,1.57,2.19-2.78,3.49-5.76,3.5-9.23Z"/>
          <path class="cls-21" d="M46.99,34.29c2.66,1.21,5.45,1.27,8.29,.88-1.62-.21-3.27-.14-4.85-.59-1.27-.37-2.59-.67-2.82-2.3-.02-.15,.12-.32,.18-.49,.05-.06,.1-.12,.15-.18,.03,.08,.06,.15,.09,.23l-.02-.02c1.23,.23,2.4,.69,3.7,.64,.58-.02,.03,.31-.05,.47,0,.2-.76,.47,.02,.59,1.19,.18,2.39,.3,3.59,.43,.66,.07,1.37-.05,1.51,.92,.05,.34,.36,.11,.56,.03-.23-1.67-.88-2.45-2.46-2.47-.95-.01-.91-.55-1.06-1.11-.22,.04-.52,.2-.64,.11-1.36-1-2.89-.26-4.33-.44-.62-.08-1.19-.04-1.09-.91-.49,.12-.86,.14-.68,.95,.19,.82-.12,1.76-.22,2.64,.04,.21,.08,.41,.11,.62Z"/>
          <path class="cls-21" d="M57.9,34.84c-.1,.16-.27,.3-.29,.47-.42,2.51-1.23,4.88-2.28,7.19,1.99,.53,2.29-1.16,2.87-2.31,.77-1.53,.99-4.48,.66-6.5-.43,.33-.77,.67-.96,1.15Z"/>
          <path class="cls-17" d="M51.16,53.47c-.05-.26-.17-.53-.38-.15-1.47,2.75-4.08,3.76-6.88,4.13-3,.4-5.52-.9-7.59-3.06-.03-.03-.08-.05-.12-.07,.02,1.38,1.13,1.97,2.05,2.55,3.37,2.13,7.99,1.8,11.18-.6,.97-.73,1.31-1.77,1.74-2.79Z"/>
          <path class="cls-17" d="M42.38,68.1c.09,.05,.19,.1,.28,.15,.63-.79,.7-1.78,.98-2.7-.76,.68-.76,1.74-1.26,2.55Z"/>
          <path class="cls-15" d="M61.27,40.54c-.19-.1-.38-.19-.57-.29-.2,.52-.32,1.04,.12,1.59,.42-.39,.67-.76,.45-1.3Z"/>
          <path class="cls-18" d="M39.29,65.46c-.15,.91,.14,1.49,1.13,1.57-.04-.77-.75-1.05-1.13-1.57Z"/>
          <path class="cls-17" d="M52.54,54.63c.3-.07,.48-.27,.57-.57-.39-.01-.63,.12-.57,.57Z"/>
          <path class="cls-21" d="M31.78,53.11c-.07-.2-.16-.38-.4-.43,0,.26,.12,.42,.4,.43Z"/>
          <path class="cls-17" d="M31.15,55.17c-.05-.04-.11-.08-.16-.12,.04,.05,.08,.11,.11,.16,0,0,.04-.04,.04-.04Z"/>
          <path class="cls-17" d="M31.44,55.44c-.1-.09-.19-.18-.29-.27,0,0-.04,.04-.04,.04,.09,.09,.18,.19,.28,.28,0,0,.05-.05,.05-.05Z"/>
          <path class="cls-17" d="M53.09,54.07c.08,0,.17-.01,.25-.03-.1-.14-.18-.12-.25,.03Z"/>
          <path class="cls-15" d="M30.39,9.84c1.03,.63,2.26,.03,3.3,.56,.92,.05,1.88,.03,2.27,1.13,.28-.25,.56-.5,.84-.75-2.06-.82-4.21-1.09-6.42-.94Z"/>
          <path class="cls-15" d="M22.97,37.08c-.05-.07-.04-.14,.02-.2-.25-.52-.74-.59-1.23-.64-.23,.1-.45,.21-.68,.31-.04,.12-.07,.23-.11,.35,.67,.01,1.37-.36,1.99,.19Z"/>
          <path class="cls-15" d="M20.68,37.69c-.03,.57,.11,1.04,.78,1.14-.72-.52-.37-1.29-.47-1.96-.43,.15-.23,.54-.31,.82Z"/>
          <path class="cls-5" d="M17.64,29c.16,1.02-.54,2.33,1,2.9,.21,.08,.33,.3,.56,.07,.21-.21,.18-.41,0-.6-.95-.97-.17-1.54,.5-2.13-.63-.52-1.36-.29-2.06-.24Z"/>
          <path class="cls-18" d="M21.43,34.76c.17-.69,.21-1.38,.55-2.08,.43-.87,.07-1.84-.73-2.52,0,0,.02-.02,.02-.02,.68,1.53,.16,2.98-.28,4.44,.14,.06,.29,.13,.43,.19Z"/>
          <path class="cls-5" d="M21.43,34.76c-.14-.06-.29-.13-.43-.19-.16,.67-1.22,1.36,.07,1.98,.23-.1,.45-.21,.68-.31,.17-.55-.33-.96-.32-1.48Z"/>
          <path class="cls-15" d="M17.64,29c.7-.04,1.42-.28,2.06,.24,.71-.03,1.04,.62,1.59,.88,0,0-.02,.02-.02,.02-.71-1.63-2.11-2.08-3.62-1.15Z"/>
          <path class="cls-17" d="M41.82,31.67c.11-.13,.22-.25,.33-.38-.2-.6,.23-1.42-.61-1.8-.6-.16-1.2-.32-1.8-.48-.26,.45-.5,.27-.73-.03,0,0,.02,.01,.02,.01-.36,.22-.85-.07-1.16,.32,.17,.24,.34,.49,.5,.73-.25,.04-.5,.07-.75,.11-.11,.41-.17,.84-.37,.88,.58-.29,1.65,.11,2.52-.48,.55-.38,.97-.03,1.15,.35,.2,.44,.47,.65,.89,.77Z"/>
          <path class="cls-15" d="M37.06,29.15c-1.49-.82-3.06-.44-4.59-.25-.41,.05-.53,.53-.48,1.03,.09,.84,.75,.43,1.06,.7,.54-.66-1.05-.45-.29-.92,.24-.15,.89-1.31,1.59-.04,.27,.5,1.45,.41,2.24,.43,.14-.32-.04-.81,.48-.94Z"/>
          <path class="cls-15" d="M52.24,29.69c-1.49-.82-3.06-.44-4.59-.25-.41,.05-.53,.53-.48,1.03,.09,.84,.75,.43,1.06,.7,.54-.66-1.05-.45-.29-.92,.24-.15,.89-1.31,1.59-.04,.27,.5,1.45,.41,2.24,.43,.14-.32-.04-.81,.48-.94Z"/>
          <path class="cls-22" d="M38.74,34.32c-1.72,.29-3.47-.6-5.55,.21,2.07,.1,3.76,.19,5.45,.26,.47,.02,.94-.05,1.31-.39-.4-.03-.81-.05-1.21-.08Z"/>
          <path class="cls-3" d="M37.06,29.15c-.52,.13-.34,.62-.48,.94,.35,.02,.7,.04,1.04,.07,.25-.04,.5-.07,.75-.11-.17-.24-.34-.49-.5-.73-.27-.05-.54-.11-.81-.16Z"/>
          <path class="cls-3" d="M52.23,29.65c-.52,.13-.34,.62-.48,.94,.35,.02,.7,.04,1.04,.07,.25-.04,.5-.07,.75-.11-.17-.24-.34-.49-.5-.73-.27-.05-.54-.11-.81-.16Z"/>
          <path class="cls-5" d="M34.26,32.08c1.04-.12,2.13,.41,3.12-.25-1.06-.09-2.14,.16-3.17-.29-.15-.06-.42-.06-.37,.2,.03,.13,.27,.23,.42,.34Z"/>
          <path class="cls-13" d="M19.29,39.94c.37,.85,.76,1.7,1.11,2.57,.14,.35,.2,.67,.62,.28-.2-1.18-.2-2.48-1.73-2.84Z"/>
          <path class="cls-13" d="M18.41,37.13c-.29-.09-.58-.38-.85,.03,.29,.28,.59,.64,.85-.03Z"/>
          <path class="cls-3" d="M48.59,27.88c.32,.12,.36,.61,.88,.52,1.41-.24,2.84-.38,4.26-.58,.21-.03,.49-.12,.6-.28,.17-.24-.12-.4-.27-.55-1.16-1.16-4.71-.58-5.48,.89h0Z"/>
          <path class="cls-3" d="M48.59,27.87c-.06,.04-.12,.07-.18,.11,.18,.19,.14-.04,.19-.1,0,0,0,0,0,0Z"/>
          <path class="cls-5" d="M53.92,29.87c.05,.05,.09,.11,.14,.16,.17-.16,.02-.17-.1-.2,0,0-.04,.04-.04,.04Z"/>
          <path class="cls-18" d="M48.08,8.9c.93-.2,1.07-1.16,1.68-1.68-.82,.28-1.35,.87-1.68,1.68Z"/>
          <path class="cls-8" d="M50.24,8.12c-.2,.15-.53,.4-.35,.58,.22,.21,.42-.15,.58-.34-.07-.08-.15-.16-.22-.23Z"/>
          <path class="cls-21" d="M39.01,28.99c.23,.3,.47,.48,.73,.03-.24-.01-.49-.02-.73-.03Z"/>
          <path class="cls-8" d="M55.09,77.7c.36,.9,1.18,1.15,1.99,1.41-.37-.88-1.24-1.06-1.99-1.41Z"/>
          <path class="cls-8" d="M51.69,75.44c-.19,0-.38,0-.57,0,.75,.66,1.49,1.33,2.56,1.41-.48-.73-1.36-.9-1.99-1.41Z"/>
          <path class="cls-8" d="M53.95,77.13c.25,.45,.55,.79,1.14,.58-.29-.36-.58-.72-1.14-.58Z"/>
          <path class="cls-8" d="M53.68,76.86c-.15,.35,.1,.29,.29,.29,.16-.36-.11-.28-.29-.29Z"/>
          <path class="cls-5" d="M46.35,60c.11-.04,.23-.08,.34-.12-.02-.03-.07-.1-.07-.09-.1,.06-.2,.12-.3,.18,0,0,.03,.03,.03,.03Z"/>
          <path class="cls-13" d="M16.48,35.76s-.04-.06-.06-.1c.02,.04,.03,.07,.05,.11,0,0,.01-.01,.01-.01Z"/>
          <path class="cls-8" d="M17.9,41.94c.25,.75,.72,1.2,1.56,1.14-.55-.34-.82-1.05-1.56-1.14Z"/>
          <path class="cls-5" d="M46.99,34.29c-.04-.21-.08-.41-.11-.62-.17-.25-.33-.49-.5-.74-.3,.98-.1,1.91,.21,2.84,.09,.26,.13,.61,.5,.54,.41-.08,.24-.45,.21-.69-.06-.45-.2-.9-.3-1.34Z"/>
          <path class="cls-17" d="M51.13,45.05c-.27,.05-.58,.04-.81,.16-5.08,2.72-9.87,2-14.47-1.16,.25-.09,.49-.17,.73-.26,4.74-1.05,9.45-1.46,14.02,.73,.18,.17,.36,.35,.53,.52Zm-6.55,.96c.16-.01,.53-.03,.44-.35-.05-.19-.07-.54-.37-.53-1.04,.05-2.26-.46-3.06,1.04,1.12-.05,2.06-.08,2.99-.16Z"/>
          <path class="cls-24" d="M47.11,50.5c-.87,.17-1.37,.73-1.94,1.17-1.62,1.22-3.41,1.61-5.39,1.1-.3-.08-.7-.26-.86,.13-.17,.41,.29,.5,.53,.69,1.7,1.45,3.6,1.8,5.54,.65,1.31-.77,2.07-2.04,2.12-3.75Z"/>
          <path class="cls-5" d="M39.42,39.13c.87,.62,1.81,1.18,2.6,1.88,1.32,1.17,2.93,1.32,4.54,1.55,.28,.04,.61,.09,.77-.18,.8-1.31,2.3-2.28,2.04-4.11-.6,1.13-1.69,1.28-2.79,1.4,0,0,.02-.02,.02-.02-.09,.29-.24,.46-.57,.31,0,0,0,0,0,0-.13,.62-.55,.85-1.14,.86,0,0,.02-.01,.02-.01-1.02,.9-1.54,.77-2.5-.58,0,0,.01,0,.01,0-.5-.05-.96-.15-.86-.83,0,0-.01,0-.01,0-.75,.19-1.38-.56-2.15-.27Z"/>
          <path class="cls-5" d="M35.84,44.06c.25-.09,.49-.17,.73-.26-1.67,.18-2.09-1.49-3.18-2.16,0,.45,0,.91,0,1.36,.43,.81,.74,1.69,1.5,2.33,.53-.26,.1-1.26,.94-1.27Z"/>
          <path class="cls-18" d="M46.58,39.68c1.11-.12,2.2-.26,2.79-1.4,.77-1.11,.48-1.76-1.04-2.04,.34,.67,1.16,1.01,.71,1.84-.38,.69-.99,.76-1.62,.9-.39,.09-.88,.08-.84,.69Z"/>
          <path class="cls-5" d="M50.59,44.53c.18,.17,.36,.35,.53,.52,1.15,.02,1.5-.87,1.9-1.7-.09-.1-.17-.19-.26-.29-.86,.29-1.62,.72-2.18,1.46Z"/>
          <path class="cls-17" d="M33.4,43c0-.45,0-.9,0-1.36-.05-.9,.88-1.23,1.21-1.97-1.7,.78-2.06,1.82-1.2,3.33Z"/>
          <path class="cls-17" d="M51.66,32.93c.09-.16,.63-.49,.05-.47-1.3,.05-2.48-.41-3.7-.64,1,1.1,2.32,1.11,3.65,1.11Z"/>
          <path class="cls-18" d="M38.76,38.55c-.03-.64-.38-1.37,.47-1.78-.15-.29-.41-.24-.61-.23-.71,.03-.64,.03-.46,.77,.12,.48-.03,1.02,.54,1.3,0,0,.06-.06,.06-.06Z"/>
          <path class="cls-17" d="M52.77,43.07c.09,.1,.17,.19,.26,.29,.56-1.33-.51-1.94-1.26-3.03,.07,1.24,1.31,1.7,1,2.75Z"/>
          <path class="cls-18" d="M39.42,39.13c.76-.3,1.4,.45,2.15,.27-.74-.92-1.84-.67-2.81-.85,0,0-.06,.06-.06,.06,.1,.36,.4,.46,.72,.52Z"/>
          <path class="cls-18" d="M42.43,40.23c.96,1.36,1.48,1.48,2.5,.58-1.04,.68-1.68-.32-2.5-.58Z"/>
          <path class="cls-18" d="M41.58,39.4c-.1,.67,.36,.77,.86,.83-.02-.55-.46-.66-.86-.83Z"/>
          <path class="cls-18" d="M44.91,40.82c.59,0,1.01-.24,1.14-.86-.46,.18-.88,.41-1.14,.86Z"/>
          <path class="cls-18" d="M46.04,39.97c.33,.15,.48-.02,.57-.31-.31-.12-.46,.06-.57,.31Z"/>
          <path class="cls-17" d="M48.03,31.84c-.03-.08-.06-.15-.09-.23-.05,.06-.1,.12-.15,.18,.08,.02,.16,.03,.24,.05Z"/>
          <path class="cls-5" d="M50.79,52.33c-.03,.06-.06,.12-.09,.19,.06-.04,.11-.07,.17-.11,0,0-.08-.08-.08-.08Z"/>
          <path class="cls-9" d="M41.59,46.16c1.12-.05,2.06-.08,2.99-.16,.16-.01,.53-.03,.44-.35-.05-.19-.07-.54-.37-.53-1.04,.05-2.26-.46-3.06,1.04Z"/>
        </g>
      </g>
      <g>
        <path class="cls-23" d="M79.82,74.71c-1.2,0-2.24-.2-3.14-.6-.89-.4-1.55-.82-1.96-1.26l1.24-2.56c.17,.22,.44,.47,.81,.74,.37,.28,.8,.52,1.29,.73,.49,.21,1,.31,1.53,.31,.61,0,1.14-.17,1.59-.51,.45-.34,.68-.85,.68-1.51s-.23-1.18-.7-1.57c-.47-.39-1.1-.82-1.91-1.31-.66-.4-1.3-.82-1.94-1.28s-1.16-1-1.58-1.66c-.42-.65-.63-1.48-.63-2.48,0-1.34,.43-2.45,1.29-3.31,.86-.87,2.1-1.3,3.74-1.3,.83,0,1.54,.1,2.12,.29s1.05,.42,1.42,.67,.63,.46,.81,.62l-1.37,2.49c-.11-.16-.31-.36-.57-.6-.27-.24-.6-.44-.99-.62-.39-.18-.82-.27-1.29-.27-.66,0-1.15,.19-1.48,.57-.33,.38-.49,.82-.49,1.34,0,.66,.24,1.2,.73,1.61,.48,.42,1.07,.83,1.76,1.24,.76,.46,1.47,.91,2.12,1.37,.65,.46,1.17,1.01,1.57,1.65s.6,1.45,.6,2.45c0,1.49-.47,2.65-1.4,3.5-.94,.84-2.22,1.26-3.84,1.26Z"/>
        <path class="cls-23" d="M87.97,74.44v-17.01h3.15v7.1h5.61v-7.1h3.17v17.01h-3.17v-7.22h-5.61v7.22h-3.15Z"/>
        <path class="cls-23" d="M103.93,74.44v-17.01h8.88v2.66h-5.83v3.98h4.64v2.59h-4.64v5.03h6.32v2.76h-9.37Z"/>
        <path class="cls-23" d="M116.27,74.44v-17.01h3.12v17.01h-3.12Z"/>
        <path class="cls-23" d="M123.42,74.44v-17.01h3.1v8.47l5.42-8.47h3.59l-5.79,8.44,6.18,8.56h-3.9l-5.49-8.16v8.16h-3.1Z"/>
        <path class="cls-23" d="M137.97,74.44v-17.01h3.15v7.1h5.61v-7.1h3.17v17.01h-3.17v-7.22h-5.61v7.22h-3.15Z"/>
      </g>
      <g>
        <path class="cls-1" d="M120.03,85.97v-2.05h1.61v2.05h-1.61Z"/>
        <path class="cls-1" d="M123.42,85.97v-9.6h1.76v9.6h-1.76Z"/>
        <path class="cls-1" d="M134.11,86.16l-4.6-5.25-.43-.55,.07,1.34v4.27h-1.69v-9.77h.15l4.53,5.29,.48,.63-.07-1.32v-4.44h1.69v9.79h-.14Z"/>
        <path class="cls-1" d="M136.56,85.97v-9.6h5.01v1.51h-3.25v2.52h2.84v1.54h-2.84v4.02h-1.76Z"/>
        <path class="cls-1" d="M146.34,86.13c-.87,0-1.6-.21-2.19-.62s-1.04-.99-1.35-1.73c-.31-.74-.46-1.62-.46-2.62s.15-1.87,.46-2.61c.3-.74,.75-1.32,1.34-1.73s1.31-.62,2.17-.62,1.64,.21,2.24,.63c.59,.42,1.04,1,1.34,1.74,.3,.74,.45,1.61,.45,2.59s-.15,1.88-.46,2.62c-.31,.74-.76,1.32-1.35,1.73-.59,.41-1.32,.62-2.17,.62Zm0-1.47c.6,0,1.11-.29,1.53-.87,.42-.58,.62-1.47,.62-2.67s-.19-2.02-.58-2.61c-.39-.59-.92-.88-1.61-.88s-1.19,.29-1.56,.88-.56,1.46-.56,2.62,.2,2.09,.6,2.66,.92,.86,1.57,.86Z"/>
      </g>
      <g>
        <path class="cls-23" d="M74.94,85.96v-9.73h1.8v4.06h3.21v-4.06h1.81v9.73h-1.81v-4.13h-3.21v4.13h-1.8Z"/>
        <path class="cls-23" d="M82.7,85.96l4.12-9.9h.14l4.13,9.9h-1.9l-.54-1.41h-3.48l-.52,1.41h-1.95Zm3.95-5.42l-.98,2.65h2.46l-1.02-2.65-.24-.78-.22,.78Z"/>
        <path class="cls-23" d="M94.39,86.11c-.68,0-1.28-.11-1.79-.34-.51-.23-.89-.47-1.12-.72l.71-1.47c.1,.13,.25,.27,.46,.43,.21,.16,.46,.3,.74,.42,.28,.12,.57,.18,.88,.18,.35,0,.65-.1,.91-.29,.26-.2,.39-.48,.39-.87s-.13-.68-.4-.9c-.27-.22-.63-.47-1.09-.75-.38-.23-.75-.47-1.11-.73-.36-.26-.66-.58-.9-.95-.24-.38-.36-.85-.36-1.42,0-.77,.25-1.4,.74-1.89,.49-.5,1.2-.74,2.14-.74,.47,0,.88,.06,1.21,.17,.33,.11,.6,.24,.81,.38,.21,.14,.36,.26,.46,.36l-.78,1.42c-.07-.09-.17-.21-.33-.34s-.34-.25-.57-.36c-.22-.1-.47-.15-.74-.15-.38,0-.66,.11-.85,.32-.19,.22-.28,.47-.28,.76,0,.38,.14,.68,.42,.92,.28,.24,.61,.47,1.01,.71,.44,.26,.84,.52,1.21,.79s.67,.58,.9,.94c.23,.37,.34,.83,.34,1.4,0,.85-.27,1.52-.8,2-.54,.48-1.27,.72-2.2,.72Z"/>
        <path class="cls-23" d="M99.01,85.96v-9.73h1.79v9.73h-1.79Z"/>
        <path class="cls-23" d="M109.85,86.15l-4.66-5.32-.43-.56,.07,1.35v4.33h-1.72v-9.9h.15l4.59,5.36,.49,.63-.07-1.33v-4.49h1.72v9.92h-.14Z"/>
        <path class="cls-23" d="M110.92,85.96l4.12-9.9h.14l4.13,9.9h-1.9l-.54-1.41h-3.48l-.52,1.41h-1.95Zm3.95-5.42l-.98,2.65h2.46l-1.02-2.65-.24-.78-.22,.78Z"/>
      </g>
    </g>
  </g>
</svg>