<svg id="Group_261" data-name="Group 261" xmlns="http://www.w3.org/2000/svg" xmlns:xlink="http://www.w3.org/1999/xlink" width="40.658" height="30.232" viewBox="0 0 40.658 30.232">
  <defs>
    <clipPath id="clip-path">
      <rect id="Rectangle_217" data-name="Rectangle 217" width="40.658" height="30.232" fill="#fff"/>
    </clipPath>
  </defs>
  <g id="Group_260" data-name="Group 260" clip-path="url(#clip-path)">
    <path id="Path_1013" data-name="Path 1013" d="M133.322,82.065c.328-1.269.762-1.61,1.9-1.517.108-1.414.181-1.511,1.607-1.755.326-.056.213-.254.2-.4a1.289,1.289,0,0,1,.877-1.353,1.371,1.371,0,0,1,1.516.4c1.9,1.884,3.809,3.764,5.681,5.678a1.426,1.426,0,0,1-.08,2.259c-1.576,1.577-3.165,3.141-4.728,4.732a1.862,1.862,0,0,1-1.535.615c-2.226-.121-4.454-.2-6.68-.313a1.527,1.527,0,0,1-1.507-1.593,1.494,1.494,0,0,1,1.52-1.4,18.474,18.474,0,0,0,2.349.019,22.606,22.606,0,0,0-2.229-2.36c-1.235-1.214-2.484-2.416-3.691-3.657a1.352,1.352,0,0,1,0-2.182,1.306,1.306,0,0,1,1.958.159c.769.714,1.5,1.473,2.244,2.21a1.272,1.272,0,0,0,.6.456" transform="translate(-107.666 -64.745)" fill="#fff"/>
    <path id="Path_1014" data-name="Path 1014" d="M59.818,103.363q-5.246,0-10.493,0c-1.21,0-1.614-.4-1.614-1.6,0-4.437.011-8.875-.014-13.312,0-.662.131-1.021.834-1.248,1.39-.449,1.372-.506,1.372.947,0,3.125.02,6.249-.016,9.373-.007.642.139.835.807.829,3.471-.035,6.942-.012,10.413-.022a1.107,1.107,0,0,1,1.1.511,3.226,3.226,0,0,0,2.784,1.351c1.784.037,3.567.138,5.35.214.506.022.982.078,1.055.742a1.439,1.439,0,0,0,.242.489c.546.956.12,1.7-1.01,1.717-1.341.019-2.682,0-4.023,0H59.818m1.4-2.5a1.453,1.453,0,0,0-1.4-1.328,1.355,1.355,0,0,0-1.262,1.433,1.323,1.323,0,0,0,1.373,1.225,1.38,1.38,0,0,0,1.288-1.33" transform="translate(-40.13 -73.137)" fill="#fff"/>
    <path id="Path_1015" data-name="Path 1015" d="M72.046,18.417a2.9,2.9,0,0,0-1.681-.188c-.583.135-.571-.136-.568-.55.012-2.075-.008-4.15.015-6.224.005-.467-.1-.634-.6-.632q-9.351.026-18.7,0c-.469,0-.571.162-.558.59.028.918,0,1.838.015,2.757.008.394-.028.677-.534.616a1.386,1.386,0,0,0-.464.078c-1.2.288-1.2.289-1.2-.937,0-1.287-.01-2.574,0-3.861.01-1.012.44-1.43,1.453-1.43q10.693,0,21.385,0c.868,0,1.42.419,1.429,1.216.03,2.832.012,5.665.012,8.563" transform="translate(-40.184 -7.266)" fill="#fff"/>
    <path id="Path_1016" data-name="Path 1016" d="M19.246,69.07c-.935-.919-1.859-1.85-2.81-2.753a2.217,2.217,0,0,1-.452-1.916c.052-1.622.168-3.243.192-4.865a1.682,1.682,0,0,1,1.082-1.663c1.641-.7,3.291-1.384,4.961-2.012a1.491,1.491,0,0,1,2.11.906,1.524,1.524,0,0,1-.964,2.151c-.963.415-1.937.81-2.923,1.165a.918.918,0,0,0-.7,1.031c.023,2.6-.011,5.194-.024,7.791-.176,0-.359-.017-.471.165" transform="translate(-13.429 -46.877)" fill="#fff"/>
    <path id="Path_1017" data-name="Path 1017" d="M103.655,38.2c-.309.178-.251.556-.588.505-.44-.066-.61.105-.581.563.023.368-.008.673.52.64.428-.027.291.346.308.58.019.261.051.539-.371.513-.649-.041-.4.464-.444.777-.06.393.079.591.515.544.6-.065.392.395.433.694.055.391-.132.469-.494.485-1.737.078-1.736.089-1.736-1.614,0-1.26.017-2.521-.009-3.781-.009-.446.123-.6.577-.583.84.032,1.683.033,2.524,0,.467-.018.57.164.573.595,0,.622.092,1.243.163,2.088a3.926,3.926,0,0,0,.327-1.9c.04-.636.291-.842.926-.8.456.033.58.195.591.615a8.155,8.155,0,0,0,.3,2.158c.075-.7.194-1.394.212-2.093.017-.64.354-.688.866-.673.6.017.425.418.4.719-.14,1.592-.312,3.181-.443,4.773-.036.438-.262.55-.616.471-.4-.089-1.014.339-1.14-.432a14.494,14.494,0,0,0-.286-1.594,2.721,2.721,0,0,0-.316,1.462c-.009.76-.518.547-.927.571-.437.026-.81.056-.853-.589-.1-1.534-.275-3.064-.429-4.7" transform="translate(-85.152 -31.556)" fill="#fff"/>
    <path id="Path_1018" data-name="Path 1018" d="M210.5,129.572a1.825,1.825,0,0,1,1.786,1.19,1.385,1.385,0,0,1-.408,1.7c-1.614,1.575-3.2,3.182-4.8,4.768a1.554,1.554,0,0,1-2.41-.049,1.513,1.513,0,0,1,.094-2.343c1.591-1.563,3.162-3.146,4.739-4.724.3-.3.61-.588,1-.539" transform="translate(-171.77 -109.013)" fill="#fff"/>
    <path id="Path_1019" data-name="Path 1019" d="M6.131,132.189q-2.218-2.262-4.436-4.524c-.4-.412-.822-.81-1.223-1.225a1.4,1.4,0,0,1,.056-2.14,1.429,1.429,0,0,1,2.2-.207c1.1,1.051,2.177,2.124,3.262,3.19.147.144.337.264.337.506q0,2.145,0,4.289l-.191.111" transform="translate(0 -104.049)" fill="#fff"/>
    <path id="Path_1020" data-name="Path 1020" d="M81.312,39.724c0-.539.015-1.078-.005-1.616-.013-.355.078-.522.479-.516.384.005.57.077.564.517-.021,1.651-.007,3.3-.011,4.955,0,.222.063.529-.313.49-.322-.034-.767.221-.9-.341-.124-.513-.265-1.021-.4-1.531l-.195.028c0,.429-.028.861.008,1.287.038.454-.132.58-.577.581s-.522-.161-.517-.553c.018-1.625.005-3.251.01-4.877,0-.245-.088-.577.346-.541.308.025.7-.164.825.35.147.6.335,1.2.5,1.793l.184-.028" transform="translate(-66.84 -31.628)" fill="#fff"/>
    <path id="Path_1021" data-name="Path 1021" d="M150.985,40.674a2.456,2.456,0,0,1-1.26-2.713,1.364,1.364,0,0,1,1.808-1.006,1.341,1.341,0,0,1,1.025,1.613c-.1.45-.451.246-.7.279-.31.041-.581.009-.553-.432.011-.167.122-.492-.217-.443-.244.035-.213.323-.2.531a1.071,1.071,0,0,0,.644.833,2.392,2.392,0,0,1,1.085,2.639,1.175,1.175,0,0,1-1.265,1.119c-.876.053-1.388-.279-1.561-.986-.253-1.03-.135-1.181.993-1.278a1.431,1.431,0,0,1,.089.29c.029.324-.053.679.228.931.073.065.2,0,.25-.1a1.109,1.109,0,0,0-.125-1.089c-.042-.081-.158-.123-.24-.183" transform="translate(-125.919 -31.045)" fill="#fff"/>
    <path id="Path_1022" data-name="Path 1022" d="M90.352,127.247H80.277c-.377,0-.71-.1-.7-.548.01-.4.328-.5.669-.505,2.92,0,5.839-.011,8.759,0,.6,0,.806.582,1.346,1.049" transform="translate(-66.954 -106.171)" fill="#fff"/>
    <path id="Path_1023" data-name="Path 1023" d="M88.457,115.057H80.275c-.374,0-.71-.089-.717-.535s.326-.568.7-.569c2.26-.006,4.521-.014,6.781,0,.638,0,.837.625,1.421,1.1" transform="translate(-66.937 -95.87)" fill="#fff"/>
    <path id="Path_1024" data-name="Path 1024" d="M83.009,89.638c.864,0,1.728-.013,2.591.012.163,0,.584-.19.459.252-.085.3.072.837-.479.842-1.832.019-3.665.012-5.5-.006a.508.508,0,0,1-.539-.553c.009-.4.3-.535.638-.539.942-.012,1.885,0,2.827,0v0" transform="translate(-66.925 -75.396)" fill="#fff"/>
    <path id="Path_1025" data-name="Path 1025" d="M86.6,103.081c-2.205,0-4.223,0-6.241,0-.383,0-.785-.07-.781-.566s.386-.542.784-.54c1.705.005,3.411.038,5.115-.014.8-.024.664.657,1.123,1.124" transform="translate(-66.954 -85.783)" fill="#fff"/>
    <path id="Path_1026" data-name="Path 1026" d="M81.828,139.2c-.526,0-1.052,0-1.577,0-.379,0-.7-.073-.717-.527-.016-.413.3-.555.625-.562,1.077-.025,2.156-.023,3.233,0,.372.007.67.174.624.632-.043.431-.351.462-.689.458-.5,0-1,0-1.5,0" transform="translate(-66.917 -116.192)" fill="#fff"/>
    <path id="Path_1027" data-name="Path 1027" d="M150.182.9c-.42,0-.841.008-1.26,0-.168,0-.416.095-.484-.112-.08-.244.118-.447.286-.6a6.484,6.484,0,0,1,2.931-.031.643.643,0,0,1,.317.594c-.055.287-.347.139-.531.149-.419.022-.84.007-1.26.007" transform="translate(-124.875 0)" fill="#fff"/>
    <path id="Path_1028" data-name="Path 1028" d="M153.493,89.745a10.33,10.33,0,0,1,1.99.072c-.92,1.015-1.076,1.018-1.99-.072" transform="translate(-129.144 -75.499)" fill="#fff"/>
    <path id="Path_1029" data-name="Path 1029" d="M36.664,139.021c.112-.182.3-.165.471-.165.009.164.142.393-.083.46-.17.051-.315-.118-.388-.295" transform="translate(-30.848 -116.828)" fill="#fff"/>
  </g>
</svg>
