<svg id="Group_259" data-name="Group 259" xmlns="http://www.w3.org/2000/svg" xmlns:xlink="http://www.w3.org/1999/xlink" width="34" height="32.615" viewBox="0 0 34 32.615">
  <defs>
    <clipPath id="clip-path">
      <rect id="Rectangle_216" data-name="Rectangle 216" width="34" height="32.615" fill="#fff"/>
    </clipPath>
  </defs>
  <g id="Group_258" data-name="Group 258" clip-path="url(#clip-path)">
    <path id="Path_1002" data-name="Path 1002" d="M34,61.772a2.5,2.5,0,0,1-2.361,1.846c-.465,0-.321.372-.322.614-.009,1.964-.025,3.928.007,5.891.009.573-.149.848-.736.987-1.58.375-3.136.847-4.717,1.216-.466.109-.545.312-.536.718.02.982-.015,1.964.016,2.945.014.442-.074.607-.567.6q-7.781-.029-15.563,0c-.451,0-.537-.151-.525-.559.028-.981-.01-1.964.018-2.945.012-.441-.077-.653-.57-.767C6.562,71.956,5,71.487,3.425,71.111a.818.818,0,0,1-.746-.971c.036-1.938,0-3.877.022-5.815,0-.468-.042-.712-.62-.745A2.307,2.307,0,0,1,0,61.3a2.347,2.347,0,0,1,2.083-2.371c.584-.037.623-.258.617-.724-.021-1.838-.01-3.676-.008-5.514,0-.875.077-.939.883-.726q6.376,1.689,12.748,3.393a2.64,2.64,0,0,0,1.448-.009q6.331-1.714,12.675-3.385c.783-.208.9-.106.9.756,0,1.838.011,3.676-.006,5.514,0,.441.052.656.594.687,1.109.064,1.634.9,2.066,1.8ZM16.3,72.344c0-4.861-.008-9.644.012-14.427,0-.477-.268-.5-.589-.59q-5.18-1.378-10.355-2.77c-.451-.121-.649-.076-.646.495q.038,6.837,0,13.674c0,.433.129.628.535.733,3.65.947,7.3,1.906,11.041,2.886m1.508-.011c3.75-.991,7.436-1.972,11.128-2.931.434-.113.366-.392.366-.683,0-4.556-.009-9.112.013-13.668,0-.527-.135-.63-.617-.5-3.425.921-6.851,1.839-10.284,2.73-.511.133-.625.369-.621.873.027,3.2.014,6.393.014,9.59v4.59" transform="translate(0.001 -43.981)" fill="#fff"/>
    <path id="Path_1003" data-name="Path 1003" d="M78.258,5.156a5.106,5.106,0,0,1,10.21-.135,5.106,5.106,0,1,1-10.21.135" transform="translate(-66.369 0)" fill="#fff"/>
    <path id="Path_1004" data-name="Path 1004" d="M48.686,149.747c-2.711-.716-5.359-1.418-8.009-2.115-.659-.173-.273-.692-.347-1.05-.114-.554.045-.734.671-.557,2.257.637,4.523,1.244,6.8,1.785.738.175,1,.5.886,1.212a4.9,4.9,0,0,0-.005.725" transform="translate(-34.164 -123.784)" fill="#fff"/>
    <path id="Path_1005" data-name="Path 1005" d="M48.848,109.9l-7.906-2.076c-.2-.053-.482,0-.458-.352a4.311,4.311,0,0,1,.086-1.334c.017-.043.285-.014.425.023,2.463.638,4.921,1.291,7.387,1.916.368.093.5.255.471.619s-.005.75-.005,1.2" transform="translate(-34.325 -89.995)" fill="#fff"/>
    <path id="Path_1006" data-name="Path 1006" d="M48.671,129.963l-8.019-2.135c-.652-.174-.264-.694-.337-1.051-.118-.585.072-.707.686-.532q3.383.96,6.8,1.781c.68.163,1.009.416.873,1.139a4.657,4.657,0,0,0-.007.8" transform="translate(-34.148 -107.002)" fill="#fff"/>
    <path id="Path_1007" data-name="Path 1007" d="M48.855,90.107c-2.677-.687-5.262-1.345-7.841-2.024-.194-.051-.555.018-.524-.389a4.6,4.6,0,0,1,.084-1.335c.015-.039.281-.007.42.029,2.464.635,4.925,1.28,7.39,1.91.344.088.516.231.478.616s-.008.749-.008,1.194" transform="translate(-34.332 -73.223)" fill="#fff"/>
    <path id="Path_1008" data-name="Path 1008" d="M162.73,88.553c0,.627-.034,1.257.012,1.881.029.4-.165.526-.478.61-.914.244-1.829.484-2.74.738-.311.087-.451.05-.446-.325.018-1.3.013-2.609,0-3.913,0-.257.049-.415.324-.488.987-.259,1.97-.534,2.953-.806.318-.088.384.061.378.346-.014.652,0,1.3,0,1.957" transform="translate(-134.91 -73.126)" fill="#fff"/>
    <path id="Path_1009" data-name="Path 1009" d="M136.315,146.02c.024.044.044.064.046.086.146,1.543.148,1.55-1.322,1.943-2.309.617-4.621,1.223-6.929,1.833a.586.586,0,0,1-.068-.16c-.067-1.5-.068-1.5,1.349-1.879q3.464-.916,6.923-1.823" transform="translate(-108.57 -123.836)" fill="#fff"/>
    <path id="Path_1010" data-name="Path 1010" d="M128.087,130.2c-.129-1.664-.131-1.67,1.357-2.059,2.289-.6,4.579-1.191,6.891-1.791a.751.751,0,0,1,.063.192c.052,1.439.054,1.448-1.328,1.817-2.31.616-4.624,1.22-6.981,1.841" transform="translate(-108.583 -107.156)" fill="#fff"/>
    <path id="Path_1011" data-name="Path 1011" d="M131.371,96.329c.169.595-.2.785-.771.9-.73.144-1.443.377-2.163.575-.315.087-.48.078-.489-.355-.025-1.177-.052-1.174,1.079-1.482.48-.131.955-.283,1.435-.412.909-.245.91-.241.909.776" transform="translate(-108.504 -80.923)" fill="#fff"/>
    <path id="Path_1012" data-name="Path 1012" d="M131.409,116.2c.186.561-.182.756-.7.88-.75.179-1.493.392-2.236.6-.335.093-.543.049-.47-.368a.388.388,0,0,0,0-.075c-.031-1.1-.031-1.1,1.057-1.4.48-.131.956-.276,1.437-.406.915-.247.916-.244.915.769" transform="translate(-108.541 -97.778)" fill="#fff"/>
  </g>
</svg>
