<svg id="Group_257" data-name="Group 257" xmlns="http://www.w3.org/2000/svg" xmlns:xlink="http://www.w3.org/1999/xlink" width="24.396" height="35.842" viewBox="0 0 24.396 35.842">
  <defs>
    <clipPath id="clip-path">
      <rect id="Rectangle_215" data-name="Rectangle 215" width="24.396" height="35.842" fill="#fff"/>
    </clipPath>
  </defs>
  <g id="Group_256" data-name="Group 256" transform="translate(0 0)" clip-path="url(#clip-path)">
    <path id="Path_995" data-name="Path 995" d="M14.006,40.532c2.57,0,5.14.04,7.708-.018,1.132-.025,1.722,0,1.371,1.494-.6,2.544-.955,5.15-1.309,7.744-.114.841-.405,1.038-1.2,1.031q-6.584-.053-13.169,0c-.806.007-1.073-.218-1.188-1.048-.379-2.753-.827-5.5-1.366-8.225-.169-.859.028-1,.8-.993,2.783.03,5.567.011,8.351.012" transform="translate(-1.769 -14.944)" fill="#fff"/>
    <path id="Path_996" data-name="Path 996" d="M12.141,28.905c-3.16,0-6.32-.028-9.479.016A1.558,1.558,0,0,1,.834,27.568c-.2-.941-.444-1.875-.731-2.792-.228-.727-.1-1.34.6-1.606.516-.2.675-.468.605-.934-.382-2.55.881-4.648,1.825-6.844.368-.855,1-1.648.683-2.721-.135-.449.2-.822.692-.914a.871.871,0,0,1,1.059.5c.233.482-.02.773-.291,1.133-1.943,2.577-3.381,5.356-3.268,8.706.03.9.3,1.137,1.387,1.062,3.038-.21,6.1-.106,9.15-.113q5.061-.012,10.122,0c1.679.007,1.974.414,1.571,2.039-1.135,4.582-.5,3.759-4.866,3.818-2.41.032-4.82.006-7.23.006" transform="translate(0 -4.327)" fill="#fff"/>
    <path id="Path_997" data-name="Path 997" d="M15.575,22.955c-1.656,0-3.314-.042-4.968.018-.8.029-.995-.247-.965-1,.056-1.388-.014-2.779.023-4.168a3.735,3.735,0,0,1,3.552-3.824,38.886,38.886,0,0,1,4.806-.009,3.693,3.693,0,0,1,3.583,3.784c.039,1.389-.045,2.783.028,4.168.046.877-.281,1.075-1.091,1.048-1.654-.056-3.312-.017-4.968-.017" transform="translate(-3.556 -5.129)" fill="#fff"/>
    <path id="Path_998" data-name="Path 998" d="M16.645,8.483A4.338,4.338,0,0,1,12.4,4.157a4.267,4.267,0,0,1,8.532.049,4.334,4.334,0,0,1-4.288,4.278" transform="translate(-4.574 0)" fill="#fff"/>
    <path id="Path_999" data-name="Path 999" d="M29.244,16.966c1.468,1.282,2.456,5.179,1.761,6.77-.215.494-.609.338-.948.338-.555,0-.481-.42-.491-.8-.056-2.1.2-4.214-.322-6.312" transform="translate(-10.788 -6.259)" fill="#fff"/>
    <path id="Path_1000" data-name="Path 1000" d="M7.363,24.219c-.869.173-1.39.066-1.3-1.072.112-1.472-.094-2.971.5-4.39A3.1,3.1,0,0,1,7.6,17.445v6.444l-.236.33" transform="translate(-2.232 -6.435)" fill="#fff"/>
    <path id="Path_1001" data-name="Path 1001" d="M8.131,27.985l.236-.33c.115.249,0,.335-.236.33" transform="translate(-3 -10.202)" fill="#fff"/>
  </g>
</svg>
