<svg xmlns="http://www.w3.org/2000/svg" xmlns:xlink="http://www.w3.org/1999/xlink" width="70.727" height="62.799" viewBox="0 0 70.727 62.799">
  <defs>
    <clipPath id="clip-path">
      <rect id="Rectangle_219" data-name="Rectangle 219" width="70.727" height="62.799" fill="#f42a41"/>
    </clipPath>
  </defs>
  <g id="Group_265" data-name="Group 265" transform="translate(0 0)">
    <g id="Group_264" data-name="Group 264" transform="translate(0 0)" clip-path="url(#clip-path)">
      <path id="Path_1033" data-name="Path 1033" d="M61.224,33.1c-7.706-.108-13.968-5.813-14.583-12.98a14.46,14.46,0,0,1,11.7-15.642c2.327-.445,2.358-.446,2.413,1.885.086,3.618.165,7.239.161,10.857,0,1.1.211,1.508,1.438,1.457,4.017-.167,8.041-.169,12.061-.285.791-.024.994.186.977.979A14.448,14.448,0,0,1,63.047,32.914c-.718.083-1.439.144-1.823.181" transform="translate(-8.594 -0.783)" fill="#f42a41"/>
      <path id="Path_1034" data-name="Path 1034" d="M16.54,33.152q-6.388,0-12.777,0c-2.12,0-3.176-.96-3.182-2.876s1.056-2.929,3.148-2.93q12.777-.01,25.553,0c2.018,0,3.041,1,3.045,2.893a2.589,2.589,0,0,1-2.89,2.907c-4.3.019-8.6.006-12.9,0" transform="translate(-0.107 -5.044)" fill="#f42a41"/>
      <path id="Path_1035" data-name="Path 1035" d="M62.874,56.489q-6.63,0-13.26,0c-1.969,0-2.973-.948-2.991-2.784a2.647,2.647,0,0,1,2.92-3.018c8.921-.011,17.841,0,26.762-.008,2.451,0,3.5,1.8,2.823,4.138A2.424,2.424,0,0,1,76.5,56.5c-4.541-.019-9.082-.007-13.622-.008" transform="translate(-8.601 -9.349)" fill="#f42a41"/>
      <path id="Path_1036" data-name="Path 1036" d="M63.046,69.849q6.63,0,13.26,0c1.97,0,2.964.947,2.985,2.8.023,1.968-.955,3-2.925,3q-13.441.015-26.882,0a2.608,2.608,0,0,1-2.863-2.942c.007-1.872,1-2.852,2.924-2.855q6.75-.011,13.5,0" transform="translate(-8.601 -12.886)" fill="#f42a41"/>
      <path id="Path_1037" data-name="Path 1037" d="M16.428,13.524q-6.389,0-12.779,0C1.629,13.52.6,12.551.58,10.656S1.626,7.724,3.6,7.723q12.84-.01,25.679,0c2.01,0,3.047.994,3.05,2.883,0,1.933-1,2.915-3,2.918q-6.45.009-12.9,0" transform="translate(-0.107 -1.424)" fill="#f42a41"/>
      <path id="Path_1038" data-name="Path 1038" d="M18.455,56.805c2.643-2.784,5.09-5.329,7.491-7.917.475-.512.69-.4,1.1.042,2.4,2.588,4.839,5.148,7.442,7.906-1.2,0-2.216.063-3.218-.018-.9-.073-1.159.2-1.147,1.121.051,4.219,0,8.441.042,12.66.009.856-.129,1.2-1.093,1.152-1.763-.091-3.537-.073-5.3,0-.825.032-.982-.251-.975-1.013.036-4.18-.037-8.361.05-12.539.025-1.218-.355-1.527-1.478-1.408-.867.093-1.752.019-2.913.019" transform="translate(-3.405 -8.956)" fill="#f42a41"/>
      <path id="Path_1039" data-name="Path 1039" d="M67.975,7.181c0-2.088.038-4.177-.02-6.263-.021-.773.227-.927.951-.917,6.962.1,13.52,6.46,13.757,13.353.023.646-.17.824-.794.833q-6.445.093-12.891.252c-.717.019-.765-.32-.761-.873.018-2.128.007-4.258.007-6.386h-.25" transform="translate(-12.536 0)" fill="#f42a41"/>
      <path id="Path_1040" data-name="Path 1040" d="M16.069,63.534c-1.239,0-2.235.081-3.212-.022-1.026-.108-1.17.332-1.151,1.216.054,2.412-.007,4.827.034,7.239.011.71-.135.993-.917.968-1.849-.059-3.7-.055-5.55,0-.749.022-.957-.2-.944-.944.046-2.493-.008-4.989.033-7.482.013-.76-.164-1.072-.988-1.011-1.027.076-2.064.019-3.375.019,1.364-1.45,2.557-2.721,3.754-3.989q1.863-1.974,3.736-3.941c.248-.259.431-.72.921-.193,2.481,2.668,4.989,5.309,7.659,8.141" transform="translate(0 -10.175)" fill="#f42a41"/>
    </g>
  </g>
</svg>
