<svg id="Group_269" data-name="Group 269" xmlns="http://www.w3.org/2000/svg" xmlns:xlink="http://www.w3.org/1999/xlink" width="64.637" height="69.188" viewBox="0 0 64.637 69.188">
  <defs>
    <clipPath id="clip-path">
      <rect id="Rectangle_221" data-name="Rectangle 221" width="64.637" height="69.188" fill="#f42a41"/>
    </clipPath>
  </defs>
  <g id="Group_268" data-name="Group 268" clip-path="url(#clip-path)">
    <path id="Path_1052" data-name="Path 1052" d="M22.115,12.8c.857,0,1.713.005,2.57,0,.72-.006.982-.237.984-.893.006-2.292.052-4.584-.013-6.874A6.285,6.285,0,0,0,22.99.114c.176-.18.382-.093.558-.093Q41.99.014,60.433.018c3.4,0,5.9,2.3,5.9,5.41q.006,16.709.006,33.417a.887.887,0,0,1-.339.777Q58.087,46.174,50.2,52.752a.463.463,0,0,1-.649.029c-.944-.557-1.92-1.07-2.85-1.646a1.2,1.2,0,0,0-1.413.015c-.917.559-1.869,1.068-2.794,1.616a.5.5,0,0,1-.7-.031q-7.866-6.559-15.759-13.091a.948.948,0,0,1-.363-.829c.009-7.831,0-15.662.019-23.494a1.126,1.126,0,0,0-.837-1.233c-.94-.352-1.841-.792-2.759-1.2.009-.031.017-.062.026-.093M61.434,23.343V7.982c0-1.111-.066-1.171-1.3-1.171H31.762c-1.068,0-1.2.122-1.2,1.089q0,15.45,0,30.9c0,.939.186,1.11,1.215,1.11q14.252,0,28.5,0c.973,0,1.158-.175,1.158-1.089q0-7.74,0-15.481" transform="translate(-12.679 0)" fill="#f42a41"/>
    <path id="Path_1053" data-name="Path 1053" d="M9.278,150.549l2.459-1.406q13.215-7.556,26.425-15.119a.821.821,0,0,1,.957-.017q14.3,8.2,28.627,16.372a1.879,1.879,0,0,1,.2.171Z" transform="translate(-5.326 -81.361)" fill="#f42a41"/>
    <path id="Path_1054" data-name="Path 1054" d="M116.611,81.855V118.4L90.548,103.5l26.063-21.646" transform="translate(-51.974 -49.752)" fill="#f42a41"/>
    <path id="Path_1055" data-name="Path 1055" d="M4.725,81.856,30.787,103.5,4.725,118.4Z" transform="translate(-2.712 -49.752)" fill="#f42a41"/>
    <path id="Path_1056" data-name="Path 1056" d="M5.688,11.412c-1.688,0-3.376-.013-5.063.009-.444.006-.635-.041-.624-.532C.04,9.017,0,7.144.019,5.272A5.549,5.549,0,0,1,5.8.042a5.491,5.491,0,0,1,5.657,5.263c.008,1.853-.013,3.705.012,5.558.006.426-.081.572-.588.563-1.73-.035-3.462-.014-5.193-.014" transform="translate(0 -0.025)" fill="#f42a41"/>
    <path id="Path_1057" data-name="Path 1057" d="M14.837,78.412l-8.883-7.38,8.883-4.6Z" transform="translate(-3.418 -40.378)" fill="#f42a41"/>
    <path id="Path_1058" data-name="Path 1058" d="M129.622,78.415V66.423l8.895,4.6-8.895,7.391" transform="translate(-74.403 -40.372)" fill="#f42a41"/>
    <path id="Path_1059" data-name="Path 1059" d="M45.465,35.961c0-4.841.008-9.683-.012-14.523,0-.5.145-.623.679-.622q13.277.023,26.554,0c.521,0,.692.1.691.611q-.026,14.583,0,29.166c0,.484-.153.582-.65.581q-13.309-.021-26.618,0c-.564,0-.656-.158-.655-.634.02-4.861.012-9.722.012-14.583M59.422,47.438q4.642,0,9.283,0c.816,0,1.04-.216,1.05-.948a20.386,20.386,0,0,0-.672-5.559A12.987,12.987,0,0,0,64.218,33.4c-.358-.26-.339-.427-.164-.759,1.683-3.194-.728-6.98-4.775-6.891-3.872.085-6.169,3.73-4.469,6.954.161.307.147.45-.164.667a11.009,11.009,0,0,0-2.97,3.124,17.917,17.917,0,0,0-2.6,9.834c-.008.938.181,1.113,1.194,1.113q4.577,0,9.154,0" transform="translate(-26.09 -12.652)" fill="#f42a41"/>
    <path id="Path_1060" data-name="Path 1060" d="M66.315,66.84c-2.749,0-5.5-.009-8.247.009-.444,0-.572-.08-.55-.52a16.583,16.583,0,0,1,2.256-8.116A10.5,10.5,0,0,1,62.59,55.2a.525.525,0,0,1,.716-.005,5.467,5.467,0,0,0,6.047.012.557.557,0,0,1,.767.02,11.653,11.653,0,0,1,4.335,6.545,19.344,19.344,0,0,1,.7,4.6c.017.41-.124.483-.531.48-2.77-.015-5.541-.008-8.311-.008" transform="translate(-33.014 -33.463)" fill="#f42a41"/>
    <path id="Path_1061" data-name="Path 1061" d="M76.947,40.3A3.7,3.7,0,1,1,73.2,36.921,3.6,3.6,0,0,1,76.947,40.3" transform="translate(-39.933 -22.441)" fill="#f42a41"/>
  </g>
</svg>
