<svg id="Group_267" data-name="Group 267" xmlns="http://www.w3.org/2000/svg" xmlns:xlink="http://www.w3.org/1999/xlink" width="70.35" height="70.753" viewBox="0 0 70.35 70.753">
  <defs>
    <clipPath id="clip-path">
      <rect id="Rectangle_220" data-name="Rectangle 220" width="70.35" height="70.753" fill="#f42a41"/>
    </clipPath>
  </defs>
  <g id="Group_266" data-name="Group 266" clip-path="url(#clip-path)">
    <path id="Path_1041" data-name="Path 1041" d="M49.156,26.855c-.343,1.568-1.538,2.134-2.739,2.713a16.776,16.776,0,0,0-7.642,6.66c-.627,1.084-1.987.4-2.918.884-.56.293-1.735-.142-1.467,1.068.214.963,1.031.5,1.661.383,3.833-.709,7.833-.231,11.569-1.62.725-.27.963.259,1.206.708,2.008,3.71,5.04,4.673,8.928,3.359.6-.2.979-.216,1.083.6.211,1.647.628,3.273.762,4.924.174,2.138-2.8,4.214-4.779,3.438-.55-.215-.372-.661-.225-.993.85-1.92-.121-2.5-1.844-2.922-9.219-2.245-18.41-4.606-27.629-6.855a2.682,2.682,0,0,1-2.343-2.6c-1.452-9.26-3.025-18.5-4.6-27.74-.511-2.989.122-3.981,3.166-4.468Q34.736,2.24,48.134.113c2.8-.445,3.847.394,4.3,3.268.808,5.123,1.611,10.248,2.543,15.35.187,1.024-.272,1.491-.7,2.253-2.678,4.787-7.509,4.655-11.952,5.428q-6.975,1.214-13.958,2.383c-.631.105-1.321.165-1.147.992.168.8.841.619,1.466.508q9.522-1.7,19.051-3.348a13.193,13.193,0,0,1,1.418-.092M26.9,20.892l4.958-.842c5.161-.88,10.323-1.752,15.48-2.654.526-.092,1.374-.021,1.19-.943-.172-.862-.889-.578-1.461-.485q-3.826.623-7.651,1.257c-4.184.7-8.368,1.394-12.544,2.14-.5.09-1.326.013-1.3.9.023.844.688.6,1.33.624m4.425-10.4c4.89-.812,9.854-1.642,14.821-2.455.548-.089.9-.355.83-.893-.087-.69-.6-.752-1.2-.649-4.894.843-9.791,1.668-14.683,2.525-.473.083-1.163.073-1.084.864.082.818.746.545,1.313.609" transform="translate(-10.764 0)" fill="#f42a41"/>
    <path id="Path_1042" data-name="Path 1042" d="M114.593,68.171c2.744-1.372,5.115-2.517,7.445-3.741.949-.5,1.145.188,1.459.74,1.081,1.906,2.3,3.753,3.182,5.748a7.865,7.865,0,0,0,5.274,4.706c1.244.351,1.567,1.058,1.517,2.325-.114,2.923-.036,5.853-.036,9.19-4.867-2.09-9.771-2.4-14.267-4.222-3.23-1.307-5.7-3.279-6.741-6.806a10.35,10.35,0,0,0-5.083-6.153c-.952-.539-2.192-1.1-1.463-2.58.713-1.446,1.971-1.325,3.273-.936,1.518.453,2.545,1.668,3.857,2.438.8.469,1.624.895,2.438,1.337a1.168,1.168,0,0,0,1.467-.184.917.917,0,0,0,.214-1.091c-.295-.707-.847-.369-1.35-.327-.232.019-.481-.169-1.186-.443" transform="translate(-63.124 -38.389)" fill="#f42a41"/>
    <path id="Path_1043" data-name="Path 1043" d="M16.972,96.306l34.144,8.617c.089.757-.577.819-.982,1.058q-7.544,4.45-15.112,8.859-5.072,2.943-8.126-2.041c-3.2-5.2-6.352-10.429-9.522-15.648-.1-.168-.171-.357-.4-.845" transform="translate(-10.14 -57.536)" fill="#f42a41"/>
    <path id="Path_1044" data-name="Path 1044" d="M36.43,151.721,2.081,143.063c1.761-1.047,3.132-1.867,4.509-2.679q2.4-1.417,4.811-2.82c1.262-.733,2.507-1.966,3.809-2.035,1.406-.074,1.583,1.983,2.492,2.97,2.4,2.607,5.869,3.12,9.217,1,1.456-.92,2.1-.833,2.967.728,1.8,3.252,3.856,6.359,5.768,9.549.321.535.885,1,.777,1.94" transform="translate(-1.243 -80.968)" fill="#f42a41"/>
    <path id="Path_1045" data-name="Path 1045" d="M0,119.4,5.377,98.1c2.677,4.391,5.154,8.464,7.646,12.527.323.526.451.9-.219,1.284C8.639,114.326,4.491,116.77,0,119.4" transform="translate(0 -58.609)" fill="#f42a41"/>
    <path id="Path_1046" data-name="Path 1046" d="M80.3,142.589c-2.014-3.291-3.827-6.181-5.561-9.118-.833-1.411-2.591-2.9-2.192-4.231.339-1.132,2.492-1.734,3.859-2.541,2.9-1.711,5.819-3.4,9.233-5.4L80.3,142.589" transform="translate(-43.305 -72.47)" fill="#f42a41"/>
    <path id="Path_1047" data-name="Path 1047" d="M113.917,54.8c4.651-2.283,9.12-4.453,13.561-6.678.7-.351,1.022-.242,1.429.392,1.659,2.582,1.625,2.767-1.124,4.121-2.674,1.316-5.362,2.6-8.012,3.968-1.084.558-1.962.822-3.007-.181a14.083,14.083,0,0,0-2.847-1.622" transform="translate(-68.057 -28.634)" fill="#f42a41"/>
    <path id="Path_1048" data-name="Path 1048" d="M85.176,71.177c.109.858-.234,1.836.331,2.365,1.819,1.7.1,1.916-.922,2.487a22.714,22.714,0,0,1-9.346,3.088c-.485.039-1.076.535-1.4-.131-.259-.532.375-.762.66-1.094,2.856-3.326,6.707-5.052,10.677-6.716" transform="translate(-44.078 -42.523)" fill="#f42a41"/>
    <path id="Path_1049" data-name="Path 1049" d="M102.178,89.734a5.98,5.98,0,0,1-5.147-3.571c-.17-.583.182-.668.511-.835a19.092,19.092,0,0,1,2.5-1.207c.9-.3,1.638-1.536,2.825-.585a9.521,9.521,0,0,1,3.147,4.714c.161.514-.314.619-.7.752a11.915,11.915,0,0,1-3.134.731" transform="translate(-57.943 -49.696)" fill="#f42a41"/>
    <path id="Path_1050" data-name="Path 1050" d="M111.471,52.917,100.624,58.27c3.647-6,6.324-7.3,10.847-5.354" transform="translate(-60.116 -31.112)" fill="#f42a41"/>
    <path id="Path_1051" data-name="Path 1051" d="M160.371,42.764a2.373,2.373,0,0,1-1.343,2,8.3,8.3,0,0,1-1.248.588c-.763.25-1.585,1.308-2.219.707a7.956,7.956,0,0,1-1.519-2.949c-.2-.513,2.83-2.236,4.01-2.323a2.123,2.123,0,0,1,2.319,1.982" transform="translate(-92.024 -24.36)" fill="#f42a41"/>
  </g>
</svg>
