<svg id="Group_271" data-name="Group 271" xmlns="http://www.w3.org/2000/svg" xmlns:xlink="http://www.w3.org/1999/xlink" width="75.202" height="66.094" viewBox="0 0 75.202 66.094">
  <defs>
    <clipPath id="clip-path">
      <rect id="Rectangle_222" data-name="Rectangle 222" width="75.202" height="66.094" fill="#f42a41"/>
    </clipPath>
  </defs>
  <g id="Group_270" data-name="Group 270" clip-path="url(#clip-path)">
    <path id="Path_1062" data-name="Path 1062" d="M60.7,48.935c0-5.841.037-11.682-.027-17.522-.016-1.443.3-2.064,1.909-2.023,3.756.1,7.294-1.243,10.912-2a14.7,14.7,0,0,1,9.875,1.291,2.436,2.436,0,0,0,2.61.022c4.569-2.594,9.283-1.622,13.988-.423a25.1,25.1,0,0,0,7.37,1.145c1.644-.077,1.453,1.065,1.453,2.089q0,15.4,0,30.809c0,1.348-.1,2.706.025,4.041.186,1.926-.725,2.281-2.4,2.132a56.829,56.829,0,0,1-9.776-1.931,14.031,14.031,0,0,0-10.566,1.265c-.734.381-1.386.777-2.3.23-3.926-2.337-8.064-2.472-12.392-1.2a42.911,42.911,0,0,1-8.659,1.646c-1.415.115-2.082-.2-2.056-1.857.1-5.9.038-11.81.038-17.715m16.028-17.2a89.8,89.8,0,0,0-12.423,2.505c-.519.134-1.347.137-1.061.963.244.7,1.005.392,1.523.277,1.863-.41,3.7-.957,5.569-1.316,3.846-.738,7.742-2.073,11.431.571a.68.68,0,0,0,1.021-.092c.357-.5.005-.813-.387-1.076a11.185,11.185,0,0,0-5.674-1.833m6.2,24.917c-.119-.444-.445-.62-.772-.834a8.691,8.691,0,0,0-5.029-1.6c-4.557.138-8.9,1.508-13.311,2.506-.4.089-.726.346-.625.8.1.48.54.5.919.432.752-.132,1.49-.35,2.244-.468,5.217-.822,10.4-3.763,15.7-.23.494.329.786-.143.875-.608m-6.219-13.7A83.768,83.768,0,0,0,64.34,45.435c-.531.136-1.345.123-1.1.938.22.735.993.409,1.5.3,1.866-.4,3.706-.926,5.577-1.3,3.848-.762,7.739-2.081,11.437.541.409.291.85.341,1.114-.207.22-.457-.119-.713-.433-.924a10.944,10.944,0,0,0-5.719-1.835m29.542,20.1c-.1-.743-.775-.778-1.28-.9-2.915-.681-5.839-1.326-8.765-1.96-3.013-.653-5.958-.68-8.689,1.05-.53.336-1.346.633-.893,1.392.415.7,1.011.059,1.48-.2a9.2,9.2,0,0,1,6.052-1.181c3.533.558,7,1.391,10.475,2.187.609.139,1.237.518,1.62-.4M92.675,33.145a82.211,82.211,0,0,1,12.016,2.34c.493.12,1.26.454,1.477-.314.241-.852-.6-.81-1.114-.945-3.335-.871-6.7-1.6-10.1-2.208a10.226,10.226,0,0,0-7.217,1.128c-.563.328-1.587.585-1.1,1.456.452.8,1.131.008,1.638-.257a8.622,8.622,0,0,1,4.391-1.2M92.783,44.3c.821.117,1.644.223,2.463.353,3.155.5,6.257,1.241,9.356,2,.518.127,1.4.582,1.578-.391.146-.814-.724-.744-1.236-.861-3.233-.742-6.464-1.5-9.715-2.158a10.251,10.251,0,0,0-7.588,1.142c-.507.307-1.422.565-1.025,1.35.458.906,1.1.1,1.59-.156a9.139,9.139,0,0,1,4.576-1.28m.143,9.894a10.152,10.152,0,0,0-5.564,1.547c-.473.292-1.159.595-.713,1.31.407.652.923.127,1.315-.119a9.317,9.317,0,0,1,7.378-1.064c3.171.735,6.366,1.367,9.553,2.029.472.1,1.112.339,1.28-.353s-.443-.765-.963-.894a85.755,85.755,0,0,0-12.286-2.456M76.344,59.758a96.969,96.969,0,0,0-12.323,2.533c-.4.1-1,.241-.829.834.178.634.748.577,1.278.435a21.183,21.183,0,0,1,2.4-.626c5.039-.738,10.07-3.553,15.144-.1a.553.553,0,0,0,.815-.25c.27-.552-.145-.837-.51-1.07a10.525,10.525,0,0,0-5.976-1.757m6.577-8.653a1.145,1.145,0,0,0-.7-.864,12.217,12.217,0,0,0-2.784-1.228c-5.5-1.165-10.534,1.154-15.738,2.2-.362.073-.718.347-.459.843a.775.775,0,0,0,.983.364c1.236-.31,2.455-.721,3.708-.922,4.677-.75,9.378-3.159,14.036.126.422.3.855.054.951-.523M75.887,37.433c-3.52.318-7.708,1.486-11.931,2.464-.375.087-.965.26-.746.887.178.51.6.554,1.107.423,1.728-.446,3.449-.941,5.2-1.26,4.146-.755,8.346-2.49,12.37.449a.584.584,0,0,0,.956-.217c.222-.451-.08-.734-.393-.948a10.209,10.209,0,0,0-6.565-1.8m30.356,3.132c-.2-.671-.82-.7-1.361-.814-3.426-.746-6.842-1.548-10.287-2.2a9.7,9.7,0,0,0-7.17,1.366c-.483.3-1.18.576-.825,1.27.423.829.988.16,1.431-.092a9.36,9.36,0,0,1,6.613-1.167q5.179.953,10.28,2.216c.626.154,1.136.268,1.319-.579M93.634,48.63a10.61,10.61,0,0,0-6.292,1.521c-.512.3-1.119.652-.708,1.312.373.6.892.132,1.322-.122a9.34,9.34,0,0,1,6.789-1.212c3.384.646,6.746,1.367,10.089,2.185.5.124,1.046.379,1.322-.261.318-.739-.362-.891-.81-.994A105.612,105.612,0,0,0,93.634,48.63" transform="translate(-37.166 -16.572)" fill="#f42a41"/>
    <path id="Path_1063" data-name="Path 1063" d="M.053,33.011C.053,24.158.169,15.3,0,6.454-.076,2.333,2.264-.055,6.409,0,18.915.17,31.425.058,43.934.065,47.88.067,49.8,2,49.808,5.945a12.046,12.046,0,0,0,.021,2.113c.3,1.628-1.011,1.806-1.953,2.059a2.106,2.106,0,0,1-2.557-1.049c-.3-.9-.637-1.022-1.419-1.021Q24.945,8.07,5.989,8.038c-.985,0-1.306.237-1.3,1.269q.048,23.767,0,47.534c0,1.189.472,1.328,1.473,1.326q18.86-.041,37.719-.024c.588,0,1.245.229,1.365-.824.124-1.088,1.134-.544,1.722-.56,2.847-.079,2.856-.045,2.843,2.736a12.84,12.84,0,0,1-.128,2.68,5.012,5.012,0,0,1-4.5,3.842c-1.082.1-2.178.073-3.267.073q-17.609.006-35.217,0c-5,0-6.634-1.654-6.636-6.716q0-13.183,0-26.365M27.5,62.043A2.543,2.543,0,0,0,24.9,59.385a2.5,2.5,0,0,0-2.523,2.544,2.566,2.566,0,1,0,5.131.114m-2.5-57.055c.732-.476,2.433.581,2.462-.8.035-1.624-1.69-.791-2.619-.846-.907-.054-2.566-.579-2.553.776s1.673.544,2.709.868" transform="translate(0 0)" fill="#f42a41"/>
    <path id="Path_1064" data-name="Path 1064" d="M79.354,79.569c-8.471,0-16.943-.026-25.414.026-1.4.009-2.023-.2-2.012-1.858.081-11.808.046-23.617.036-35.425,0-.93-.14-1.761,1.3-1.718,1.1.033,1.387.354,1.376,1.433-.053,5.519-.024,11.038-.024,16.557,0,5.84.053,11.681-.036,17.52-.023,1.5.469,1.854,1.868,1.8,3.876-.154,7.56-1.282,11.292-2.133a14.463,14.463,0,0,1,10.2,1.462c.661.342,1.322.888,2.137.366,4.83-3.1,9.887-2.311,14.993-.91a36.324,36.324,0,0,0,6.983,1.205c1.58.116,2.1-.324,2.095-1.984-.07-11.231-.016-22.462-.065-33.693-.005-1.254.3-1.664,1.589-1.623,1.184.038,1.338.553,1.329,1.543-.038,4.364-.016,8.728-.016,13.092,0,7.509-.035,15.018.031,22.526.012,1.45-.438,1.855-1.862,1.845-8.6-.058-17.2-.029-25.8-.029" transform="translate(-31.813 -24.866)" fill="#f42a41"/>
  </g>
</svg>
