<svg id="Group_279" data-name="Group 279" xmlns="http://www.w3.org/2000/svg" xmlns:xlink="http://www.w3.org/1999/xlink" width="133.583" height="133.438" viewBox="0 0 133.583 133.438">
  <defs>
    <clipPath id="clip-path">
      <rect id="Rectangle_225" data-name="Rectangle 225" width="133.583" height="133.438" fill="#f42a41"/>
    </clipPath>
  </defs>
  <g id="Group_278" data-name="Group 278" clip-path="url(#clip-path)">
    <path id="Path_1070" data-name="Path 1070" d="M69.586,214.319q-11.158,0-22.316,0a6.9,6.9,0,0,1-7-5.315,10.7,10.7,0,0,1,.115-3.819c.874-6.424,1.692-12.855,2.659-19.264a15.24,15.24,0,0,1,3.687-7.288,17.483,17.483,0,0,1,9.036-5.683,3.375,3.375,0,0,1,.908-.087q13.331-.006,26.662-.009a7.687,7.687,0,0,1,3.022.859,17.573,17.573,0,0,1,10.423,11.247,29.124,29.124,0,0,1,.736,4.69c.774,5.369,1.429,10.756,2.252,16.117.659,4.3-1.475,6.46-4.624,7.9a8.106,8.106,0,0,1-3.414.662q-11.074-.008-22.148,0" transform="translate(-18.783 -80.885)" fill="#f42a41"/>
    <path id="Path_1071" data-name="Path 1071" d="M137.454,104.274q0-8.962-.006-17.923a1.347,1.347,0,0,1,.156-.8l.2-.206.417-.319a.323.323,0,0,0,.081-.089l0-.051.05,0a.4.4,0,0,0,.113-.117l0-.045.045,0,.126-.13.037-.037.128-.134a21.561,21.561,0,0,1,2.1-2.232.313.313,0,0,0,.078-.087l.008-.052.052,0a.449.449,0,0,0,.078-.068q2.728-2.933,5.453-5.868a.54.54,0,0,1,.666-.132c1.416.493,2.878.848,4.256,1.455A17.226,17.226,0,0,1,161.4,88.7a40.487,40.487,0,0,1,.943,6.092c.71,5.1,1.4,10.2,2.111,15.293a4.562,4.562,0,0,1-.619,3.293c-1.788,2.582-3.972,4.5-7.421,4.486-11.867-.047-23.734-.018-35.6-.018h-.936a47.29,47.29,0,0,0,1.967-4.487,32.651,32.651,0,0,0,2.219-12.579c-.391-8.683-4.279-15.093-12.462-18.587a1.088,1.088,0,0,1-.16-.114,6.859,6.859,0,0,1,1.377-1.422,23.1,23.1,0,0,1,9.213-4.692.567.567,0,0,1,.658.164q2.527,2.72,5.056,5.437l.135.14.2.212.121.126.042,0,0,.043.125.128.047.009,0,.048a.553.553,0,0,0,.1.11l.054.005.01.053a.32.32,0,0,0,.077.084,18.618,18.618,0,0,1,1.932,2.055l.137.144.027.03.117.122.239.259a.267.267,0,0,0,.094.092l.05.007,0,.05a.454.454,0,0,0,.064.079.957.957,0,0,1,.469.979q-.017,8.956-.012,17.911l.046.171.105.38a.369.369,0,0,0,.04.11l.124.246a.367.367,0,0,0,.056.1,3.836,3.836,0,0,0,1.481,1.141.251.251,0,0,0,.148.054l1.668,0a.3.3,0,0,0,.131-.04l.889-.459.155-.136.194-.2.137-.164.389-.854.11-.323" transform="translate(-52.15 -35.523)" fill="#f42a41"/>
    <path id="Path_1072" data-name="Path 1072" d="M141.61.013c1.857.067,4.049-.236,6.168.43,5.061,1.591,7.985,5.182,9.262,10.18.938,3.666.344,7.3-.645,10.877a28.381,28.381,0,0,1-6.242,11.843,12.478,12.478,0,0,1-7.347,4.3,10.781,10.781,0,0,1-8.987-2.9,25.079,25.079,0,0,1-7-10.995,25.559,25.559,0,0,1-1.685-9.812c.261-5.309,2.417-9.6,7.089-12.408A10.882,10.882,0,0,1,137.877.014c1.142,0,2.285,0,3.733,0" transform="translate(-58.543 0)" fill="#f42a41"/>
    <path id="Path_1073" data-name="Path 1073" d="M81.537,96.526c2.111.057,4.248-.208,6.314.416,5.186,1.565,8.153,5.22,9.422,10.327.9,3.613.32,7.2-.654,10.719a28.337,28.337,0,0,1-6.345,11.98,12.492,12.492,0,0,1-7.14,4.186c-3.576.6-6.583-.674-9.186-3-3.791-3.393-5.984-7.77-7.421-12.559-1.075-3.581-1.7-7.238-.839-10.953,1.213-5.242,4.125-9.063,9.453-10.691,2.092-.639,4.259-.359,6.4-.422" transform="translate(-30.549 -45.165)" fill="#f42a41"/>
    <path id="Path_1074" data-name="Path 1074" d="M132.839,155.37h.886q16.681,0,33.361,0a12.634,12.634,0,0,0,12.936-10.738c.093-.493.244-.633.733-.63,4.013.019,8.027,0,12.04.015a2.527,2.527,0,0,1,2.7,1.8,3.31,3.31,0,0,1-.728,3.68q-15.654,13.58-31.314,27.153a3.871,3.871,0,0,1-2.634.876c-4.6.011-9.2,0-13.8.013-.491,0-.73-.079-.786-.657-.125-1.273-.319-2.542-.553-3.8-1.441-7.732-5.379-13.674-12.481-17.335-.134-.069-.333-.073-.36-.374" transform="translate(-62.161 -67.384)" fill="#f42a41"/>
    <path id="Path_1075" data-name="Path 1075" d="M35.793,155.75c-9.3,2.792-14.937,8.895-17.2,18.193-.374,1.539-.692,3.093-1,4.647-.084.421-.212.616-.687.615-4.737-.017-9.475,0-14.213-.021A2.444,2.444,0,0,1,.2,177.694a3.127,3.127,0,0,1,.935-3.487c1.954-1.7,3.926-3.38,5.89-5.07L30.9,148.587c.737-.634.734-.635,1.106.237a35.6,35.6,0,0,0,3.784,6.926" transform="translate(0 -69.32)" fill="#f42a41"/>
    <path id="Path_1076" data-name="Path 1076" d="M148.647,94.34l.253-.685c2.063.037,4.126.152,6.188.065.7-.03.917.492.889,2.331-.055,3.613-.008,7.235-.019,10.853-.018,5.873-1.364,9.553-3.514,9.645-2.22.1-3.674-3.5-3.746-9.413-.052-4.263-.037-8.531-.052-12.8" transform="translate(-69.558 -43.825)" fill="#f42a41"/>
    <path id="Path_1077" data-name="Path 1077" d="M160.231,129.216l-.11.323.11-.323" transform="translate(-74.928 -60.466)" fill="#f42a41"/>
    <path id="Path_1078" data-name="Path 1078" d="M142.223,86.67l-.135-.14.135.14" transform="translate(-66.489 -40.491)" fill="#f42a41"/>
    <path id="Path_1079" data-name="Path 1079" d="M142.834,87.318l-.121-.126.121.126" transform="translate(-66.782 -40.801)" fill="#f42a41"/>
    <path id="Path_1080" data-name="Path 1080" d="M167.137,87.3a.472.472,0,0,1-.078.068l.017-.06Z" transform="translate(-78.174 -40.85)" fill="#f42a41"/>
    <path id="Path_1081" data-name="Path 1081" d="M143.149,87.631l-.124-.128.124.128" transform="translate(-66.928 -40.946)" fill="#f42a41"/>
    <path id="Path_1082" data-name="Path 1082" d="M166.878,87.53a.329.329,0,0,1-.078.087l.012-.068Z" transform="translate(-78.053 -40.959)" fill="#f42a41"/>
    <path id="Path_1083" data-name="Path 1083" d="M143.444,87.959a.553.553,0,0,1-.1-.11l.1.11" transform="translate(-67.075 -41.108)" fill="#f42a41"/>
    <path id="Path_1084" data-name="Path 1084" d="M143.732,88.249a.33.33,0,0,1-.077-.084l.065.018Z" transform="translate(-67.222 -41.256)" fill="#f42a41"/>
    <path id="Path_1085" data-name="Path 1085" d="M162.744,91.89l-.128.134.128-.134" transform="translate(-76.095 -42.999)" fill="#f42a41"/>
    <path id="Path_1086" data-name="Path 1086" d="M147.568,92.329l-.137-.144.137.144" transform="translate(-68.989 -43.137)" fill="#f42a41"/>
    <path id="Path_1087" data-name="Path 1087" d="M162.436,92.21l-.126.13.126-.13" transform="translate(-75.952 -43.149)" fill="#f42a41"/>
    <path id="Path_1088" data-name="Path 1088" d="M147.857,92.633l-.117-.122.117.122" transform="translate(-69.134 -43.29)" fill="#f42a41"/>
    <path id="Path_1089" data-name="Path 1089" d="M162.133,92.549a.4.4,0,0,1-.113.117l.113-.117" transform="translate(-75.816 -43.308)" fill="#f42a41"/>
    <path id="Path_1090" data-name="Path 1090" d="M161.847,92.871a.307.307,0,0,1-.081.089l.014-.068Z" transform="translate(-75.697 -43.458)" fill="#f42a41"/>
    <path id="Path_1091" data-name="Path 1091" d="M148.5,93.319a.267.267,0,0,1-.094-.092.081.081,0,0,1,.094.092" transform="translate(-69.447 -43.625)" fill="#f42a41"/>
    <path id="Path_1092" data-name="Path 1092" d="M148.746,93.586a.479.479,0,0,1-.064-.079l.06.018Z" transform="translate(-69.575 -43.756)" fill="#f42a41"/>
    <path id="Path_1093" data-name="Path 1093" d="M149.708,129.329l-.047-.171a.756.756,0,0,1,.071.11c.006.014-.015.041-.024.062" transform="translate(-70.033 -60.439)" fill="#f42a41"/>
    <path id="Path_1094" data-name="Path 1094" d="M149.986,130.305a.369.369,0,0,1-.04-.11l.053.045Z" transform="translate(-70.166 -60.924)" fill="#f42a41"/>
    <path id="Path_1095" data-name="Path 1095" d="M150.312,130.962a.348.348,0,0,1-.056-.1l.059.032Z" transform="translate(-70.311 -61.237)" fill="#f42a41"/>
    <path id="Path_1096" data-name="Path 1096" d="M159.268,131.429l-.136.164.136-.164" transform="translate(-74.465 -61.501)" fill="#f42a41"/>
    <path id="Path_1097" data-name="Path 1097" d="M158.632,132.108l-.155.135.155-.135" transform="translate(-74.158 -61.819)" fill="#f42a41"/>
    <path id="Path_1098" data-name="Path 1098" d="M153.293,133.247a.249.249,0,0,1-.148-.055l.148.055" transform="translate(-71.663 -62.326)" fill="#f42a41"/>
    <path id="Path_1099" data-name="Path 1099" d="M156.691,133.208a.3.3,0,0,1-.131.04.082.082,0,0,1,.131-.04" transform="translate(-73.261 -62.325)" fill="#f42a41"/>
  </g>
</svg>
