<svg id="Group_283" data-name="Group 283" xmlns="http://www.w3.org/2000/svg" xmlns:xlink="http://www.w3.org/1999/xlink" width="136.13" height="133.438" viewBox="0 0 136.13 133.438">
  <defs>
    <clipPath id="clip-path">
      <rect id="Rectangle_227" data-name="Rectangle 227" width="136.13" height="133.438" fill="#f42a41"/>
    </clipPath>
  </defs>
  <g id="Group_282" data-name="Group 282" clip-path="url(#clip-path)">
    <path id="Path_1107" data-name="Path 1107" d="M91.065,75.406a24.763,24.763,0,0,1-3.332,2.225c-5.12,2.341-11.216.4-13.306-5.4a17.854,17.854,0,0,1-.506-10.03,18.375,18.375,0,0,1,4.53-9,10.835,10.835,0,0,1,11.372-3.225c1.831.5,2.351.776,4.425,2.867.018-.02.052-.039.052-.06.094-2.131,1.3-2.836,3.3-2.759a8.082,8.082,0,0,1,2.689.356,2.319,2.319,0,0,1,1.357,2.693c-.212,1.31-.515,2.607-.824,3.9-.895,3.747-1.816,7.486-2.715,11.231a3.8,3.8,0,0,0-.07.894,2.626,2.626,0,0,0,3.593,2.693,5.7,5.7,0,0,0,3.145-2.4,18.048,18.048,0,0,0,3.554-10.535,13.494,13.494,0,0,0-4.124-9.747A19.414,19.414,0,0,0,91.9,43.622a21.891,21.891,0,0,0-10.841,1.565A19.23,19.23,0,0,0,70.041,56.2a23.921,23.921,0,0,0-1.647,9.974,19.317,19.317,0,0,0,5.661,13.359,18.8,18.8,0,0,0,10.289,4.894,30.181,30.181,0,0,0,8.362.284,27.578,27.578,0,0,0,15.547-6.423,2.74,2.74,0,0,1,3.353-.429,2.185,2.185,0,0,1,.346,3.116,23.443,23.443,0,0,1-7.891,5.878,31.55,31.55,0,0,1-7.308,2.384,35.823,35.823,0,0,1-7.951.579,28.2,28.2,0,0,1-14.467-3.965,21.841,21.841,0,0,1-8.688-9.888,26.044,26.044,0,0,1-2.1-13.377,26.07,26.07,0,0,1,10.079-18.78,23.966,23.966,0,0,1,13.86-5.091,32.1,32.1,0,0,1,8.835.585c5.175,1.18,9.8,3.382,13.159,7.714a18.789,18.789,0,0,1,3.745,9.444,21.421,21.421,0,0,1-1.024,9.649,18.346,18.346,0,0,1-8.446,10.433,13.077,13.077,0,0,1-7.331,2.007A6.319,6.319,0,0,1,91.4,75.861c-.125-.172-.252-.341-.336-.455M80.2,66.3a29.639,29.639,0,0,0,.7,3.64,4.73,4.73,0,0,0,6.013,3.234,7.593,7.593,0,0,0,3.75-2.91,14.4,14.4,0,0,0,2.507-6.771,10.352,10.352,0,0,0-.521-5.678c-.768-1.712-2.634-3.572-5.041-3.386a6.5,6.5,0,0,0-5.252,3.55A18.216,18.216,0,0,0,80.2,66.3" transform="translate(-20.257 -12.312)" fill="#f42a41"/>
    <path id="Path_1108" data-name="Path 1108" d="M2.017,186.163C1.467,185.347.991,184.629.5,183.92a.731.731,0,0,1,.144-1.129c.428-.337.916-.5,1.3-.048a14.42,14.42,0,0,1,1.279,1.871c.067.109-.038.4-.151.527-.3.337-.644.631-1.056,1.022" transform="translate(-0.096 -58.124)" fill="#f42a41"/>
    <path id="Path_1109" data-name="Path 1109" d="M12.355,177.545c-.176-.2-.268-.3-.35-.4-.76-.958-.6-1.618.563-1.972.209-.063.613.292.823.542a.764.764,0,0,1,.094.713,10.3,10.3,0,0,1-1.131,1.117" transform="translate(-3.687 -55.798)" fill="#f42a41"/>
    <path id="Path_1110" data-name="Path 1110" d="M198.958,155.58a14.071,14.071,0,0,1-1.126-1.55.923.923,0,0,1,.126-.862,1.3,1.3,0,0,1,.926-.279c.117.008.272.465.291.726.043.615.014,1.235.014,1.853l-.231.112" transform="translate(-63.183 -48.701)" fill="#f42a41"/>
    <path id="Path_1111" data-name="Path 1111" d="M18.285,171.679c-.182-.192-.411-.323-.41-.453,0-.351-.013-.814.192-1.022a1.36,1.36,0,0,1,1.057-.326c.419.076.627.438.2.837l-1.036.964" transform="translate(-5.71 -54.11)" fill="#f42a41"/>
    <path id="Path_1112" data-name="Path 1112" d="M38.729,153.489l-1.209,1.383-.3-.118a2.533,2.533,0,0,1,.149-.9c.319-.532.853-.494,1.382-.337l-.022-.023" transform="translate(-11.891 -48.868)" fill="#f42a41"/>
    <path id="Path_1113" data-name="Path 1113" d="M.332,186.436c1.108,1.55,1.26,1.522.385,1.991-.206-.656-.4-1.29-.6-1.924l.219-.067" transform="translate(-0.036 -59.388)" fill="#f42a41"/>
    <path id="Path_1114" data-name="Path 1114" d="M178.972,170.77a.763.763,0,0,1,1.157.245c.077.109-.045.359-.076.545l-1.18-.478c.033-.1.065-.208.1-.312" transform="translate(-57.144 -54.344)" fill="#f42a41"/>
    <path id="Path_1115" data-name="Path 1115" d="M164.37,178.916l.544-.471c.095.055.185.078.225.136.481.69.95,1.389,1.432,2.079a1,1,0,0,0,1.268.438c.752-.278.9-.685.467-1.357s-.923-1.343-1.343-2.04c-.109-.181-.052-.463-.071-.7.22.08.532.093.644.251.614.861,1.186,1.753,1.752,2.647.106.168.221.524.156.577a9.494,9.494,0,0,1-1.918,1.386c-.621.285-1.2-.1-1.593-.67l-1.562-2.278" transform="translate(-52.511 -56.384)" fill="#f42a41"/>
    <path id="Path_1116" data-name="Path 1116" d="M184.421,164.263a2.436,2.436,0,0,1,1.39-1.884c.129-.063.354.07.535.113-.049.159-.054.36-.156.471a7.788,7.788,0,0,0-.808.782.752.752,0,0,0,.018.713.791.791,0,0,0,.7.063,6.13,6.13,0,0,0,.889-.564,1.139,1.139,0,0,1,1.488.171,1.027,1.027,0,0,1,.241,1.4,11.1,11.1,0,0,1-1.471,1.573c-.089.085-.357-.018-.541-.034.057-.186.06-.423.18-.549a9.712,9.712,0,0,0,.949-.872c.148-.209.075-.577.1-.874a2.691,2.691,0,0,0-.874.011c-.349.124-.634.418-.978.57a1.208,1.208,0,0,1-1.665-1.089" transform="translate(-58.916 -51.72)" fill="#f42a41"/>
    <path id="Path_1117" data-name="Path 1117" d="M187.225,158.264a5.812,5.812,0,0,1,.538.469.582.582,0,0,0,.967.049c.126-.117.4-.077.6-.11-.031.206.011.478-.105.606-.351.383-.244.661.084.967a8.361,8.361,0,0,0,.992.958,3.186,3.186,0,0,0,1.034.287c.286.065.576.108.968.18-.77.94-1.372,1.033-2.141.42-.423-.336-.76-.782-1.192-1.1a4.576,4.576,0,0,0-1.023-.441c-.1-.04-.263-.042-.287-.1-.259-.676-.5-1.36-.738-2.042l.3-.135" transform="translate(-59.716 -50.414)" fill="#f42a41"/>
    <path id="Path_1118" data-name="Path 1118" d="M183.045,166.158c-.705,1.137-.72,1.171.252,2.115.5.487,1.077.9,1.723,1.426l-.793.755c-.783-.874-1.521-1.625-2.17-2.447a1.435,1.435,0,0,1,.11-1.933c.335-.35.631-.4.879.084" transform="translate(-58.058 -52.816)" fill="#f42a41"/>
    <path id="Path_1119" data-name="Path 1119" d="M141.4,129.986a3.114,3.114,0,0,1,.48.416c.433.557.874,1.114,1.254,1.708a.789.789,0,0,1-.283,1.2c-.357.168-1.018.25-1.239.043a20,20,0,0,1-1.79-2.154l.2-.217a2.473,2.473,0,0,1,.555.373c.372.433.666.94,1.074,1.331.168.161.548.1.832.138.012-.267.123-.59.013-.79a12.715,12.715,0,0,0-.915-1.249c-.144-.2-.257-.416-.384-.625l.2-.172" transform="translate(-44.67 -41.407)" fill="#f42a41"/>
    <path id="Path_1120" data-name="Path 1120" d="M193.329,156.268c-.975.611-1.1,1.152-.367,1.8.106.093-.023.455-.06.885-.753-.661-1.442-1.107-1.26-1.944a2.731,2.731,0,0,1,.864-1.12c.058-.057.406.182.823.381" transform="translate(-61.214 -49.655)" fill="#f42a41"/>
    <path id="Path_1121" data-name="Path 1121" d="M196.451,159.472c.723-.465.8-1,.147-1.621-.089-.084-.074-.331-.031-.481.019-.067.306-.147.333-.112a5.6,5.6,0,0,1,.955,1.373,1.372,1.372,0,0,1-.316,1.071c-.38.482-.813.491-1.088-.23" transform="translate(-62.76 -50.091)" fill="#f42a41"/>
    <path id="Path_1122" data-name="Path 1122" d="M183.028,100.908c.174-.155.333-.418.525-.445.535-.073.72-.351.79-.854.032-.23.274-.429.542-.819.276,1.736-.21,2.309-1.664,2.318l-.193-.2" transform="translate(-58.472 -31.469)" fill="#f42a41"/>
    <path id="Path_1123" data-name="Path 1123" d="M181.6,98.806c-.216-1.567.21-2.194,1.282-2.205.157,0,.316.17.474.262-.1.13-.2.367-.316.373-.615.033-.847.343-.884.935-.011.172-.276.327-.557.636" transform="translate(-57.999 -30.772)" fill="#f42a41"/>
    <path id="Path_1124" data-name="Path 1124" d="M143.482,129.021l2.283,3.009c-.8-.089-2.476-2.229-2.283-3.009" transform="translate(-45.833 -41.099)" fill="#f42a41"/>
    <path id="Path_1125" data-name="Path 1125" d="M177.887,135.986v-8.113l.131-.019q-.067-.3-.132-.574v-8.194l0,0q.015-18.173.011-36.347V77.51l-.2-.077c-.744,1.171-1.474,2.351-2.24,3.507a3.412,3.412,0,0,1-.86.944c-2.228,1.521-4.474,3.015-6.723,4.506Q158.5,92.6,149.123,98.8q-7.7,5.111-15.383,10.249c-.881.587-1.751,1.188-2.628,1.784a3.79,3.79,0,0,0,.356.48q1.542,1.434,3.089,2.864h0l18.5,17.206c3.1,2.893,6.187,5.805,9.3,8.691a1.332,1.332,0,0,0,.109.081L165.51,143a2.687,2.687,0,0,1,.135.251l.074-.055,1.114,1.039c.05.052.1.106.165.161,2.206,2.024,4.367,4.1,6.551,6.145,1.135,1.064,2.288,2.108,3.651,3.364a17.149,17.149,0,0,0,.661-3.169c.05-4.915.037-9.831.023-14.747Z" transform="translate(-41.886 -24.666)" fill="#f42a41"/>
    <path id="Path_1126" data-name="Path 1126" d="M126.132,167.274h0l-2.885-2.691q-.915-.854-1.832-1.7l-2.872-2.677a2.012,2.012,0,0,0-.192-.216c-2.866-2.654-5.744-5.294-8.6-7.955q-10.835-10.087-21.652-20.191c-1.2-1.121-1.179-1.12-2.534-.219-4.605,3.063-9.27,6.04-13.8,9.216a2.653,2.653,0,0,1-3.625-.027c-4.765-3.3-9.634-6.449-14.448-9.677a.839.839,0,0,0-1.249.1q-8.56,8-17.151,15.979Q22.628,159.021,9.975,170.845c-1.222,1.141-2.436,2.288-3.7,3.475a7.793,7.793,0,0,0,3.946.81q51.354-.013,102.709-.008l.078.014.022-.014h16.742a7.949,7.949,0,0,0,1.547-.046c.789-.158,1.557-.426,2.442-.678l-7.63-7.123" transform="translate(-2.005 -41.698)" fill="#f42a41"/>
    <path id="Path_1127" data-name="Path 1127" d="M30.086,126.383l16.672-15.561c-.436-.314-.794-.592-1.17-.842q-9.482-6.3-18.967-12.591c-2.762-1.836-5.511-3.691-8.27-5.531a1.727,1.727,0,0,0-.446-.237l-1.33-.885a1.191,1.191,0,0,0-.108-.089c-4.151-2.772-8.321-5.516-12.474-8.284a5.366,5.366,0,0,1-1.4-1.2C1.8,80.076,1.117,78.909.4,77.767a3.24,3.24,0,0,1-.219-.537L0,77.479v71.2H0l.072,3.039L.83,153.64l3.3-3.078c.015.008.031.015.045.024,0-.022,0-.045,0-.067l.866-.808.056.089a4.563,4.563,0,0,1,.378-.485,7.535,7.535,0,0,0,.582-.549l4.828-4.5a1.565,1.565,0,0,0,.419-.39l.451-.42.389-.35-.006-.007,3.083-2.874c.012,0,.025,0,.036,0l-.005-.031.952-.887.014.01,1-.96,2.884-2.688c.122-.074.237-.142.37-.22-.024-.02-.043-.043-.065-.063l1.183-1.1.388-.36h0l.813-.758a2.14,2.14,0,0,0,.346-.291c.356-.328.709-.661,1.047-1.007l3.4-3.169.32-.226-.031-.044,2.2-2.048.014.005" transform="translate(0 -24.601)" fill="#f42a41"/>
    <path id="Path_1128" data-name="Path 1128" d="M131.443,42.089a6.651,6.651,0,0,0-1.568-1.781c-2.814-1.95-5.68-3.826-8.545-5.7a1.223,1.223,0,0,1-.651-1.173c.029-1.825.018-3.65.015-5.475l.007-2.682a1.251,1.251,0,0,0,0-.421l.023-8.387-.03.016c0-.662,0-1.325.014-1.988.016-.8-.154-1.06-1.018-1.057q-14.689.052-29.378,0a2.982,2.982,0,0,1-1.5-.474c-1.613-1.021-3.178-2.119-4.77-3.176C79.243,6.6,74.429,3.424,69.634.22A.792.792,0,0,0,68.562.2c-1.6,1.1-3.234,2.15-4.85,3.227C59.386,6.309,55.04,9.162,50.753,12.1a7.405,7.405,0,0,1-4.495,1.4c-9.248-.082-18.5-.04-27.745-.04a1.5,1.5,0,0,0-.565.017c-.18.079-.439.268-.442.414-.02,1.131-.022,2.263-.021,3.394h0l-.025,3.876c0,.058-.01.111-.01.172.018,3.979,0,7.959.051,11.938a1.492,1.492,0,0,1-.781,1.439c-2.6,1.685-5.187,3.4-7.772,5.112A5.1,5.1,0,0,0,7.469,40.93c-1.378,2.027-2.661,4.118-3.964,6.162,1,1.593,1.954,3.161,2.964,4.692a7.105,7.105,0,0,0,1.995,2.274c3.842,2.486,7.628,5.058,11.438,7.594.84.559,1.692,1.1,2.713,1.758V18.584h92.908c.019.318.048.579.049.839,0,.989-.025,1.979,0,2.966V36.258l.061-.034V63.269a1.336,1.336,0,0,0,.37-.088c4.191-2.788,8.39-5.565,12.56-8.385a7.643,7.643,0,0,0,2.679-2.262c1.082-1.834,2.27-3.607,3.437-5.443-1.067-1.659-2.118-3.353-3.235-5" transform="translate(-1.12 0)" fill="#f42a41"/>
  </g>
</svg>
