<svg xmlns="http://www.w3.org/2000/svg" width="119.827" height="142.171" viewBox="0 0 119.827 142.171">
  <g id="Group_277" data-name="Group 277" transform="translate(-205.004 -149.701)">
    <g id="Group_276" data-name="Group 276" transform="translate(205.004 151.201)">
      <g id="Group_275" data-name="Group 275" transform="translate(0)">
        <path id="Path_1066" data-name="Path 1066" d="M24.524,118.308c-5.919,0-11.837.025-17.757-.01a7.019,7.019,0,0,1-6.746-6.244,3.435,3.435,0,0,1,.358-1.993A114.864,114.864,0,0,1,7.5,98.9c.844-1.23,1.748-2.42,2.562-3.67a7.472,7.472,0,0,0,.717-2.838c.773-4.1,1.326-8.23,1.82-12.374.589-4.946,1.146-9.9,1.339-14.875.2-5.014.113-10.044.025-15.065a53.531,53.531,0,0,1,2.014-16.724A48.561,48.561,0,0,1,24.161,17.45,43.809,43.809,0,0,1,33.21,8.574a38.442,38.442,0,0,1,42.374-1.4c.538.329.812.186,1.211-.18A17.6,17.6,0,1,1,96.51,35.652a1.007,1.007,0,0,0-.681,1.381,43.97,43.97,0,0,1,1.1,10.126c-.018,4.933-.02,9.866-.036,14.8A143.933,143.933,0,0,0,97.91,76.515c.494,5.018,1.179,10.012,2,14.987a12.48,12.48,0,0,0,2.22,5.645c2.724,3.667,5.048,7.618,7.632,11.378,3.042,4.424-1.18,9.449-5.009,9.783-.563.049-1.134.06-1.7.06q-17.308.006-34.618-.011c-.822,0-1.054.1-.842,1.022a12.493,12.493,0,1,1-24.569,4.35,13.948,13.948,0,0,1,.225-4.356c.205-1.018.205-1.02-.881-1.02H24.524v-.046M88.84,9.244v.006c-.777,0-1.554.02-2.329-.006-.816-.027-1.138.356-1.093,1.146.084,1.52.114,3.045.226,4.564a38.461,38.461,0,0,0,.826,7.638c.186.665.5.96,1.18.937.806-.025,1.614-.017,2.42,0a.921.921,0,0,0,1.046-.764,21.81,21.81,0,0,0,.656-3.148c.213-3.1.31-6.2.463-9.306.038-.766-.3-1.095-1.063-1.074-.775.022-1.554.006-2.331.006m-.073,21.139c.685,0,1.371-.007,2.056,0a.833.833,0,0,0,.953-.922c.014-1.073.01-2.145,0-3.218a.9.9,0,0,0-.987-1.007q-1.967-.008-3.932,0a.821.821,0,0,0-.923.941c.007,1.073.013,2.145,0,3.218-.011.732.35,1.014,1.049.99.594-.021,1.191,0,1.787-.007" transform="translate(0 4.35)" fill="#f42a41"/>
        <path id="Path_1067" data-name="Path 1067" d="M103.726,27.448A27.447,27.447,0,1,1,76.278,0a27.448,27.448,0,0,1,27.448,27.448" transform="translate(14.601 0)" fill="#f42a41" stroke="#fff" stroke-width="3"/>
        <path id="Path_1068" data-name="Path 1068" d="M66.514,5.491c1.073,0,2.146.024,3.218-.007,1.047-.029,1.519.424,1.467,1.483-.212,4.285-.346,8.574-.64,12.851a29.844,29.844,0,0,1-.9,4.347A1.271,1.271,0,0,1,68.21,25.22c-1.113-.024-2.229-.036-3.342,0-.941.029-1.374-.378-1.629-1.3-.962-3.459-.886-7.021-1.141-10.548-.153-2.1-.2-4.2-.312-6.3-.061-1.092.384-1.619,1.511-1.583,1.071.035,2.145.008,3.218.008Z" transform="translate(24.387 5.937)" fill="#fff"/>
        <path id="Path_1069" data-name="Path 1069" d="M66.176,29.316c-.823,0-1.646-.021-2.469.007-.964.033-1.462-.356-1.446-1.367.022-1.48.015-2.962,0-4.444a1.135,1.135,0,0,1,1.276-1.3q2.713-.013,5.43,0A1.236,1.236,0,0,1,70.334,23.6c.011,1.481.017,2.962,0,4.444a1.153,1.153,0,0,1-1.317,1.275c-.946-.013-1.893,0-2.838,0" transform="translate(24.577 12.537)" fill="#fff"/>
      </g>
    </g>
    <g id="Ellipse_50" data-name="Ellipse 50" transform="translate(242.9 256.888)" fill="#fff" stroke="#fff" stroke-width="1">
      <circle cx="17.492" cy="17.492" r="17.492" stroke="none"/>
      <circle cx="17.492" cy="17.492" r="16.992" fill="none"/>
    </g>
    <g id="Ellipse_51" data-name="Ellipse 51" transform="translate(246.787 260.775)" fill="#f42a41" stroke="#fff" stroke-width="1">
      <circle cx="14.091" cy="14.091" r="14.091" stroke="none"/>
      <circle cx="14.091" cy="14.091" r="13.591" fill="none"/>
    </g>
  </g>
</svg>
