<svg id="Group_281" data-name="Group 281" xmlns="http://www.w3.org/2000/svg" xmlns:xlink="http://www.w3.org/1999/xlink" width="137.165" height="141.979" viewBox="0 0 137.165 141.979">
  <defs>
    <clipPath id="clip-path">
      <rect id="Rectangle_226" data-name="Rectangle 226" width="137.165" height="141.979" fill="#f42a41"/>
    </clipPath>
  </defs>
  <g id="Group_280" data-name="Group 280" clip-path="url(#clip-path)">
    <path id="Path_1100" data-name="Path 1100" d="M.431,24.857.912,23.3l.972-2.133c.3,0,.339-.243.407-.454q.656-.927,1.315-1.853a18.876,18.876,0,0,1,1.451-1.448,13.73,13.73,0,0,0,1.672-1.382,28.615,28.615,0,0,1,4.58-2.109l2.114-.468,2.281-.169,2.142,0H31.388c.637-.1.745.2.74.788-.028,4.2-.014,8.394-.014,12.592a3.5,3.5,0,0,0,.117,1.2,5.882,5.882,0,0,0,1.856,4.007,7.07,7.07,0,0,0,1.713,1.2,3.739,3.739,0,0,0,1.982.672,5.142,5.142,0,0,0,2.89.006l.409-.057c.116.011.24.041.292-.113a1.824,1.824,0,0,0,1-.347l.147-.094-.007.005a7.717,7.717,0,0,0,1.857-1.27A6.294,6.294,0,0,0,46.3,27.42c.014-.306.043-.612.043-.918,0-4.19.012-8.379-.01-12.569,0-.477.095-.7.587-.653H76.01c1.242.073,1.242.073,1.306,1.3V21c0,2.151-.011,4.3-.009,6.452a1.23,1.23,0,0,0,.117.688A6.465,6.465,0,0,0,82,33.534a5.688,5.688,0,0,0,2.991.335,4.992,4.992,0,0,0,2.274-.52,6.529,6.529,0,0,0,3.723-3.781,3.728,3.728,0,0,0,.428-2,2.573,2.573,0,0,0,.092-.981c0-4.231.013-8.462-.014-12.694,0-.519.174-.655.62-.624l1.855.006h13.4l2.281,0,.695.057c.323.213.677.059,1.017.082l.407.072,2.3.518a22.291,22.291,0,0,1,4.006,1.892,14.412,14.412,0,0,1,3.688,3.389l1.144,1.428q.151.282.3.563.487,1.079.974,2.158a22.133,22.133,0,0,1,.837,3.985q.018,1.069.039,2.139V78.792l-.055.98a27.63,27.63,0,0,0-4.056-2.57c-.2-.274-.607-.254-.788-.555l.009-.707c.022-.1,0-.162-.114-.151a6.615,6.615,0,0,0-1.569.005c-.632-.028-1.106-.5-1.708-.612a21.635,21.635,0,0,0-2.977-1.093,4.967,4.967,0,0,0-1.7-.447,10.519,10.519,0,0,0-2.446-.579,10.968,10.968,0,0,0-2.29-.386,2.077,2.077,0,0,0-.982-.024c-.025-.075-.059-.139-.156-.116l-.709-.045a19.042,19.042,0,0,0-3.733-.157l-.041.03a.181.181,0,0,0-.309,0,.293.293,0,0,0-.34-.015l-.153,0-.28.02a8.071,8.071,0,0,0-2.28.15,8.033,8.033,0,0,0-2.14.276,7.793,7.793,0,0,0-2.291.408,9.9,9.9,0,0,0-2.285.554,7.368,7.368,0,0,0-1.85.589.464.464,0,0,0-.434.1,15.17,15.17,0,0,0-2.687,1.092,5.282,5.282,0,0,1-1.715.248l-2.283,0-2.138,0-2.282,0-2.28,0-2.14,0-2.281,0-2.282,0H67.314c-.134-.031-.183.032-.167.159a1.19,1.19,0,0,0,0,.706q.006,1.071.011,2.143a8.923,8.923,0,0,0-.011,2.138q.006,1.072.011,2.144a8.914,8.914,0,0,0-.011,2.137q.006,1.072.011,2.144a8.914,8.914,0,0,0-.011,2.137q.006,1.072.011,2.144a8.914,8.914,0,0,0-.011,2.137c-.006.259,0,.519-.02.776-.038.419.141.9-.12,1.248a6.145,6.145,0,0,0-.845,2.259A8.831,8.831,0,0,0,65.6,100.2a7.977,7.977,0,0,0-.419,2.139,8,8,0,0,0-.289,2.143,8.807,8.807,0,0,0-.159,2.14.481.481,0,0,0-.027.408,21.11,21.11,0,0,0,.142,4.46c.02.233.039.465.059.7,0,.2-.088.413.06.6l.067.256a8.8,8.8,0,0,0,.383,2.3,7.319,7.319,0,0,0,.472,1.981,12.511,12.511,0,0,0,.356,1.417c.173,1,.955,1.8.9,2.866a9.967,9.967,0,0,0,0,2.136q.006,1.071.011,2.143a8.915,8.915,0,0,0-.011,2.137c-.044.446.3.272.483.275.991.012,1.986.017,2.977-.01a.812.812,0,0,1,.809.412,21.813,21.813,0,0,0,3.18,3.743c.044.224.389.272.334.6H17.845l-2.142,0-2.28-.162-.41,0c-.025-.074-.057-.141-.156-.117l-.251-.057a.2.2,0,0,0-.245-.067c-.265-.056-.509-.224-.8-.156a20.738,20.738,0,0,1-4.821-2.237l-.136-.08-2.15-1.746-.369-.4-1.664-2.194,0-.011a13.74,13.74,0,0,1-1.346-2.364Q.767,122.518.46,121.6a36.619,36.619,0,0,1-.433-8.228Q.016,71.8.014,30.235a27.128,27.128,0,0,1,.417-5.378M92.069,48.832v-2.15c0-.189,0-.377,0-.566.033-.09-.006-.116-.091-.1-2.32-.01-4.641-.03-6.961-.029q-8.852,0-17.7.019c-.421.272-.177.646-.151.986a8.564,8.564,0,0,0,0,1.836,8.914,8.914,0,0,0-.011,2.137l.011,2.144a8.915,8.915,0,0,0-.011,2.137q.006,1.072.011,2.144a8.923,8.923,0,0,0-.011,2.138q.006,1.071.011,2.143a8.923,8.923,0,0,0-.011,2.138q.006,1.071.011,2.143a8.923,8.923,0,0,0-.011,2.138q.006,1.071.011,2.143a.723.723,0,0,0-.011.566c-.005.018-.018.039-.013.053a.48.48,0,0,0,.047.091c.185.232.439.109.655.11q8.834.011,17.664,0c.212,0,.424-.024.636-.037h.417q2.608.018,5.219.037c.165,0,.348,0,.313-.253-.006-.19-.012-.378-.016-.567v-2.15a13.036,13.036,0,0,0,0-2.131v-2.15a13.036,13.036,0,0,0,0-2.131q0-1.074,0-2.149a12.935,12.935,0,0,0,0-2.132q0-1.074,0-2.149a12.935,12.935,0,0,0,0-2.132q0-1.076,0-2.149a12.948,12.948,0,0,0,0-2.133M14.275,46.013a.126.126,0,0,0-.136,0h-.293a.124.124,0,0,0-.135,0l-.292-.008C10.715,46,8.01,46,5.3,45.981c-.349,0-.436.1-.432.438.016,1.52,0,3.04,0,4.561q.008,5.344.022,10.689c-.007,2.971-.006,5.943-.033,8.915,0,.465.21.471.566.47,2.887-.01,5.775,0,8.661,0,5.749,0,11.5-.011,17.246.02.7,0,.885-.218.745-.845v-21.4c.008-.807,0-1.615.031-2.42.011-.351-.106-.436-.444-.425-1.043.031-2.088.024-3.131.033H27.248a.124.124,0,0,0-.135,0l-.292-.008-7.264.008h-.292a.126.126,0,0,0-.136,0h-.293a.126.126,0,0,0-.136,0h-.57l-.292-.008a23.243,23.243,0,0,0-2.9.02l-.669-.012m1.431,54.736,2.278,0,2.142,0c3.854.007,7.711.008,11.567.029.361,0,.431-.125.42-.448-.028-.757-.02-1.514-.03-2.271V78.792c.008-.876.005-1.752.03-2.627.008-.306-.081-.415-.4-.406-.871.025-1.742.021-2.613.029l-2.279,0-2.283,0-2.137,0-2.284,0-2.279,0-2.14,0-2.28,0-2.283,0-2.137,0-2.284,0-1.567.007c-.512-.024-.261.369-.262.553q-.028,7.547-.023,15.094,0,4.379.005,8.757c0,.306-.068.588.438.582,2.751-.032,5.5-.027,8.252-.034l2.142,0M41.512,46.013h-.436l-.854-.008c-.832-.005-1.665.033-2.493-.031-.619-.046-.789.114-.786.763.025,7.8.016,15.6.017,23.4,0,.213.011.427.009.642,0,.175.09.272.257.265a24.3,24.3,0,0,0,3.685-.105h.193c.054.086.117.082.183.015a.314.314,0,0,0,.354.008,26.2,26.2,0,0,0,3.753.072c5.363.011,10.725.006,16.087.023.467,0,.656-.081.653-.613-.027-4.006-.018-8.014-.02-12.02Q62.107,52.664,62.1,46.9c0-.924.014-.924-.927-.924-2.542,0-5.081,0-7.623,0q-5.808.012-11.613.035h-.293a.124.124,0,0,0-.135,0m-9.429,67.025v-7.277c0-.046-.005-.092-.007-.139-.018-.2-.151-.122-.26-.106-.354-.011-.709-.032-1.065-.032q-7.217,0-14.434,0-5.511.006-11.02.032c-.35-.094-.511,0-.39.387q-.015,5.728-.025,11.456a5.486,5.486,0,0,0,.092,1.549l.049.412c-.088.694.37,1.222.566,1.829a8.7,8.7,0,0,0,1.52,2.862,4.781,4.781,0,0,0,1.759,1.717.7.7,0,0,0,.382.316,4.874,4.874,0,0,0,1.607,1.027,9.082,9.082,0,0,0,3.42,1.076l.409.057a3.259,3.259,0,0,0,1.123.089c2.136,0,4.27,0,6.406,0,3.131,0,6.261.008,9.395,0,.174,0,.531.192.473-.27V113.038ZM60.326,75.787l-2.138,0a14.688,14.688,0,0,0-2.282,0l-2.281,0-2.14,0-2.28,0-2.282,0-2.138,0-2.283,0-2.28,0a13.867,13.867,0,0,0-3.265.126q0,12.166-.009,24.362c0,.416.131.5.522.5q12.072-.015,24.143.005c.519,0,.62-.16.46-.6V98.074a9.552,9.552,0,0,0,0-2.172V93.793a9.561,9.561,0,0,0,0-2.173V89.511a9.552,9.552,0,0,0,0-2.172V85.231a9.552,9.552,0,0,0,0-2.172V80.95a9.552,9.552,0,0,0,0-2.172V76.668c.074-.915.074-.918-.773-.914-.326,0-.652.021-.977.033m36.8-9.834v4.281l.017.709a5.153,5.153,0,0,0,1.967.078h.415q10.163.018,20.326.037c.165,0,.352.007.319-.252-.007-.193-.013-.385-.02-.576V68.1a12.408,12.408,0,0,0,0-2.15V63.817a12.408,12.408,0,0,0,0-2.15V59.537a12.408,12.408,0,0,0,0-2.15V55.256a12.42,12.42,0,0,0,0-2.151v-2.13a12.419,12.419,0,0,0,0-2.151v-2.13c0-.194,0-.387,0-.578.033-.09,0-.116-.09-.1a1.242,1.242,0,0,0-.209-.035c-7.419,0-14.838.007-22.257-.015-.667,0-.489.368-.47.72V65.953Zm-60.14,53.8v4.281l-.006,4.134c-.026.1.013.133.108.112l.141.006.861-.008c.237.006.474.017.711.017,7.528,0,15.053-.01,22.58.02.679,0,.751-.213.751-.8q-.032-10.67,0-21.338c0-.552-.113-.709-.687-.707-6.174.022-12.345.01-18.52.016-1.946,0-3.89.029-5.837.044-.087-.029-.117,0-.089.09q-.006,6.99-.012,13.981Z" transform="translate(0 0.264)" fill="#f42a41"/>
    <path id="Path_1101" data-name="Path 1101" d="M34.849,1.731a4.835,4.835,0,0,1,6-1.165,5.794,5.794,0,0,1,1.414,1.146c.985,1.352.928,2.915.923,4.475-.009,3.875,0,7.749,0,11.625q-.006,4.782-.02,9.566a4.792,4.792,0,0,1-1.344,3.263,4.946,4.946,0,0,1-6.671-.146,5.813,5.813,0,0,1-1.2-3.966q.054-10.682,0-21.363a5.867,5.867,0,0,1,.9-3.437" transform="translate(0.677 0)" fill="#f42a41"/>
    <path id="Path_1102" data-name="Path 1102" d="M112.6,138.614l-4.254,1.182c-1.667.2-3.315.525-5,.636a37.143,37.143,0,0,1-10.114-.709c-.186-.039-.375-.056-.562-.083l-4.419-1.282-4.407-1.986c-1.434-.9-2.929-1.7-4.3-2.7l-.715-.571-1.547-1.148a3.815,3.815,0,0,0-1.01-1,4.727,4.727,0,0,0-1.207-1.121l-.931-1.019a11.891,11.891,0,0,0-1.266-1.565l-.516-.728,0,0-.09-.125a1.891,1.891,0,0,1-.563-.664q-.968-1.59-1.932-3.181a47.013,47.013,0,0,1-2.188-4.721A10.494,10.494,0,0,0,67,115.966q-.482-2.43-.966-4.858c-.019-.233-.038-.465-.057-.7a41.017,41.017,0,0,1,.011-7.131c.015-.138.031-.275.047-.413l.257-1.725q.22-1.068.44-2.135l.563-1.98q.378-1.069.755-2.14l.1-.284a13.405,13.405,0,0,1,.889-1.743c.8-1.546,1.628-3.079,2.562-4.551.715-.771,1.331-1.623,1.984-2.445a20.321,20.321,0,0,1,1.684-1.915,52.926,52.926,0,0,1,6-4.888,16.009,16.009,0,0,0,2.45-1.428,23.941,23.941,0,0,0,2.4-1.149l1.84-.762.145-.047.14-.08.278-.026,1.868-.665a17.475,17.475,0,0,0,2.272-.6l2.283-.436c1.459-.117,2.9-.387,4.369-.423a50.6,50.6,0,0,1,6.59.3.705.705,0,0,0,.568.105l.062.017.062-.013a7.372,7.372,0,0,0,1.748.31l3.132.812c.234.071.467.145.7.218,1.684.668,3.391,1.28,5,2.114a37.415,37.415,0,0,1,6.554,4.291c.108.264.409.247.59.406l1.517,1.429a4.006,4.006,0,0,0,.842.9l0,0c.033.105.039.231.188.247l1.411,1.463.1.132,2.973,4.233a40.77,40.77,0,0,1,2.332,5.056c.058.159.092.319.3.328a4.9,4.9,0,0,0,.44,1.358,45.972,45.972,0,0,1,1.209,5.957,33.252,33.252,0,0,1-.466,10.584,1.612,1.612,0,0,0-.013.281q-.6,2.127-1.207,4.252c-.148-.035-.189.047-.237.174-.255.675-.524,1.345-.788,2.017q-.981,1.928-1.96,3.857c-.127.261-.467.347-.541.653l-1.183,1.718a33.977,33.977,0,0,1-4.381,4.765c-1.024.959-2.172,1.784-3.266,2.669a10.387,10.387,0,0,0-1.844,1.158l-.43.281-4.136,2.135a18.683,18.683,0,0,0-2.587.956m12.991-48-.018-.028-.116-.161.006.008c-.483-.657-.8-1.457-1.57-1.872l-.219-.282a10.486,10.486,0,0,0-1.927-1.981c-.047-.047-.094-.095-.142-.142a13.335,13.335,0,0,0-2.135-1.792l-.129-.069a6.824,6.824,0,0,0-2.15-1.44l-.173-.119a.092.092,0,0,0-.1-.07,16.717,16.717,0,0,0-3.905-2.01,9.22,9.22,0,0,0-2.529-.929,14.406,14.406,0,0,0-3.714-.97l-.419,0-.282-.044a5.625,5.625,0,0,0-2.289-.391l-2.131-.037a8.419,8.419,0,0,0-3.152,0l-.851.047a13.954,13.954,0,0,0-2.706.422A21,21,0,0,0,90.4,79.936a23.375,23.375,0,0,0-4.726,2.179A23.136,23.136,0,0,0,81.551,84.8a7.846,7.846,0,0,0-1.483,1.34.4.4,0,0,0-.254.256.475.475,0,0,0-.3.307l.01-.01a8.771,8.771,0,0,0-1.9,1.9,36.2,36.2,0,0,0-2.751,3.7l-.465.848a3.711,3.711,0,0,0-.6,1.141,12.2,12.2,0,0,0-1.1,2.571,11.953,11.953,0,0,0-1.259,3.715,13.686,13.686,0,0,0-.575,3.418c-.019.28-.038.56-.057.839a11.972,11.972,0,0,0-.088,2.728c0,.192.005.383.007.574a2.923,2.923,0,0,0,.076,1.3l.049.264a6.993,6.993,0,0,0,.287,2.139,8.642,8.642,0,0,0,.437,2.143,23.874,23.874,0,0,0,1.77,4.675,12.879,12.879,0,0,0,2.329,4.063,10.409,10.409,0,0,0,1.265,1.792l.152.165a8.569,8.569,0,0,0,2.081,2.261,12.442,12.442,0,0,0,2.209,2.041l2.139,1.561a21.7,21.7,0,0,0,4.408,2.476,22.875,22.875,0,0,0,4.73,1.654,6.668,6.668,0,0,0,1.7.45,27.442,27.442,0,0,0,4.526.623,26.786,26.786,0,0,0,7.335-.464,9.311,9.311,0,0,0,2.136-.427,8.949,8.949,0,0,0,2.413-.745,4.311,4.311,0,0,0,1.708-.594,2.534,2.534,0,0,0,.857-.37,9.287,9.287,0,0,0,1.887-.88,11.847,11.847,0,0,0,2.037-1.194,5.688,5.688,0,0,0,.68-.361,30.452,30.452,0,0,0,4.883-4.064,19.7,19.7,0,0,0,3.36-4.239c.125-.042.15-.157.187-.262l1.1-1.707a3.824,3.824,0,0,0,.595-1.173,21.844,21.844,0,0,0,1.932-5.424c.008-.185.017-.37.027-.555.213-.1.183-.267.124-.443l.018-.269c.078-.024.144-.059.129-.159l.046-.269a6.1,6.1,0,0,0,.513-2.443c.019-.279.038-.559.057-.839a17.15,17.15,0,0,0,0-3.888l-.055-.7a14.256,14.256,0,0,0-.658-3.3A8.282,8.282,0,0,0,129.707,99a20.291,20.291,0,0,0-1.686-4.423,26.8,26.8,0,0,0-2.358-3.87.086.086,0,0,0-.075-.092" transform="translate(1.312 1.464)" fill="#f42a41"/>
    <path id="Path_1103" data-name="Path 1103" d="M86.429,1.572l.306.434a5.8,5.8,0,0,1,.718,2.983q-.032,10.719,0,21.438a6.592,6.592,0,0,1-.765,3.546L85.55,31.1l-1.705.687-.268.054a10.753,10.753,0,0,1-1.763-.072A5.419,5.419,0,0,1,79.021,30.1l-.162-.268c-.231-.729-.81-1.326-.818-2.141l-.012-2.138V6.284l.028-2.124a6,6,0,0,1,.859-2.143l.1-.143c1.66-2.09,4.25-2.447,6.691-.993.051.041.1.082.152.123L86,1.132l.011.011.132.132.011.011.132.132.011.011.127.143" transform="translate(1.556 0)" fill="#f42a41"/>
    <path id="Path_1104" data-name="Path 1104" d="M104.071,125.843h-.293l-2.287-.051q0-6.545,0-13.091c0-.542-.155-1.208.1-1.59s.974-.036,1.478-.16a14.439,14.439,0,0,0,2.282,0h2.281a12.908,12.908,0,0,0,2.139,0h2.281c1.683.012,3.366.018,5.049.043.27,0,.565-.112.813.1q0,1.069.007,2.139v6.419l-.049,1.653-.064.2c-.01.095-.021.191-.032.287a4.206,4.206,0,0,1-1.006,1.858c-.15.185-.3.369-.449.553a7.256,7.256,0,0,1-2.306,1.429l-1.393.191-8.55.019" transform="translate(2.022 2.211)" fill="#f42a41"/>
    <path id="Path_1105" data-name="Path 1105" d="M99.185,123.936c-.008.19-.02.379-.021.568,0,1.3,0,1.3-1.337,1.3-2.846,0-5.692-.022-8.538.01a8.089,8.089,0,0,1-3.664-.607,5.623,5.623,0,0,1-2.623-3c-.025-.055-.05-.11-.076-.165a.076.076,0,0,0-.025-.11,27.351,27.351,0,0,1-.157-4.383c-.013-2.152-.013-4.3-.018-6.456.172-.191.421-.054.617-.146h2.281a12.908,12.908,0,0,0,2.139,0h2.281a14.439,14.439,0,0,0,2.282,0H94.6a12.908,12.908,0,0,0,2.139,0h2.281l.156.143q0,1.069.006,2.138v10.705Z" transform="translate(1.649 2.212)" fill="#f42a41"/>
    <path id="Path_1106" data-name="Path 1106" d="M94.672,87.711a3.644,3.644,0,0,1,2.352-.6,4.479,4.479,0,0,1,1.281.494.465.465,0,0,0,.409.308l0,0,.315.393.756,1.438.085.174a.068.068,0,0,0,.024.1l.5,2.3a10.658,10.658,0,0,1,1.84-4.305,4.95,4.95,0,0,1,1.08-.752l.159-.086,0,.008a4.017,4.017,0,0,1,2.823.428l.152.123c.044.035.088.069.131.105l.248.2,1.052,1.123q.2.5.408,1c.308,2.265-1.337,3.035-3.072,3.854H108a12.91,12.91,0,0,0,2.139,0h2.281l1.019.094.152.009.831.157.814.327,1.468,1.112a2.881,2.881,0,0,0,.809.885,6.64,6.64,0,0,1,.76,3.347c-.038,2.779-.022,5.56,0,8.339,0,.458-.107.59-.578.589q-7.607-.021-15.213.014c-.573,0-.626-.212-.624-.694.017-4.371,0-8.743.018-13.114,0-.45-.052-.709-.573-.507-.611-.011-1.224.009-1.831-.045-.279-.025-.317.059-.312.284.011.59.015,1.179.022,1.769v10.705c-.09.511.217,1.2-.127,1.5-.367.323-1.044.1-1.584.1-4.607.007-9.214-.01-13.82.019-.71,0-.93-.159-.918-.915.049-3.088.017-6.178.015-9.267-.035-.693.413-1.232.591-1.857q.184-.294.368-.586a6.53,6.53,0,0,1,3.6-2.163l.145-.01.3-.07,2.284-.022a14.441,14.441,0,0,0,2.282,0h3.542a15.233,15.233,0,0,1-1.516-.656,2.834,2.834,0,0,1-1.627-2.682,4.68,4.68,0,0,1,1.293-2.654l.161-.153.481-.159Z" transform="translate(1.649 1.736)" fill="#f42a41"/>
  </g>
</svg>
