<svg xmlns="http://www.w3.org/2000/svg" xmlns:xlink="http://www.w3.org/1999/xlink" width="244" height="114" viewBox="0 0 244 114">
  <defs>
    <filter id="Rectangle_54" x="0" y="0" width="244" height="114" filterUnits="userSpaceOnUse">
      <feOffset input="SourceAlpha"/>
      <feGaussianBlur stdDeviation="5.5" result="blur"/>
      <feFlood flood-opacity="0.161"/>
      <feComposite operator="in" in2="blur"/>
      <feComposite in="SourceGraphic"/>
    </filter>
  </defs>
  <g id="Group_210" data-name="Group 210" transform="translate(-1573.5 -870.5)">
    <g transform="matrix(1, 0, 0, 1, 1573.5, 870.5)" filter="url(#Rectangle_54)">
      <g id="Rectangle_54-2" data-name="Rectangle 54" transform="translate(16.5 16.5)" fill="#fff" stroke="#0e9477" stroke-width="1" opacity="0.54">
        <rect width="211" height="81" rx="11" stroke="none"/>
        <rect x="0.5" y="0.5" width="210" height="80" rx="10.5" fill="none"/>
      </g>
    </g>
    <text id="ক্যালেন্ডার" transform="translate(1670 937)" font-size="28" font-family="HindSiliguri-Regular, Hind Siliguri"><tspan x="0" y="0">ক্যালেন্ডার</tspan></text>
    <g id="Layer_1" data-name="Layer 1" transform="translate(1617.933 908.97)">
      <g id="Group_209" data-name="Group 209" transform="translate(0 0)">
        <path id="Path_395" data-name="Path 395" d="M29.417,39.272a5.574,5.574,0,0,0-1.553-.253c-.607.016-.834-.165-.821-.851.049-2.936.009-5.874.032-8.81,0-.516-.077-.7-.658-.7q-11.633.034-23.268,0c-.607,0-.744.161-.742.755q.034,9.535,0,19.07c0,.549.086.734.693.728,4.893-.03,9.788,0,14.682-.035.586,0,.784.193.886.723a5.5,5.5,0,0,0,.444,1.3c.181.379.074.462-.291.441-.305-.016-.611-.007-.918-.007H2.041c-1.469,0-2.022-.551-2.022-2.009,0-8.482.023-16.964-.019-25.447-.007-1.341.727-2.166,2.006-2.025.021,0,.044,0,.065,0,.992,0,1.011,0,.99.986a2.7,2.7,0,0,0,1.543,2.8,2.136,2.136,0,0,0,2.948-1.565,6.258,6.258,0,0,0,.256-1.825c-.021-.269.065-.421.362-.391.109.011.218,0,.328,0,4.261,0,8.52.009,12.782-.012.512,0,.7.123.644.649a3.671,3.671,0,0,0,.246,1.846,2.364,2.364,0,0,0,2.264,1.485,2.475,2.475,0,0,0,2.1-1.822,5.786,5.786,0,0,1,.146-.9c.19-.405-.544-1.193.462-1.239,1.511-.068,2.217.391,2.3,1.422.009.109.011.219.011.328V38.832c0,.13-.014.26-.025.439Z" transform="translate(0 -18.248)" fill="#0e9477"/>
        <path id="Path_396" data-name="Path 396" d="M126.043,131.694a7.617,7.617,0,1,1-7.641-7.624,7.671,7.671,0,0,1,7.641,7.624Zm-7.638,6.027a6.014,6.014,0,1,0-6.013-6,6.031,6.031,0,0,0,6.013,6Z" transform="translate(-91.363 -102.296)" fill="#21bf84"/>
        <path id="Path_397" data-name="Path 397" d="M131.92,3.588c0,.612.011,1.227,0,1.839a1.687,1.687,0,0,1-1.7,1.708,1.646,1.646,0,0,1-1.746-1.65c-.033-1.269-.035-2.541,0-3.81A1.686,1.686,0,0,1,130.223.018a1.73,1.73,0,0,1,1.692,1.73c.014.612,0,1.227,0,1.839Z" transform="translate(-105.902 -0.015)" fill="#0e9477"/>
        <path id="Path_398" data-name="Path 398" d="M24.482,3.552c0,.635.021,1.271-.005,1.9a1.648,1.648,0,0,1-1.734,1.66,1.671,1.671,0,0,1-1.711-1.692q-.026-1.837,0-3.678a1.723,1.723,0,1,1,3.447-.032c.021.612,0,1.227,0,1.839Z" transform="translate(-17.33 0)" fill="#0e9477"/>
        <path id="Path_399" data-name="Path 399" d="M29.385,75.364c-.458,0-.916-.019-1.372,0s-.62-.186-.612-.625q.021-1.343,0-2.687c-.009-.44.161-.644.612-.637.914.012,1.829.007,2.745,0,.391,0,.612.128.605.569-.016.939-.014,1.88,0,2.819.007.437-.2.576-.6.563-.456-.014-.914,0-1.372,0Z" transform="translate(-22.59 -58.885)" fill="#0e9477"/>
        <path id="Path_400" data-name="Path 400" d="M119.963,75.355h-.853a1.007,1.007,0,0,1-1.121-1.157c0-.723.023-1.448,0-2.171-.018-.472.2-.621.625-.618.918.009,1.836.007,2.754,0,.376,0,.569.146.567.542-.009.965,0,1.929,0,2.894,0,.353-.16.519-.521.509-.481-.012-.962,0-1.443,0Z" transform="translate(-97.278 -58.877)" fill="#0e9477"/>
        <path id="Path_401" data-name="Path 401" d="M29.341,110.583c-.393,0-.788-.03-1.176.005-.583.054-.835-.135-.8-.765.046-.849.023-1.7.007-2.557-.009-.446.175-.634.621-.627.914.014,1.83.009,2.747,0,.4,0,.6.16.591.586-.014.941-.012,1.88,0,2.82,0,.391-.161.553-.549.541-.479-.016-.958,0-1.437-.005Z" transform="translate(-22.56 -87.924)" fill="#0e9477"/>
        <path id="Path_402" data-name="Path 402" d="M31.384,143.857a1.723,1.723,0,0,1-1.95,1.948c-.479,0-.958-.011-1.437,0-.376.011-.57-.13-.567-.53.007-.962.005-1.922,0-2.883a.463.463,0,0,1,.519-.527c.979-.005,1.96-.007,2.94,0,.346,0,.5.2.5.546C31.379,142.895,31.386,143.376,31.384,143.857Z" transform="translate(-22.616 -116.967)" fill="#0e9477"/>
        <path id="Path_403" data-name="Path 403" d="M76.643,108.633a1.722,1.722,0,0,1-1.93,1.966c-.5,0-1-.007-1.5,0-.351,0-.516-.147-.511-.512q.016-1.443,0-2.883c-.005-.405.2-.541.565-.541.937,0,1.873,0,2.81,0,.4,0,.6.17.576.6-.023.458-.005.918-.005,1.376Z" transform="translate(-59.941 -87.941)" fill="#0e9477"/>
        <path id="Path_404" data-name="Path 404" d="M76.643,143.853a1.722,1.722,0,0,1-1.93,1.966c-.5,0-1-.007-1.5,0-.351,0-.516-.147-.511-.512q.016-1.443,0-2.883c-.005-.405.2-.541.565-.541.937,0,1.873,0,2.81,0,.4,0,.6.17.576.6-.023.458-.005.918-.005,1.376Z" transform="translate(-59.941 -116.98)" fill="#0e9477"/>
        <path id="Path_405" data-name="Path 405" d="M76.635,73.478a1.666,1.666,0,0,1-1.88,1.89c-.5,0-1-.009-1.5,0-.372.007-.567-.133-.563-.535.011-.962.009-1.922,0-2.883a.457.457,0,0,1,.518-.523c.979,0,1.96-.005,2.94,0,.342,0,.505.177.491.541-.019.5-.005,1-.005,1.508Z" transform="translate(-59.933 -58.889)" fill="#0e9477"/>
        <path id="Path_406" data-name="Path 406" d="M117.943,108.54v-.853a.953.953,0,0,1,1.093-1.064c.741,0,1.483.014,2.224-.005.448-.011.641.172.625.621a5.046,5.046,0,0,1-.051,1.56c-.177.458-.848.414-1.276.651a8.69,8.69,0,0,0-1.392.848.945.945,0,0,1-.965.225c-.39-.142-.239-.516-.253-.8C117.927,109.328,117.943,108.935,117.943,108.54Z" transform="translate(-97.234 -87.906)" fill="#0e9477"/>
        <path id="Path_407" data-name="Path 407" d="M129.969,150.815a.983.983,0,0,1,1.6-.723c.451.379.9.762,1.322,1.178.281.279.437.288.707-.04.956-1.165,1.952-2.3,2.934-3.443.518-.6,1.12-.716,1.587-.314s.463.992-.06,1.609q-1.909,2.251-3.829,4.491a1,1,0,0,1-1.637.119c-.76-.658-1.5-1.344-2.248-2.011a1.069,1.069,0,0,1-.37-.867Z" transform="translate(-107.159 -121.396)" fill="#21bf84"/>
      </g>
    </g>
  </g>
</svg>
