<svg id="Component_9_1" data-name="Component 9 – 1" xmlns="http://www.w3.org/2000/svg" width="62.438" height="26.567" viewBox="0 0 62.438 26.567">
  <g id="Group_3" data-name="Group 3" transform="translate(480.874 -685.058)">
    <path id="Path_7" data-name="Path 7" d="M-418.641,696a12.923,12.923,0,0,0-1.076-3.356h0a1.274,1.274,0,0,0-.219-.416.854.854,0,0,0-.181-.362c-.025-.061-.042-.128-.11-.159a2.652,2.652,0,0,0-.462-.748,1.488,1.488,0,0,0-.287-.425l-.272-.376h0l-.412-.5c-.22-.244-.429-.5-.664-.729a13.665,13.665,0,0,0-3.966-2.719,13.593,13.593,0,0,0-3.786-1.054,13.1,13.1,0,0,0-3.139,0,13.6,13.6,0,0,0-2.081.415,11.173,11.173,0,0,0-2.774,1.127,2.833,2.833,0,0,1-1.5.4q-19.876-.016-39.751-.018a1.506,1.506,0,0,0-1.55,1.542q.037,9.742,0,19.485a1.489,1.489,0,0,0,1.5,1.507c5.4-.015,10.793-.007,16.19-.008q4.221,0,8.443-.005h.211c.071,0,.143.007.214.007q7.625,0,15.251,0a1.029,1.029,0,0,1,.551.148c.367.216.741.424,1.127.6a13.265,13.265,0,0,0,4.892,1.249,13.139,13.139,0,0,0,2.533-.087,13.264,13.264,0,0,0,3.873-1.132,13.209,13.209,0,0,0,3.827-2.689,13.077,13.077,0,0,0,2.92-4.489,12.644,12.644,0,0,0,.893-4.206A14.038,14.038,0,0,0-418.641,696Zm-2.161-3.144a.205.205,0,0,0,0-.021A.205.205,0,0,1-420.8,692.853Zm-30.9,12.213c-.12-.149-.146-.275-.07-.393-.075.118-.049.244.071.393a.455.455,0,0,1,.034-.035h0a.433.433,0,0,0-.034.035c.161.21.3.249.441.109C-451.4,705.315-451.543,705.276-451.7,705.066Zm.207-.17a.342.342,0,0,0,.087.086A.338.338,0,0,1-451.5,704.9Zm-.027-.28h0l-.015.093a.2.2,0,0,0-.085.132.2.2,0,0,1,.085-.132Zm0,0a.246.246,0,0,0-.133.07.246.246,0,0,1,.133-.07Zm.285.38a.214.214,0,0,1-.03.064A.214.214,0,0,0-451.239,704.994Zm.046-.229h0l-.025.025Zm-.065-.2a.408.408,0,0,1-.1,0,.408.408,0,0,0,.1,0Zm-16.456-15.975a.342.342,0,0,0-.043.257l.049.057h0l-.049-.057-.009.009.009-.009A.344.344,0,0,1-467.714,688.585Zm.367.26a.1.1,0,0,1-.1.067.2.2,0,0,1-.138.06.2.2,0,0,0,.138-.06.1.1,0,0,0,.1-.067.124.124,0,0,0,.005-.026A.124.124,0,0,1-467.346,688.845Zm-.093-.065a.074.074,0,0,0,0-.021A.074.074,0,0,1-467.439,688.78Zm-.28.131.011-.01Zm.206-.411a.316.316,0,0,0-.1-.026A.316.316,0,0,1-467.513,688.5Zm-.12-.05a.167.167,0,0,0-.028.029h0a.16.16,0,0,1,.028-.029.135.135,0,0,1,.065-.026A.135.135,0,0,0-467.633,688.45Zm-2.125,3.7a.2.2,0,0,0,.055.051A.2.2,0,0,1-469.758,692.151Zm.086.063a.216.216,0,0,0,.04.016A.216.216,0,0,1-469.672,692.215Zm1.837-3.694c.105-.174.2-.236.306-.2-.108-.04-.2.022-.305.2a.191.191,0,0,0-.124.256A.191.191,0,0,1-467.835,688.521Zm-8.51,9.794q0,.71,0,1.419,0-.71,0-1.419c0-1.616,0-3.232,0-4.848C-476.342,695.083-476.345,696.7-476.345,698.315Zm27.625,5.192a1.07,1.07,0,0,0,.465-.072h0A1.07,1.07,0,0,1-448.721,703.507Zm.465-.715c0-.214,0-.428.01-.642C-448.253,702.363-448.255,702.577-448.256,702.792Zm28.678-3.157a12,12,0,0,1-1.573,4.8,12.118,12.118,0,0,1-6.3,5.327,11.89,11.89,0,0,1-5.461.7,11.823,11.823,0,0,1-5.949-2.268,11.953,11.953,0,0,1-4.722-7.132,11.914,11.914,0,0,1,.793-7.79,11.846,11.846,0,0,1,1.851-2.882,12.191,12.191,0,0,1,6.485-3.934,9.694,9.694,0,0,1,1.523-.244.592.592,0,0,1,.119-.049.592.592,0,0,0-.119.049,15.67,15.67,0,0,1,2.474,0,11.92,11.92,0,0,1,5.369,1.891,12.314,12.314,0,0,1,2.9,2.619,12.768,12.768,0,0,1,1.38,2.141h0a12.325,12.325,0,0,1,1.159,3.641A12.026,12.026,0,0,1-419.577,699.635Zm-13.016-13.5c-.033,0-.067,0-.1.01C-432.661,686.139-432.627,686.135-432.594,686.134Z" fill="#d6001b"/>
    <path id="Path_8" data-name="Path 8" d="M-191.968,735.948c-.834-.457-1.65-.947-2.474-1.423q-1.855-1.071-3.712-2.14a.492.492,0,0,0-.775.456q0,1.779,0,3.559,0,1.808,0,3.616a.492.492,0,0,0,.759.445c.2-.11.393-.233.591-.347,1.869-1.077,3.734-2.161,5.61-3.225A.525.525,0,0,0-191.968,735.948Z" transform="translate(-236.071 -38.077)" fill="#d6001b"/>
  </g>
  <text id="লাইভ" transform="translate(10.384 16.567)" fill="#fff" font-size="10" font-family="SolaimanLipiNormal, SolaimanLipi"><tspan x="0" y="0">লাইভ</tspan></text>
</svg>
