<svg xmlns="http://www.w3.org/2000/svg" xmlns:xlink="http://www.w3.org/1999/xlink" width="507.385" height="131.994" viewBox="0 0 507.385 131.994">
  <defs>
    <clipPath id="clip-path">
      <rect id="Rectangle_1" data-name="Rectangle 1" width="507.385" height="131.994" fill="none"/>
    </clipPath>
  </defs>
  <g id="Group_2" data-name="Group 2" transform="translate(0 -56)">
    <g id="Group_1" data-name="Group 1" transform="translate(0 56)" clip-path="url(#clip-path)">
      <path id="Path_1" data-name="Path 1" d="M11.124,85.931c1.684-1.319,1.925-2.994,2.67-4.371C22.938,64.673,34.661,50.4,53.125,42.932c.53-.214,1.049-.466,1.594-.632C60.041,40.675,65.556,39.687,70,43.85c4.713,4.408,5.819,10.229,4.156,16.434-.642,2.4-1.679,4.686-2.71,7.5,4.574.012,8.832.184,12.53,2.905,1.465,1.079,2.166-.708,2.673-1.772,1.572-3.3,2.983-6.668,4.564-9.959a18.544,18.544,0,0,1,4.467-6.444c2.054-1.733,4.157-1.855,6.079.218a27.2,27.2,0,0,1,6.155,10.287c2.345-.916,3.8-2.933,5.683-4.376,4.094-3.134,6.442-3.011,10.283.476,2.574,2.336,3.783,5.667,6.171,8.369,3.344-4.232,5.234-9.089,8.169-13.295,2.5-3.579,4.752-4.465,8.479-3.592,1.5.352,2.684.981,2.6,2.633a2.377,2.377,0,0,1-2.639,2.2c-3.208-.01-4.621,2.164-5.905,4.521-2.022,3.708-3.788,7.571-6.027,11.142-2.589,4.125-4.6,4.094-7.659.39q-2.625-3.175-5.313-6.3c-1.773-2.062-3.687-2.454-5.893-.545-1.818,1.574-3.7,3.075-5.626,4.52-3.2,2.409-4.064,2.164-5.9-1.5-1.229-2.448-2.325-4.976-3.736-7.315-1.686-2.8-2.836-2.734-4.777,0a15.957,15.957,0,0,0-2.637,6.27,33.375,33.375,0,0,1-3.3,8.957c-1.423,2.754-3.26,3.23-5.834,1.627-2.918-1.817-5.816-3.58-9.449-3.788-2.636-.151-3.5.407-3.133,3.306.916,7.341-2.937,12.115-9.824,13.36-3.456.624-5.614-.249-6.5-3.661-.6-2.314-1.675-2.508-3.619-1.269a57.247,57.247,0,0,1-6.653,3.564,7.771,7.771,0,0,1-9.125-1.649c-2.331-2.657-2.309-5.63-.742-8.618,3.3-6.29,8.987-9.258,15.621-10.632A28.3,28.3,0,0,1,62.621,67.8c2.3.516,3.726-.09,4.487-2.4.784-2.378,1.954-4.642,2.608-7.049,1.55-5.717-.064-9.332-5.045-12.546-1.264-.816-2.376-.523-3.6-.347C48.858,47.208,39.275,53.7,31.3,62.576,21.2,73.817,14.05,86.869,10.984,101.652A263.985,263.985,0,0,0,6.29,135.258a31.594,31.594,0,0,1-.791,5.421c-.429,1.679-.544,4.155-2.964,3.959-2.279-.185-2.367-2.45-2.474-4.3a43.474,43.474,0,0,1,.7-10.25c2.7-14.858,3.34-30.023,6.322-44.809,2.878-14.265,7.516-28.019,16.4-39.915.85-1.139,1.362-3.694,3.777-2.215,2.251,1.379,2.054,3.287.769,5.306-1.534,2.409-2.817,5-4.54,7.264-6.53,8.573-9.375,18.679-12.348,28.746a7.182,7.182,0,0,0-.011,1.466m29.542-1.446c7.456-.864,12.708-5.343,17.374-10.675,1.469-1.679-.1-1.971-1.293-1.79-3.159.481-6.424.775-9.394,1.842-3.773,1.356-6.317,4.461-8.306,7.857-.854,1.457-.908,2.981,1.619,2.766m27.742-5.449c.03-3.181-1.478-4.83-3.592-3.931-2.326.989-5.668,6.845-5.5,9.355.075,1.155.39,1.562,1.58,1.571,3.5.025,7.485-3.628,7.516-6.995" transform="translate(0 -12.655)" fill="#fff"/>
      <path id="Path_2" data-name="Path 2" d="M445.392,44.519c.287-1.706,1.387-1.989,2.286-2.365a41.628,41.628,0,0,1,18.82-3.168c3.007.184,7.337,5.473,6.778,8.792-.483,2.869.587,3.895,2.865,5.192a20.728,20.728,0,0,1,7.234,7.686c1.061,1.786,1.906,1.53,3.09.36,1.954-1.933,3.933-3.842,5.864-5.8A56.854,56.854,0,0,1,524.8,38.637c4.165-.652,7.992,0,11.214,2.968a8.767,8.767,0,0,0,5.924,2.339c4.936.151,8.2,2.905,10.6,7.011a65.624,65.624,0,0,0,9.154,12.4c1.911,1.992,3.382,2.127,4.822-.7,3.935-7.73,7.616-15.606,12.468-22.844,2.108-3.143,4.227-6.292,7.331-8.57,3.5-2.57,6.209-1.846,7.844,2.182,1.887,4.648,1.831,9.617,2.081,14.519.145,2.856.028,5.733.324,8.571.434,4.167,2.9,5.5,6.731,3.73a27.012,27.012,0,0,0,7.878-6.03c11.288-11.654,20.5-24.892,29.42-38.352.949-1.432,1.438-4.716,3.554-3.523,2.067,1.164.665,3.969-.488,5.823-5.439,8.747-11.675,16.952-17.5,25.436a98.017,98.017,0,0,1-15.787,18.5,37.883,37.883,0,0,1-3.431,2.859c-6.692,4.609-12.157,2.552-14.1-5.248-1.478-5.933-1.1-12.055-1.883-18.057-.262-2,.144-4.862-1.863-5.482-2.11-.652-3.25,2.069-4.479,3.617-4.656,5.866-7.919,12.532-10.937,19.331a37.193,37.193,0,0,1-5.02,8.937c-2.583,3.111-4.347,3.3-7.586.789a36.35,36.35,0,0,1-6.841-7.667,73.282,73.282,0,0,0-7.447-9.417c-3.717-3.661-6.2-3.471-9.283.7a45.269,45.269,0,0,1-5.224,6.359,14.673,14.673,0,0,1-1.306,1.117c-3.38,2.5-8.616,3.317-9.807,1.217-1.88-3.313.856-5.759,2.444-8.27,1.425-2.253,3.646-3.771,5.677-5.454.84-.7,2.116-1.411,1.559-2.748-.47-1.13-1.784-.872-2.775-.859-8.962.121-17.263,2.563-24.4,7.967a50.418,50.418,0,0,0-14.249,16.091c-.932,1.72-1.958,3.433-4.309,3.443-2.445.01-2.737-2.139-3.573-3.65a34.458,34.458,0,0,0-5.485-7.424c-1.5-1.544-2.97-1.923-4.839-.678-3.414,2.275-7.382,3.6-10.571,6.3-2.015,1.707-5.961,1.653-6.916,0-1.449-2.5-.465-4.753,1.535-6.406,3-2.477,6.264-4.629,9.27-7.1,1.768-1.451,3.355-3.156,2.561-5.87-.554-1.894-1.424-2.8-3.645-2.562a105.453,105.453,0,0,1-18.054.58m80.114,13.588a10.4,10.4,0,0,0,9.3-8.567c.058-.482.122-.914-.269-1.217-.572-.443-1.035.012-1.534.258-4.009,1.974-6.179,5.337-7.5,9.526" transform="translate(-137.816 -3.737)" fill="#fff"/>
      <path id="Path_3" data-name="Path 3" d="M263.475,41.969c6.258-2,12.2-5.3,19.179-3.214,2.67.8,5.465-.388,8.124-1.017,8.128-1.924,14.841,0,19.525,7.107,1.515,2.3,2.869,1.957,4.271.374,9.552-10.785,27.106-5.335,33.507,4.328,2.376,3.585,2.508,3.452,4.611-.434,12.33-22.79,31.69-37.418,55.294-47.046,5.425-2.213,11.233-2.157,16.974-2,3.271.089,6.063,2.676,7.056,6.065.778,2.661-.825,7.918-2.841,9.451a2.054,2.054,0,0,1-2.524.3c-.808-.578-.323-1.459.026-2.17.452-.923.983-1.808,1.453-2.723,1.626-3.168.071-6.241-3.56-6.645A28.207,28.207,0,0,0,411,5.647c-6.6,2.55-13.527,4.366-19.42,8.493-11.03,7.722-21.486,16.071-29.144,27.355-4.049,5.967-7.094,12.265-6.563,19.779a40.01,40.01,0,0,1-.427,5.122c-.106,1.755-1.041,2.9-2.709,2.986-1.739.093-2.345-1.349-2.356-2.8-.052-6.79-3.851-11.952-7.877-16.731-4.235-5.025-10.239-6.179-16.565-4.929-5.846,1.155-10.017,4.346-11.42,10.451a32.04,32.04,0,0,1-1.182,3.925c-.4,1.1-1.037,2.211-2.4,2.1-1.478-.124-2.121-1.4-2.334-2.632a24.431,24.431,0,0,1-.066-4.1c0-8.449-6.694-14.093-14.97-12.63-.791.14-1.585.281-2.383.365-4.907.52-8.481,2.528-10.4,7.5-1.525,3.959-4.995,6.792-7.5,10.2-.769,1.047-1.951,2.17-.917,3.672.95,1.381,2.389,1.046,3.771.907,3.569-.359,7.078-.8,9.631-3.771.4-.462,1.042-1.109,1.766-.581a1.811,1.811,0,0,1,.472,1.887,7.183,7.183,0,0,1-4.33,5.442c-3.212,1.346-6.427,2.925-10.155,2.691-4.809-.3-7.9-4.375-6.538-9a19.007,19.007,0,0,1,5.877-9.1,15.43,15.43,0,0,0,4.4-6.051c.871-2.251.339-3.534-2.437-3.156-3.815.521-7.656,1.068-11.362-1.068" transform="translate(-81.526 0)" fill="#fff"/>
    </g>
  </g>
</svg>
